SplineFontDB: 3.2
FontName: SPA3
FullName: SPA3
FamilyName: SPA3
Weight: Regular
Copyright: Copyright (c) 2021, Vasek Potocek
UComments: "2021-1-20: Created with FontForge (http://fontforge.org)"
Version: 1.0
ItalicAngle: 0
UnderlinePosition: -100
UnderlineWidth: 50
Ascent: 800
Descent: 200
InvalidEm: 0
sfntRevision: 0x00010000
LayerCount: 2
Layer: 0 1 "Back" 1
Layer: 1 1 "Fore" 0
XUID: [1021 581 1839483784 9705260]
FSType: 0
OS2Version: 0
OS2_WeightWidthSlopeOnly: 0
OS2_UseTypoMetrics: 0
CreationTime: 1611141588
ModificationTime: 1613170936
PfmFamily: 17
TTFWeight: 400
TTFWidth: 5
LineGap: 0
VLineGap: 0
OS2TypoAscent: 1024
OS2TypoAOffset: 0
OS2TypoDescent: -400
OS2TypoDOffset: 0
OS2TypoLinegap: 0
OS2WinAscent: 1024
OS2WinAOffset: 0
OS2WinDescent: 400
OS2WinDOffset: 0
HheadAscent: 1024
HheadAOffset: 0
HheadDescent: -400
HheadDOffset: 0
OS2CapHeight: 660
OS2XHeight: 486
OS2Vendor: 'PfEd'
OS2UnicodeRanges: 80000000.00000000.00000000.00000000
MarkAttachClasses: 1
DEI: 91125
Encoding: UnicodeBmp
Compacted: 1
UnicodeInterp: none
NameList: Adobe Glyph List
DisplaySize: -48
AntiAlias: 1
FitToEm: 0
WinInfo: 0 20 14
BeginPrivate: 2
BlueValues 45 [-410 -390 320 340 476 496 650 670 1014 1034]
BlueFuzz 1 1
EndPrivate
BeginChars: 65536 155

StartChar: uni204E
Encoding: 8270 8270 0
Width: 418
Flags: MW
LayerCount: 2
Fore
SplineSet
209 273 m 1,0,-1
 112 155 l 1,1,-1
 72 184 l 1,2,-1
 155 312 l 1,3,-1
 13 368 l 1,4,-1
 28 415 l 1,5,-1
 175 376 l 1,6,-1
 184 528 l 1,7,-1
 234 528 l 1,8,-1
 243 376 l 1,9,-1
 390 415 l 1,10,-1
 405 368 l 1,11,-1
 263 312 l 1,12,-1
 346 184 l 1,13,-1
 306 155 l 1,14,-1
 209 273 l 1,0,-1
EndSplineSet
Validated: 1
EndChar

StartChar: sun.stroke
Encoding: 61440 61440 1
Width: 1000
LayerCount: 2
Fore
SplineSet
820 330 m 1,0,-1
 970 113 l 1,1,-1
 707 95 l 1,2,-1
 631 -157 l 1,3,-1
 453 38 l 1,4,-1
 208 -61 l 1,5,-1
 250 200 l 1,6,-1
 20 330 l 1,7,-1
 250 460 l 1,8,-1
 208 721 l 1,9,-1
 453 622 l 1,10,-1
 631 817 l 1,11,-1
 707 565 l 1,12,-1
 970 547 l 1,13,-1
 820 330 l 1,0,-1
760 330 m 1,14,-1
 880 504 l 1,15,-1
 670 518 l 1,16,-1
 609 720 l 1,17,-1
 467 564 l 1,18,-1
 271 643 l 1,19,-1
 304 434 l 1,20,-1
 120 330 l 1,21,-1
 304 226 l 1,22,-1
 271 17 l 1,23,-1
 467 96 l 1,24,-1
 609 -60 l 1,25,-1
 670 142 l 1,26,-1
 880 156 l 1,27,-1
 760 330 l 1,14,-1
720 330 m 128,-1,29
 720 247 720 247 661 189 c 0,30,31
 603 130 603 130 520 130 c 128,-1,32
 437 130 437 130 379 189 c 0,33,34
 320 247 320 247 320 330 c 128,-1,35
 320 413 320 413 379 471 c 0,36,37
 437 530 437 530 520 530 c 128,-1,38
 603 530 603 530 661 471 c 0,39,28
 720 413 720 413 720 330 c 128,-1,29
665 330 m 128,-1,41
 665 390 665 390 623 433 c 0,42,43
 580 475 580 475 520 475 c 128,-1,44
 460 475 460 475 417 433 c 0,45,46
 375 390 375 390 375 330 c 128,-1,47
 375 270 375 270 417 227 c 0,48,49
 460 185 460 185 520 185 c 128,-1,50
 580 185 580 185 623 227 c 0,51,40
 665 270 665 270 665 330 c 128,-1,41
EndSplineSet
Validated: 1
EndChar

StartChar: sun.fill
Encoding: 61441 61441 2
Width: 1000
LayerCount: 2
Fore
SplineSet
820 330 m 1,0,-1
 970 113 l 1,1,-1
 707 95 l 1,2,-1
 631 -157 l 1,3,-1
 453 38 l 1,4,-1
 208 -61 l 1,5,-1
 250 200 l 1,6,-1
 20 330 l 1,7,-1
 250 460 l 1,8,-1
 208 721 l 1,9,-1
 453 622 l 1,10,-1
 631 817 l 1,11,-1
 707 565 l 1,12,-1
 970 547 l 1,13,-1
 820 330 l 1,0,-1
665 330 m 128,-1,15
 665 390 665 390 623 433 c 0,16,17
 580 475 580 475 520 475 c 128,-1,18
 460 475 460 475 417 433 c 0,19,20
 375 390 375 390 375 330 c 128,-1,21
 375 270 375 270 417 227 c 0,22,23
 460 185 460 185 520 185 c 128,-1,24
 580 185 580 185 623 227 c 0,25,14
 665 270 665 270 665 330 c 128,-1,15
EndSplineSet
Validated: 1
EndChar

StartChar: moon.stroke
Encoding: 61442 61442 3
Width: 1000
LayerCount: 2
Fore
SplineSet
925 710 m 1,0,1
 864 730 864 730 800 730 c 0,2,3
 634 730 634 730 517 613 c 128,-1,4
 400 496 400 496 400 330 c 128,-1,5
 400 164 400 164 517 47 c 128,-1,6
 634 -70 634 -70 800 -70 c 0,7,8
 864 -70 864 -70 925 -50 c 1,9,10
 785 -170 785 -170 600 -170 c 0,11,12
 393 -170 393 -170 246 -24 c 0,13,14
 100 123 100 123 100 330 c 128,-1,15
 100 537 100 537 246 684 c 0,16,17
 393 830 393 830 600 830 c 0,18,19
 785 830 785 830 925 710 c 1,0,1
700 769 m 1,20,21
 651 780 651 780 600 780 c 0,22,23
 414 780 414 780 282 648 c 128,-1,24
 150 516 150 516 150 330 c 128,-1,25
 150 144 150 144 282 12 c 128,-1,26
 414 -120 414 -120 600 -120 c 0,27,28
 651 -120 651 -120 700 -109 c 1,29,30
 574 -80 574 -80 482 12 c 0,31,32
 350 144 350 144 350 330 c 128,-1,33
 350 516 350 516 482 648 c 0,34,35
 574 740 574 740 700 769 c 1,20,21
EndSplineSet
Validated: 1
EndChar

StartChar: moon.fill
Encoding: 61443 61443 4
Width: 1000
Flags: W
LayerCount: 2
Fore
SplineSet
925 710 m 1,0,1
 864 730 864 730 800 730 c 0,2,3
 634 730 634 730 517 613 c 128,-1,4
 400 496 400 496 400 330 c 128,-1,5
 400 164 400 164 517 47 c 128,-1,6
 634 -70 634 -70 800 -70 c 0,7,8
 864 -70 864 -70 925 -50 c 1,9,10
 785 -170 785 -170 600 -170 c 0,11,12
 393 -170 393 -170 246 -24 c 0,13,14
 100 123 100 123 100 330 c 128,-1,15
 100 537 100 537 246 684 c 0,16,17
 393 830 393 830 600 830 c 0,18,19
 785 830 785 830 925 710 c 1,0,1
EndSplineSet
Validated: 1
EndChar

StartChar: star.stroke
Encoding: 61444 61444 5
Width: 1000
LayerCount: 2
Fore
SplineSet
520 139 m 1,0,-1
 226 -75 l 1,1,-1
 338 271 l 1,2,-1
 44 485 l 1,3,-1
 408 485 l 1,4,-1
 520 830 l 1,5,-1
 632 485 l 1,6,-1
 996 485 l 1,7,-1
 702 271 l 1,8,-1
 814 -75 l 1,9,-1
 520 139 l 1,0,-1
520 215 m 1,10,-1
 696 87 l 1,11,-1
 629 295 l 1,12,-1
 805 423 l 1,13,-1
 587 423 l 1,14,-1
 520 630 l 1,15,-1
 453 423 l 1,16,-1
 235 423 l 1,17,-1
 411 295 l 1,18,-1
 344 87 l 1,19,-1
 520 215 l 1,10,-1
EndSplineSet
Validated: 1
EndChar

StartChar: star.fill
Encoding: 61445 61445 6
Width: 1000
Flags: W
LayerCount: 2
Fore
SplineSet
520 139 m 1,0,-1
 226 -75 l 1,1,-1
 338 271 l 1,2,-1
 44 485 l 1,3,-1
 408 485 l 1,4,-1
 520 830 l 1,5,-1
 632 485 l 1,6,-1
 996 485 l 1,7,-1
 702 271 l 1,8,-1
 814 -75 l 1,9,-1
 520 139 l 1,0,-1
EndSplineSet
Validated: 1
EndChar

StartChar: ellipsis.stroke
Encoding: 61446 61446 7
Width: 1000
LayerCount: 2
Fore
SplineSet
300 330 m 0,0,1
 300 268 300 268 256 224 c 0,2,3
 212 180 212 180 150 180 c 0,4,5
 88 180 88 180 44 224 c 0,6,7
 0 268 0 268 0 330 c 0,8,9
 0 392 0 392 44 436 c 0,10,11
 88 480 88 480 150 480 c 0,12,13
 212 480 212 480 256 436 c 0,14,15
 300 392 300 392 300 330 c 0,0,1
250 330 m 0,16,17
 250 371 250 371 221 401 c 0,18,19
 191 430 191 430 150 430 c 0,20,21
 109 430 109 430 79 401 c 0,22,23
 50 371 50 371 50 330 c 0,24,25
 50 289 50 289 79 259 c 0,26,27
 109 230 109 230 150 230 c 0,28,29
 191 230 191 230 221 259 c 0,30,31
 250 289 250 289 250 330 c 0,16,17
650 330 m 0,32,33
 650 268 650 268 606 224 c 0,34,35
 562 180 562 180 500 180 c 0,36,37
 438 180 438 180 394 224 c 0,38,39
 350 268 350 268 350 330 c 0,40,41
 350 392 350 392 394 436 c 0,42,43
 438 480 438 480 500 480 c 0,44,45
 562 480 562 480 606 436 c 0,46,47
 650 392 650 392 650 330 c 0,32,33
600 330 m 0,48,49
 600 371 600 371 571 401 c 0,50,51
 541 430 541 430 500 430 c 0,52,53
 459 430 459 430 429 401 c 0,54,55
 400 371 400 371 400 330 c 0,56,57
 400 289 400 289 429 259 c 0,58,59
 459 230 459 230 500 230 c 0,60,61
 541 230 541 230 571 259 c 0,62,63
 600 289 600 289 600 330 c 0,48,49
1000 330 m 0,64,65
 1000 268 1000 268 956 224 c 0,66,67
 912 180 912 180 850 180 c 0,68,69
 788 180 788 180 744 224 c 0,70,71
 700 268 700 268 700 330 c 0,72,73
 700 392 700 392 744 436 c 0,74,75
 788 480 788 480 850 480 c 0,76,77
 912 480 912 480 956 436 c 0,78,79
 1000 392 1000 392 1000 330 c 0,64,65
950 330 m 0,80,81
 950 371 950 371 921 401 c 0,82,83
 891 430 891 430 850 430 c 0,84,85
 809 430 809 430 779 401 c 0,86,87
 750 371 750 371 750 330 c 0,88,89
 750 289 750 289 779 259 c 0,90,91
 809 230 809 230 850 230 c 0,92,93
 891 230 891 230 921 259 c 0,94,95
 950 289 950 289 950 330 c 0,80,81
EndSplineSet
Validated: 1
EndChar

StartChar: ellipsis.fill
Encoding: 61447 61447 8
Width: 1000
LayerCount: 2
Fore
SplineSet
300 330 m 0,0,1
 300 268 300 268 256 224 c 0,2,3
 212 180 212 180 150 180 c 0,4,5
 88 180 88 180 44 224 c 0,6,7
 0 268 0 268 0 330 c 0,8,9
 0 392 0 392 44 436 c 0,10,11
 88 480 88 480 150 480 c 0,12,13
 212 480 212 480 256 436 c 0,14,15
 300 392 300 392 300 330 c 0,0,1
650 330 m 0,16,17
 650 268 650 268 606 224 c 0,18,19
 562 180 562 180 500 180 c 0,20,21
 438 180 438 180 394 224 c 0,22,23
 350 268 350 268 350 330 c 0,24,25
 350 392 350 392 394 436 c 0,26,27
 438 480 438 480 500 480 c 0,28,29
 562 480 562 480 606 436 c 0,30,31
 650 392 650 392 650 330 c 0,16,17
1000 330 m 0,32,33
 1000 268 1000 268 956 224 c 0,34,35
 912 180 912 180 850 180 c 0,36,37
 788 180 788 180 744 224 c 0,38,39
 700 268 700 268 700 330 c 0,40,41
 700 392 700 392 744 436 c 0,42,43
 788 480 788 480 850 480 c 0,44,45
 912 480 912 480 956 436 c 0,46,47
 1000 392 1000 392 1000 330 c 0,32,33
EndSplineSet
Validated: 1
EndChar

StartChar: uni2713
Encoding: 10003 10003 9
Width: 500
Flags: MW
HStem: -15 63
LayerCount: 2
Fore
SplineSet
151 -20 m 1,0,1
 91 146 91 146 0 275 c 1,2,-1
 57 313 l 1,3,4
 142 183 142 183 189 48 c 1,5,-1
 193 48 l 1,6,7
 233 167 233 167 323 372 c 0,8,9
 407 562 407 562 478 670 c 1,10,-1
 536 639 l 5,11,12
 464 520 464 520 382 340 c 4,13,14
 291 141 291 141 238 -10 c 1,15,-1
 151 -20 l 1,0,1
EndSplineSet
Validated: 1
EndChar

StartChar: uni2800
Encoding: 10240 10240 10
Width: 850
LayerCount: 2
Fore
SplineSet
400 680 m 0,0,1
 400 618 400 618 356 574 c 0,2,3
 312 530 312 530 250 530 c 0,4,5
 188 530 188 530 144 574 c 0,6,7
 100 618 100 618 100 680 c 0,8,9
 100 742 100 742 144 786 c 0,10,11
 188 830 188 830 250 830 c 0,12,13
 312 830 312 830 356 786 c 0,14,15
 400 742 400 742 400 680 c 0,0,1
350 680 m 0,16,17
 350 721 350 721 321 751 c 0,18,19
 291 780 291 780 250 780 c 0,20,21
 209 780 209 780 179 751 c 0,22,23
 150 721 150 721 150 680 c 0,24,25
 150 639 150 639 179 609 c 0,26,27
 209 580 209 580 250 580 c 0,28,29
 291 580 291 580 321 609 c 0,30,31
 350 639 350 639 350 680 c 0,16,17
400 330 m 0,32,33
 400 268 400 268 356 224 c 0,34,35
 312 180 312 180 250 180 c 0,36,37
 188 180 188 180 144 224 c 0,38,39
 100 268 100 268 100 330 c 0,40,41
 100 392 100 392 144 436 c 0,42,43
 188 480 188 480 250 480 c 0,44,45
 312 480 312 480 356 436 c 0,46,47
 400 392 400 392 400 330 c 0,32,33
350 330 m 0,48,49
 350 371 350 371 321 401 c 0,50,51
 291 430 291 430 250 430 c 0,52,53
 209 430 209 430 179 401 c 0,54,55
 150 371 150 371 150 330 c 0,56,57
 150 289 150 289 179 259 c 0,58,59
 209 230 209 230 250 230 c 0,60,61
 291 230 291 230 321 259 c 0,62,63
 350 289 350 289 350 330 c 0,48,49
400 -20 m 0,64,65
 400 -82 400 -82 356 -126 c 0,66,67
 312 -170 312 -170 250 -170 c 0,68,69
 188 -170 188 -170 144 -126 c 0,70,71
 100 -82 100 -82 100 -20 c 0,72,73
 100 42 100 42 144 86 c 0,74,75
 188 130 188 130 250 130 c 0,76,77
 312 130 312 130 356 86 c 0,78,79
 400 42 400 42 400 -20 c 0,64,65
350 -20 m 0,80,81
 350 21 350 21 321 51 c 0,82,83
 291 80 291 80 250 80 c 0,84,85
 209 80 209 80 179 51 c 0,86,87
 150 21 150 21 150 -20 c 0,88,89
 150 -61 150 -61 179 -91 c 0,90,91
 209 -120 209 -120 250 -120 c 0,92,93
 291 -120 291 -120 321 -91 c 0,94,95
 350 -61 350 -61 350 -20 c 0,80,81
750 680 m 0,96,97
 750 618 750 618 706 574 c 0,98,99
 662 530 662 530 600 530 c 0,100,101
 538 530 538 530 494 574 c 0,102,103
 450 618 450 618 450 680 c 0,104,105
 450 742 450 742 494 786 c 0,106,107
 538 830 538 830 600 830 c 0,108,109
 662 830 662 830 706 786 c 0,110,111
 750 742 750 742 750 680 c 0,96,97
700 680 m 0,112,113
 700 721 700 721 671 751 c 0,114,115
 641 780 641 780 600 780 c 0,116,117
 559 780 559 780 529 751 c 0,118,119
 500 721 500 721 500 680 c 0,120,121
 500 639 500 639 529 609 c 0,122,123
 559 580 559 580 600 580 c 0,124,125
 641 580 641 580 671 609 c 0,126,127
 700 639 700 639 700 680 c 0,112,113
750 330 m 0,128,129
 750 268 750 268 706 224 c 0,130,131
 662 180 662 180 600 180 c 0,132,133
 538 180 538 180 494 224 c 0,134,135
 450 268 450 268 450 330 c 0,136,137
 450 392 450 392 494 436 c 0,138,139
 538 480 538 480 600 480 c 0,140,141
 662 480 662 480 706 436 c 0,142,143
 750 392 750 392 750 330 c 0,128,129
700 330 m 0,144,145
 700 371 700 371 671 401 c 0,146,147
 641 430 641 430 600 430 c 0,148,149
 559 430 559 430 529 401 c 0,150,151
 500 371 500 371 500 330 c 0,152,153
 500 289 500 289 529 259 c 0,154,155
 559 230 559 230 600 230 c 0,156,157
 641 230 641 230 671 259 c 0,158,159
 700 289 700 289 700 330 c 0,144,145
750 -20 m 0,160,161
 750 -82 750 -82 706 -126 c 0,162,163
 662 -170 662 -170 600 -170 c 0,164,165
 538 -170 538 -170 494 -126 c 0,166,167
 450 -82 450 -82 450 -20 c 0,168,169
 450 42 450 42 494 86 c 0,170,171
 538 130 538 130 600 130 c 0,172,173
 662 130 662 130 706 86 c 0,174,175
 750 42 750 42 750 -20 c 0,160,161
700 -20 m 0,176,177
 700 21 700 21 671 51 c 0,178,179
 641 80 641 80 600 80 c 0,180,181
 559 80 559 80 529 51 c 0,182,183
 500 21 500 21 500 -20 c 0,184,185
 500 -61 500 -61 529 -91 c 0,186,187
 559 -120 559 -120 600 -120 c 0,188,189
 641 -120 641 -120 671 -91 c 0,190,191
 700 -61 700 -61 700 -20 c 0,176,177
EndSplineSet
Validated: 1
EndChar

StartChar: uni2801
Encoding: 10241 10241 11
Width: 850
LayerCount: 2
Fore
SplineSet
400 680 m 0,0,1
 400 618 400 618 356 574 c 0,2,3
 312 530 312 530 250 530 c 0,4,5
 188 530 188 530 144 574 c 0,6,7
 100 618 100 618 100 680 c 0,8,9
 100 742 100 742 144 786 c 0,10,11
 188 830 188 830 250 830 c 0,12,13
 312 830 312 830 356 786 c 0,14,15
 400 742 400 742 400 680 c 0,0,1
400 330 m 0,16,17
 400 268 400 268 356 224 c 0,18,19
 312 180 312 180 250 180 c 0,20,21
 188 180 188 180 144 224 c 0,22,23
 100 268 100 268 100 330 c 0,24,25
 100 392 100 392 144 436 c 0,26,27
 188 480 188 480 250 480 c 0,28,29
 312 480 312 480 356 436 c 0,30,31
 400 392 400 392 400 330 c 0,16,17
350 330 m 0,32,33
 350 371 350 371 321 401 c 0,34,35
 291 430 291 430 250 430 c 0,36,37
 209 430 209 430 179 401 c 0,38,39
 150 371 150 371 150 330 c 0,40,41
 150 289 150 289 179 259 c 0,42,43
 209 230 209 230 250 230 c 0,44,45
 291 230 291 230 321 259 c 0,46,47
 350 289 350 289 350 330 c 0,32,33
400 -20 m 0,48,49
 400 -82 400 -82 356 -126 c 0,50,51
 312 -170 312 -170 250 -170 c 0,52,53
 188 -170 188 -170 144 -126 c 0,54,55
 100 -82 100 -82 100 -20 c 0,56,57
 100 42 100 42 144 86 c 0,58,59
 188 130 188 130 250 130 c 0,60,61
 312 130 312 130 356 86 c 0,62,63
 400 42 400 42 400 -20 c 0,48,49
350 -20 m 0,64,65
 350 21 350 21 321 51 c 0,66,67
 291 80 291 80 250 80 c 0,68,69
 209 80 209 80 179 51 c 0,70,71
 150 21 150 21 150 -20 c 0,72,73
 150 -61 150 -61 179 -91 c 0,74,75
 209 -120 209 -120 250 -120 c 0,76,77
 291 -120 291 -120 321 -91 c 0,78,79
 350 -61 350 -61 350 -20 c 0,64,65
750 680 m 0,80,81
 750 618 750 618 706 574 c 0,82,83
 662 530 662 530 600 530 c 0,84,85
 538 530 538 530 494 574 c 0,86,87
 450 618 450 618 450 680 c 0,88,89
 450 742 450 742 494 786 c 0,90,91
 538 830 538 830 600 830 c 0,92,93
 662 830 662 830 706 786 c 0,94,95
 750 742 750 742 750 680 c 0,80,81
700 680 m 0,96,97
 700 721 700 721 671 751 c 0,98,99
 641 780 641 780 600 780 c 0,100,101
 559 780 559 780 529 751 c 0,102,103
 500 721 500 721 500 680 c 0,104,105
 500 639 500 639 529 609 c 0,106,107
 559 580 559 580 600 580 c 0,108,109
 641 580 641 580 671 609 c 0,110,111
 700 639 700 639 700 680 c 0,96,97
750 330 m 0,112,113
 750 268 750 268 706 224 c 0,114,115
 662 180 662 180 600 180 c 0,116,117
 538 180 538 180 494 224 c 0,118,119
 450 268 450 268 450 330 c 0,120,121
 450 392 450 392 494 436 c 0,122,123
 538 480 538 480 600 480 c 0,124,125
 662 480 662 480 706 436 c 0,126,127
 750 392 750 392 750 330 c 0,112,113
700 330 m 0,128,129
 700 371 700 371 671 401 c 0,130,131
 641 430 641 430 600 430 c 0,132,133
 559 430 559 430 529 401 c 0,134,135
 500 371 500 371 500 330 c 0,136,137
 500 289 500 289 529 259 c 0,138,139
 559 230 559 230 600 230 c 0,140,141
 641 230 641 230 671 259 c 0,142,143
 700 289 700 289 700 330 c 0,128,129
750 -20 m 0,144,145
 750 -82 750 -82 706 -126 c 0,146,147
 662 -170 662 -170 600 -170 c 0,148,149
 538 -170 538 -170 494 -126 c 0,150,151
 450 -82 450 -82 450 -20 c 0,152,153
 450 42 450 42 494 86 c 0,154,155
 538 130 538 130 600 130 c 0,156,157
 662 130 662 130 706 86 c 0,158,159
 750 42 750 42 750 -20 c 0,144,145
700 -20 m 0,160,161
 700 21 700 21 671 51 c 0,162,163
 641 80 641 80 600 80 c 0,164,165
 559 80 559 80 529 51 c 0,166,167
 500 21 500 21 500 -20 c 0,168,169
 500 -61 500 -61 529 -91 c 0,170,171
 559 -120 559 -120 600 -120 c 0,172,173
 641 -120 641 -120 671 -91 c 0,174,175
 700 -61 700 -61 700 -20 c 0,160,161
EndSplineSet
Validated: 1
EndChar

StartChar: uni2802
Encoding: 10242 10242 12
Width: 850
LayerCount: 2
Fore
SplineSet
400 680 m 0,0,1
 400 618 400 618 356 574 c 0,2,3
 312 530 312 530 250 530 c 0,4,5
 188 530 188 530 144 574 c 0,6,7
 100 618 100 618 100 680 c 0,8,9
 100 742 100 742 144 786 c 0,10,11
 188 830 188 830 250 830 c 0,12,13
 312 830 312 830 356 786 c 0,14,15
 400 742 400 742 400 680 c 0,0,1
350 680 m 0,16,17
 350 721 350 721 321 751 c 0,18,19
 291 780 291 780 250 780 c 0,20,21
 209 780 209 780 179 751 c 0,22,23
 150 721 150 721 150 680 c 0,24,25
 150 639 150 639 179 609 c 0,26,27
 209 580 209 580 250 580 c 0,28,29
 291 580 291 580 321 609 c 0,30,31
 350 639 350 639 350 680 c 0,16,17
400 330 m 0,32,33
 400 268 400 268 356 224 c 0,34,35
 312 180 312 180 250 180 c 0,36,37
 188 180 188 180 144 224 c 0,38,39
 100 268 100 268 100 330 c 0,40,41
 100 392 100 392 144 436 c 0,42,43
 188 480 188 480 250 480 c 0,44,45
 312 480 312 480 356 436 c 0,46,47
 400 392 400 392 400 330 c 0,32,33
400 -20 m 0,48,49
 400 -82 400 -82 356 -126 c 0,50,51
 312 -170 312 -170 250 -170 c 0,52,53
 188 -170 188 -170 144 -126 c 0,54,55
 100 -82 100 -82 100 -20 c 0,56,57
 100 42 100 42 144 86 c 0,58,59
 188 130 188 130 250 130 c 0,60,61
 312 130 312 130 356 86 c 0,62,63
 400 42 400 42 400 -20 c 0,48,49
350 -20 m 0,64,65
 350 21 350 21 321 51 c 0,66,67
 291 80 291 80 250 80 c 0,68,69
 209 80 209 80 179 51 c 0,70,71
 150 21 150 21 150 -20 c 0,72,73
 150 -61 150 -61 179 -91 c 0,74,75
 209 -120 209 -120 250 -120 c 0,76,77
 291 -120 291 -120 321 -91 c 0,78,79
 350 -61 350 -61 350 -20 c 0,64,65
750 680 m 0,80,81
 750 618 750 618 706 574 c 0,82,83
 662 530 662 530 600 530 c 0,84,85
 538 530 538 530 494 574 c 0,86,87
 450 618 450 618 450 680 c 0,88,89
 450 742 450 742 494 786 c 0,90,91
 538 830 538 830 600 830 c 0,92,93
 662 830 662 830 706 786 c 0,94,95
 750 742 750 742 750 680 c 0,80,81
700 680 m 0,96,97
 700 721 700 721 671 751 c 0,98,99
 641 780 641 780 600 780 c 0,100,101
 559 780 559 780 529 751 c 0,102,103
 500 721 500 721 500 680 c 0,104,105
 500 639 500 639 529 609 c 0,106,107
 559 580 559 580 600 580 c 0,108,109
 641 580 641 580 671 609 c 0,110,111
 700 639 700 639 700 680 c 0,96,97
750 330 m 0,112,113
 750 268 750 268 706 224 c 0,114,115
 662 180 662 180 600 180 c 0,116,117
 538 180 538 180 494 224 c 0,118,119
 450 268 450 268 450 330 c 0,120,121
 450 392 450 392 494 436 c 0,122,123
 538 480 538 480 600 480 c 0,124,125
 662 480 662 480 706 436 c 0,126,127
 750 392 750 392 750 330 c 0,112,113
700 330 m 0,128,129
 700 371 700 371 671 401 c 0,130,131
 641 430 641 430 600 430 c 0,132,133
 559 430 559 430 529 401 c 0,134,135
 500 371 500 371 500 330 c 0,136,137
 500 289 500 289 529 259 c 0,138,139
 559 230 559 230 600 230 c 0,140,141
 641 230 641 230 671 259 c 0,142,143
 700 289 700 289 700 330 c 0,128,129
750 -20 m 0,144,145
 750 -82 750 -82 706 -126 c 0,146,147
 662 -170 662 -170 600 -170 c 0,148,149
 538 -170 538 -170 494 -126 c 0,150,151
 450 -82 450 -82 450 -20 c 0,152,153
 450 42 450 42 494 86 c 0,154,155
 538 130 538 130 600 130 c 0,156,157
 662 130 662 130 706 86 c 0,158,159
 750 42 750 42 750 -20 c 0,144,145
700 -20 m 0,160,161
 700 21 700 21 671 51 c 0,162,163
 641 80 641 80 600 80 c 0,164,165
 559 80 559 80 529 51 c 0,166,167
 500 21 500 21 500 -20 c 0,168,169
 500 -61 500 -61 529 -91 c 0,170,171
 559 -120 559 -120 600 -120 c 0,172,173
 641 -120 641 -120 671 -91 c 0,174,175
 700 -61 700 -61 700 -20 c 0,160,161
EndSplineSet
Validated: 1
EndChar

StartChar: uni2803
Encoding: 10243 10243 13
Width: 850
LayerCount: 2
Fore
SplineSet
400 680 m 0,0,1
 400 618 400 618 356 574 c 0,2,3
 312 530 312 530 250 530 c 0,4,5
 188 530 188 530 144 574 c 0,6,7
 100 618 100 618 100 680 c 0,8,9
 100 742 100 742 144 786 c 0,10,11
 188 830 188 830 250 830 c 0,12,13
 312 830 312 830 356 786 c 0,14,15
 400 742 400 742 400 680 c 0,0,1
400 330 m 0,16,17
 400 268 400 268 356 224 c 0,18,19
 312 180 312 180 250 180 c 0,20,21
 188 180 188 180 144 224 c 0,22,23
 100 268 100 268 100 330 c 0,24,25
 100 392 100 392 144 436 c 0,26,27
 188 480 188 480 250 480 c 0,28,29
 312 480 312 480 356 436 c 0,30,31
 400 392 400 392 400 330 c 0,16,17
400 -20 m 0,32,33
 400 -82 400 -82 356 -126 c 0,34,35
 312 -170 312 -170 250 -170 c 0,36,37
 188 -170 188 -170 144 -126 c 0,38,39
 100 -82 100 -82 100 -20 c 0,40,41
 100 42 100 42 144 86 c 0,42,43
 188 130 188 130 250 130 c 0,44,45
 312 130 312 130 356 86 c 0,46,47
 400 42 400 42 400 -20 c 0,32,33
350 -20 m 0,48,49
 350 21 350 21 321 51 c 0,50,51
 291 80 291 80 250 80 c 0,52,53
 209 80 209 80 179 51 c 0,54,55
 150 21 150 21 150 -20 c 0,56,57
 150 -61 150 -61 179 -91 c 0,58,59
 209 -120 209 -120 250 -120 c 0,60,61
 291 -120 291 -120 321 -91 c 0,62,63
 350 -61 350 -61 350 -20 c 0,48,49
750 680 m 0,64,65
 750 618 750 618 706 574 c 0,66,67
 662 530 662 530 600 530 c 0,68,69
 538 530 538 530 494 574 c 0,70,71
 450 618 450 618 450 680 c 0,72,73
 450 742 450 742 494 786 c 0,74,75
 538 830 538 830 600 830 c 0,76,77
 662 830 662 830 706 786 c 0,78,79
 750 742 750 742 750 680 c 0,64,65
700 680 m 0,80,81
 700 721 700 721 671 751 c 0,82,83
 641 780 641 780 600 780 c 0,84,85
 559 780 559 780 529 751 c 0,86,87
 500 721 500 721 500 680 c 0,88,89
 500 639 500 639 529 609 c 0,90,91
 559 580 559 580 600 580 c 0,92,93
 641 580 641 580 671 609 c 0,94,95
 700 639 700 639 700 680 c 0,80,81
750 330 m 0,96,97
 750 268 750 268 706 224 c 0,98,99
 662 180 662 180 600 180 c 0,100,101
 538 180 538 180 494 224 c 0,102,103
 450 268 450 268 450 330 c 0,104,105
 450 392 450 392 494 436 c 0,106,107
 538 480 538 480 600 480 c 0,108,109
 662 480 662 480 706 436 c 0,110,111
 750 392 750 392 750 330 c 0,96,97
700 330 m 0,112,113
 700 371 700 371 671 401 c 0,114,115
 641 430 641 430 600 430 c 0,116,117
 559 430 559 430 529 401 c 0,118,119
 500 371 500 371 500 330 c 0,120,121
 500 289 500 289 529 259 c 0,122,123
 559 230 559 230 600 230 c 0,124,125
 641 230 641 230 671 259 c 0,126,127
 700 289 700 289 700 330 c 0,112,113
750 -20 m 0,128,129
 750 -82 750 -82 706 -126 c 0,130,131
 662 -170 662 -170 600 -170 c 0,132,133
 538 -170 538 -170 494 -126 c 0,134,135
 450 -82 450 -82 450 -20 c 0,136,137
 450 42 450 42 494 86 c 0,138,139
 538 130 538 130 600 130 c 0,140,141
 662 130 662 130 706 86 c 0,142,143
 750 42 750 42 750 -20 c 0,128,129
700 -20 m 0,144,145
 700 21 700 21 671 51 c 0,146,147
 641 80 641 80 600 80 c 0,148,149
 559 80 559 80 529 51 c 0,150,151
 500 21 500 21 500 -20 c 0,152,153
 500 -61 500 -61 529 -91 c 0,154,155
 559 -120 559 -120 600 -120 c 0,156,157
 641 -120 641 -120 671 -91 c 0,158,159
 700 -61 700 -61 700 -20 c 0,144,145
EndSplineSet
Validated: 1
EndChar

StartChar: uni2804
Encoding: 10244 10244 14
Width: 850
LayerCount: 2
Fore
SplineSet
400 680 m 0,0,1
 400 618 400 618 356 574 c 0,2,3
 312 530 312 530 250 530 c 0,4,5
 188 530 188 530 144 574 c 0,6,7
 100 618 100 618 100 680 c 0,8,9
 100 742 100 742 144 786 c 0,10,11
 188 830 188 830 250 830 c 0,12,13
 312 830 312 830 356 786 c 0,14,15
 400 742 400 742 400 680 c 0,0,1
350 680 m 0,16,17
 350 721 350 721 321 751 c 0,18,19
 291 780 291 780 250 780 c 0,20,21
 209 780 209 780 179 751 c 0,22,23
 150 721 150 721 150 680 c 0,24,25
 150 639 150 639 179 609 c 0,26,27
 209 580 209 580 250 580 c 0,28,29
 291 580 291 580 321 609 c 0,30,31
 350 639 350 639 350 680 c 0,16,17
400 330 m 0,32,33
 400 268 400 268 356 224 c 0,34,35
 312 180 312 180 250 180 c 0,36,37
 188 180 188 180 144 224 c 0,38,39
 100 268 100 268 100 330 c 0,40,41
 100 392 100 392 144 436 c 0,42,43
 188 480 188 480 250 480 c 0,44,45
 312 480 312 480 356 436 c 0,46,47
 400 392 400 392 400 330 c 0,32,33
350 330 m 0,48,49
 350 371 350 371 321 401 c 0,50,51
 291 430 291 430 250 430 c 0,52,53
 209 430 209 430 179 401 c 0,54,55
 150 371 150 371 150 330 c 0,56,57
 150 289 150 289 179 259 c 0,58,59
 209 230 209 230 250 230 c 0,60,61
 291 230 291 230 321 259 c 0,62,63
 350 289 350 289 350 330 c 0,48,49
400 -20 m 0,64,65
 400 -82 400 -82 356 -126 c 0,66,67
 312 -170 312 -170 250 -170 c 0,68,69
 188 -170 188 -170 144 -126 c 0,70,71
 100 -82 100 -82 100 -20 c 0,72,73
 100 42 100 42 144 86 c 0,74,75
 188 130 188 130 250 130 c 0,76,77
 312 130 312 130 356 86 c 0,78,79
 400 42 400 42 400 -20 c 0,64,65
750 680 m 0,80,81
 750 618 750 618 706 574 c 0,82,83
 662 530 662 530 600 530 c 0,84,85
 538 530 538 530 494 574 c 0,86,87
 450 618 450 618 450 680 c 0,88,89
 450 742 450 742 494 786 c 0,90,91
 538 830 538 830 600 830 c 0,92,93
 662 830 662 830 706 786 c 0,94,95
 750 742 750 742 750 680 c 0,80,81
700 680 m 0,96,97
 700 721 700 721 671 751 c 0,98,99
 641 780 641 780 600 780 c 0,100,101
 559 780 559 780 529 751 c 0,102,103
 500 721 500 721 500 680 c 0,104,105
 500 639 500 639 529 609 c 0,106,107
 559 580 559 580 600 580 c 0,108,109
 641 580 641 580 671 609 c 0,110,111
 700 639 700 639 700 680 c 0,96,97
750 330 m 0,112,113
 750 268 750 268 706 224 c 0,114,115
 662 180 662 180 600 180 c 0,116,117
 538 180 538 180 494 224 c 0,118,119
 450 268 450 268 450 330 c 0,120,121
 450 392 450 392 494 436 c 0,122,123
 538 480 538 480 600 480 c 0,124,125
 662 480 662 480 706 436 c 0,126,127
 750 392 750 392 750 330 c 0,112,113
700 330 m 0,128,129
 700 371 700 371 671 401 c 0,130,131
 641 430 641 430 600 430 c 0,132,133
 559 430 559 430 529 401 c 0,134,135
 500 371 500 371 500 330 c 0,136,137
 500 289 500 289 529 259 c 0,138,139
 559 230 559 230 600 230 c 0,140,141
 641 230 641 230 671 259 c 0,142,143
 700 289 700 289 700 330 c 0,128,129
750 -20 m 0,144,145
 750 -82 750 -82 706 -126 c 0,146,147
 662 -170 662 -170 600 -170 c 0,148,149
 538 -170 538 -170 494 -126 c 0,150,151
 450 -82 450 -82 450 -20 c 0,152,153
 450 42 450 42 494 86 c 0,154,155
 538 130 538 130 600 130 c 0,156,157
 662 130 662 130 706 86 c 0,158,159
 750 42 750 42 750 -20 c 0,144,145
700 -20 m 0,160,161
 700 21 700 21 671 51 c 0,162,163
 641 80 641 80 600 80 c 0,164,165
 559 80 559 80 529 51 c 0,166,167
 500 21 500 21 500 -20 c 0,168,169
 500 -61 500 -61 529 -91 c 0,170,171
 559 -120 559 -120 600 -120 c 0,172,173
 641 -120 641 -120 671 -91 c 0,174,175
 700 -61 700 -61 700 -20 c 0,160,161
EndSplineSet
Validated: 1
EndChar

StartChar: uni2805
Encoding: 10245 10245 15
Width: 850
LayerCount: 2
Fore
SplineSet
400 680 m 0,0,1
 400 618 400 618 356 574 c 0,2,3
 312 530 312 530 250 530 c 0,4,5
 188 530 188 530 144 574 c 0,6,7
 100 618 100 618 100 680 c 0,8,9
 100 742 100 742 144 786 c 0,10,11
 188 830 188 830 250 830 c 0,12,13
 312 830 312 830 356 786 c 0,14,15
 400 742 400 742 400 680 c 0,0,1
400 330 m 0,16,17
 400 268 400 268 356 224 c 0,18,19
 312 180 312 180 250 180 c 0,20,21
 188 180 188 180 144 224 c 0,22,23
 100 268 100 268 100 330 c 0,24,25
 100 392 100 392 144 436 c 0,26,27
 188 480 188 480 250 480 c 0,28,29
 312 480 312 480 356 436 c 0,30,31
 400 392 400 392 400 330 c 0,16,17
350 330 m 0,32,33
 350 371 350 371 321 401 c 0,34,35
 291 430 291 430 250 430 c 0,36,37
 209 430 209 430 179 401 c 0,38,39
 150 371 150 371 150 330 c 0,40,41
 150 289 150 289 179 259 c 0,42,43
 209 230 209 230 250 230 c 0,44,45
 291 230 291 230 321 259 c 0,46,47
 350 289 350 289 350 330 c 0,32,33
400 -20 m 0,48,49
 400 -82 400 -82 356 -126 c 0,50,51
 312 -170 312 -170 250 -170 c 0,52,53
 188 -170 188 -170 144 -126 c 0,54,55
 100 -82 100 -82 100 -20 c 0,56,57
 100 42 100 42 144 86 c 0,58,59
 188 130 188 130 250 130 c 0,60,61
 312 130 312 130 356 86 c 0,62,63
 400 42 400 42 400 -20 c 0,48,49
750 680 m 0,64,65
 750 618 750 618 706 574 c 0,66,67
 662 530 662 530 600 530 c 0,68,69
 538 530 538 530 494 574 c 0,70,71
 450 618 450 618 450 680 c 0,72,73
 450 742 450 742 494 786 c 0,74,75
 538 830 538 830 600 830 c 0,76,77
 662 830 662 830 706 786 c 0,78,79
 750 742 750 742 750 680 c 0,64,65
700 680 m 0,80,81
 700 721 700 721 671 751 c 0,82,83
 641 780 641 780 600 780 c 0,84,85
 559 780 559 780 529 751 c 0,86,87
 500 721 500 721 500 680 c 0,88,89
 500 639 500 639 529 609 c 0,90,91
 559 580 559 580 600 580 c 0,92,93
 641 580 641 580 671 609 c 0,94,95
 700 639 700 639 700 680 c 0,80,81
750 330 m 0,96,97
 750 268 750 268 706 224 c 0,98,99
 662 180 662 180 600 180 c 0,100,101
 538 180 538 180 494 224 c 0,102,103
 450 268 450 268 450 330 c 0,104,105
 450 392 450 392 494 436 c 0,106,107
 538 480 538 480 600 480 c 0,108,109
 662 480 662 480 706 436 c 0,110,111
 750 392 750 392 750 330 c 0,96,97
700 330 m 0,112,113
 700 371 700 371 671 401 c 0,114,115
 641 430 641 430 600 430 c 0,116,117
 559 430 559 430 529 401 c 0,118,119
 500 371 500 371 500 330 c 0,120,121
 500 289 500 289 529 259 c 0,122,123
 559 230 559 230 600 230 c 0,124,125
 641 230 641 230 671 259 c 0,126,127
 700 289 700 289 700 330 c 0,112,113
750 -20 m 0,128,129
 750 -82 750 -82 706 -126 c 0,130,131
 662 -170 662 -170 600 -170 c 0,132,133
 538 -170 538 -170 494 -126 c 0,134,135
 450 -82 450 -82 450 -20 c 0,136,137
 450 42 450 42 494 86 c 0,138,139
 538 130 538 130 600 130 c 0,140,141
 662 130 662 130 706 86 c 0,142,143
 750 42 750 42 750 -20 c 0,128,129
700 -20 m 0,144,145
 700 21 700 21 671 51 c 0,146,147
 641 80 641 80 600 80 c 0,148,149
 559 80 559 80 529 51 c 0,150,151
 500 21 500 21 500 -20 c 0,152,153
 500 -61 500 -61 529 -91 c 0,154,155
 559 -120 559 -120 600 -120 c 0,156,157
 641 -120 641 -120 671 -91 c 0,158,159
 700 -61 700 -61 700 -20 c 0,144,145
EndSplineSet
Validated: 1
EndChar

StartChar: uni2806
Encoding: 10246 10246 16
Width: 850
LayerCount: 2
Fore
SplineSet
400 680 m 0,0,1
 400 618 400 618 356 574 c 0,2,3
 312 530 312 530 250 530 c 0,4,5
 188 530 188 530 144 574 c 0,6,7
 100 618 100 618 100 680 c 0,8,9
 100 742 100 742 144 786 c 0,10,11
 188 830 188 830 250 830 c 0,12,13
 312 830 312 830 356 786 c 0,14,15
 400 742 400 742 400 680 c 0,0,1
350 680 m 0,16,17
 350 721 350 721 321 751 c 0,18,19
 291 780 291 780 250 780 c 0,20,21
 209 780 209 780 179 751 c 0,22,23
 150 721 150 721 150 680 c 0,24,25
 150 639 150 639 179 609 c 0,26,27
 209 580 209 580 250 580 c 0,28,29
 291 580 291 580 321 609 c 0,30,31
 350 639 350 639 350 680 c 0,16,17
400 330 m 0,32,33
 400 268 400 268 356 224 c 0,34,35
 312 180 312 180 250 180 c 0,36,37
 188 180 188 180 144 224 c 0,38,39
 100 268 100 268 100 330 c 0,40,41
 100 392 100 392 144 436 c 0,42,43
 188 480 188 480 250 480 c 0,44,45
 312 480 312 480 356 436 c 0,46,47
 400 392 400 392 400 330 c 0,32,33
400 -20 m 0,48,49
 400 -82 400 -82 356 -126 c 0,50,51
 312 -170 312 -170 250 -170 c 0,52,53
 188 -170 188 -170 144 -126 c 0,54,55
 100 -82 100 -82 100 -20 c 0,56,57
 100 42 100 42 144 86 c 0,58,59
 188 130 188 130 250 130 c 0,60,61
 312 130 312 130 356 86 c 0,62,63
 400 42 400 42 400 -20 c 0,48,49
750 680 m 0,64,65
 750 618 750 618 706 574 c 0,66,67
 662 530 662 530 600 530 c 0,68,69
 538 530 538 530 494 574 c 0,70,71
 450 618 450 618 450 680 c 0,72,73
 450 742 450 742 494 786 c 0,74,75
 538 830 538 830 600 830 c 0,76,77
 662 830 662 830 706 786 c 0,78,79
 750 742 750 742 750 680 c 0,64,65
700 680 m 0,80,81
 700 721 700 721 671 751 c 0,82,83
 641 780 641 780 600 780 c 0,84,85
 559 780 559 780 529 751 c 0,86,87
 500 721 500 721 500 680 c 0,88,89
 500 639 500 639 529 609 c 0,90,91
 559 580 559 580 600 580 c 0,92,93
 641 580 641 580 671 609 c 0,94,95
 700 639 700 639 700 680 c 0,80,81
750 330 m 0,96,97
 750 268 750 268 706 224 c 0,98,99
 662 180 662 180 600 180 c 0,100,101
 538 180 538 180 494 224 c 0,102,103
 450 268 450 268 450 330 c 0,104,105
 450 392 450 392 494 436 c 0,106,107
 538 480 538 480 600 480 c 0,108,109
 662 480 662 480 706 436 c 0,110,111
 750 392 750 392 750 330 c 0,96,97
700 330 m 0,112,113
 700 371 700 371 671 401 c 0,114,115
 641 430 641 430 600 430 c 0,116,117
 559 430 559 430 529 401 c 0,118,119
 500 371 500 371 500 330 c 0,120,121
 500 289 500 289 529 259 c 0,122,123
 559 230 559 230 600 230 c 0,124,125
 641 230 641 230 671 259 c 0,126,127
 700 289 700 289 700 330 c 0,112,113
750 -20 m 0,128,129
 750 -82 750 -82 706 -126 c 0,130,131
 662 -170 662 -170 600 -170 c 0,132,133
 538 -170 538 -170 494 -126 c 0,134,135
 450 -82 450 -82 450 -20 c 0,136,137
 450 42 450 42 494 86 c 0,138,139
 538 130 538 130 600 130 c 0,140,141
 662 130 662 130 706 86 c 0,142,143
 750 42 750 42 750 -20 c 0,128,129
700 -20 m 0,144,145
 700 21 700 21 671 51 c 0,146,147
 641 80 641 80 600 80 c 0,148,149
 559 80 559 80 529 51 c 0,150,151
 500 21 500 21 500 -20 c 0,152,153
 500 -61 500 -61 529 -91 c 0,154,155
 559 -120 559 -120 600 -120 c 0,156,157
 641 -120 641 -120 671 -91 c 0,158,159
 700 -61 700 -61 700 -20 c 0,144,145
EndSplineSet
Validated: 1
EndChar

StartChar: uni2807
Encoding: 10247 10247 17
Width: 850
LayerCount: 2
Fore
SplineSet
400 680 m 0,0,1
 400 618 400 618 356 574 c 0,2,3
 312 530 312 530 250 530 c 0,4,5
 188 530 188 530 144 574 c 0,6,7
 100 618 100 618 100 680 c 0,8,9
 100 742 100 742 144 786 c 0,10,11
 188 830 188 830 250 830 c 0,12,13
 312 830 312 830 356 786 c 0,14,15
 400 742 400 742 400 680 c 0,0,1
400 330 m 0,16,17
 400 268 400 268 356 224 c 0,18,19
 312 180 312 180 250 180 c 0,20,21
 188 180 188 180 144 224 c 0,22,23
 100 268 100 268 100 330 c 0,24,25
 100 392 100 392 144 436 c 0,26,27
 188 480 188 480 250 480 c 0,28,29
 312 480 312 480 356 436 c 0,30,31
 400 392 400 392 400 330 c 0,16,17
400 -20 m 0,32,33
 400 -82 400 -82 356 -126 c 0,34,35
 312 -170 312 -170 250 -170 c 0,36,37
 188 -170 188 -170 144 -126 c 0,38,39
 100 -82 100 -82 100 -20 c 0,40,41
 100 42 100 42 144 86 c 0,42,43
 188 130 188 130 250 130 c 0,44,45
 312 130 312 130 356 86 c 0,46,47
 400 42 400 42 400 -20 c 0,32,33
750 680 m 0,48,49
 750 618 750 618 706 574 c 0,50,51
 662 530 662 530 600 530 c 0,52,53
 538 530 538 530 494 574 c 0,54,55
 450 618 450 618 450 680 c 0,56,57
 450 742 450 742 494 786 c 0,58,59
 538 830 538 830 600 830 c 0,60,61
 662 830 662 830 706 786 c 0,62,63
 750 742 750 742 750 680 c 0,48,49
700 680 m 0,64,65
 700 721 700 721 671 751 c 0,66,67
 641 780 641 780 600 780 c 0,68,69
 559 780 559 780 529 751 c 0,70,71
 500 721 500 721 500 680 c 0,72,73
 500 639 500 639 529 609 c 0,74,75
 559 580 559 580 600 580 c 0,76,77
 641 580 641 580 671 609 c 0,78,79
 700 639 700 639 700 680 c 0,64,65
750 330 m 0,80,81
 750 268 750 268 706 224 c 0,82,83
 662 180 662 180 600 180 c 0,84,85
 538 180 538 180 494 224 c 0,86,87
 450 268 450 268 450 330 c 0,88,89
 450 392 450 392 494 436 c 0,90,91
 538 480 538 480 600 480 c 0,92,93
 662 480 662 480 706 436 c 0,94,95
 750 392 750 392 750 330 c 0,80,81
700 330 m 0,96,97
 700 371 700 371 671 401 c 0,98,99
 641 430 641 430 600 430 c 0,100,101
 559 430 559 430 529 401 c 0,102,103
 500 371 500 371 500 330 c 0,104,105
 500 289 500 289 529 259 c 0,106,107
 559 230 559 230 600 230 c 0,108,109
 641 230 641 230 671 259 c 0,110,111
 700 289 700 289 700 330 c 0,96,97
750 -20 m 0,112,113
 750 -82 750 -82 706 -126 c 0,114,115
 662 -170 662 -170 600 -170 c 0,116,117
 538 -170 538 -170 494 -126 c 0,118,119
 450 -82 450 -82 450 -20 c 0,120,121
 450 42 450 42 494 86 c 0,122,123
 538 130 538 130 600 130 c 0,124,125
 662 130 662 130 706 86 c 0,126,127
 750 42 750 42 750 -20 c 0,112,113
700 -20 m 0,128,129
 700 21 700 21 671 51 c 0,130,131
 641 80 641 80 600 80 c 0,132,133
 559 80 559 80 529 51 c 0,134,135
 500 21 500 21 500 -20 c 0,136,137
 500 -61 500 -61 529 -91 c 0,138,139
 559 -120 559 -120 600 -120 c 0,140,141
 641 -120 641 -120 671 -91 c 0,142,143
 700 -61 700 -61 700 -20 c 0,128,129
EndSplineSet
Validated: 1
EndChar

StartChar: uni2808
Encoding: 10248 10248 18
Width: 850
LayerCount: 2
Fore
SplineSet
400 680 m 0,0,1
 400 618 400 618 356 574 c 0,2,3
 312 530 312 530 250 530 c 0,4,5
 188 530 188 530 144 574 c 0,6,7
 100 618 100 618 100 680 c 0,8,9
 100 742 100 742 144 786 c 0,10,11
 188 830 188 830 250 830 c 0,12,13
 312 830 312 830 356 786 c 0,14,15
 400 742 400 742 400 680 c 0,0,1
350 680 m 0,16,17
 350 721 350 721 321 751 c 0,18,19
 291 780 291 780 250 780 c 0,20,21
 209 780 209 780 179 751 c 0,22,23
 150 721 150 721 150 680 c 0,24,25
 150 639 150 639 179 609 c 0,26,27
 209 580 209 580 250 580 c 0,28,29
 291 580 291 580 321 609 c 0,30,31
 350 639 350 639 350 680 c 0,16,17
400 330 m 0,32,33
 400 268 400 268 356 224 c 0,34,35
 312 180 312 180 250 180 c 0,36,37
 188 180 188 180 144 224 c 0,38,39
 100 268 100 268 100 330 c 0,40,41
 100 392 100 392 144 436 c 0,42,43
 188 480 188 480 250 480 c 0,44,45
 312 480 312 480 356 436 c 0,46,47
 400 392 400 392 400 330 c 0,32,33
350 330 m 0,48,49
 350 371 350 371 321 401 c 0,50,51
 291 430 291 430 250 430 c 0,52,53
 209 430 209 430 179 401 c 0,54,55
 150 371 150 371 150 330 c 0,56,57
 150 289 150 289 179 259 c 0,58,59
 209 230 209 230 250 230 c 0,60,61
 291 230 291 230 321 259 c 0,62,63
 350 289 350 289 350 330 c 0,48,49
400 -20 m 0,64,65
 400 -82 400 -82 356 -126 c 0,66,67
 312 -170 312 -170 250 -170 c 0,68,69
 188 -170 188 -170 144 -126 c 0,70,71
 100 -82 100 -82 100 -20 c 0,72,73
 100 42 100 42 144 86 c 0,74,75
 188 130 188 130 250 130 c 0,76,77
 312 130 312 130 356 86 c 0,78,79
 400 42 400 42 400 -20 c 0,64,65
350 -20 m 0,80,81
 350 21 350 21 321 51 c 0,82,83
 291 80 291 80 250 80 c 0,84,85
 209 80 209 80 179 51 c 0,86,87
 150 21 150 21 150 -20 c 0,88,89
 150 -61 150 -61 179 -91 c 0,90,91
 209 -120 209 -120 250 -120 c 0,92,93
 291 -120 291 -120 321 -91 c 0,94,95
 350 -61 350 -61 350 -20 c 0,80,81
750 680 m 0,96,97
 750 618 750 618 706 574 c 0,98,99
 662 530 662 530 600 530 c 0,100,101
 538 530 538 530 494 574 c 0,102,103
 450 618 450 618 450 680 c 0,104,105
 450 742 450 742 494 786 c 0,106,107
 538 830 538 830 600 830 c 0,108,109
 662 830 662 830 706 786 c 0,110,111
 750 742 750 742 750 680 c 0,96,97
750 330 m 0,112,113
 750 268 750 268 706 224 c 0,114,115
 662 180 662 180 600 180 c 0,116,117
 538 180 538 180 494 224 c 0,118,119
 450 268 450 268 450 330 c 0,120,121
 450 392 450 392 494 436 c 0,122,123
 538 480 538 480 600 480 c 0,124,125
 662 480 662 480 706 436 c 0,126,127
 750 392 750 392 750 330 c 0,112,113
700 330 m 0,128,129
 700 371 700 371 671 401 c 0,130,131
 641 430 641 430 600 430 c 0,132,133
 559 430 559 430 529 401 c 0,134,135
 500 371 500 371 500 330 c 0,136,137
 500 289 500 289 529 259 c 0,138,139
 559 230 559 230 600 230 c 0,140,141
 641 230 641 230 671 259 c 0,142,143
 700 289 700 289 700 330 c 0,128,129
750 -20 m 0,144,145
 750 -82 750 -82 706 -126 c 0,146,147
 662 -170 662 -170 600 -170 c 0,148,149
 538 -170 538 -170 494 -126 c 0,150,151
 450 -82 450 -82 450 -20 c 0,152,153
 450 42 450 42 494 86 c 0,154,155
 538 130 538 130 600 130 c 0,156,157
 662 130 662 130 706 86 c 0,158,159
 750 42 750 42 750 -20 c 0,144,145
700 -20 m 0,160,161
 700 21 700 21 671 51 c 0,162,163
 641 80 641 80 600 80 c 0,164,165
 559 80 559 80 529 51 c 0,166,167
 500 21 500 21 500 -20 c 0,168,169
 500 -61 500 -61 529 -91 c 0,170,171
 559 -120 559 -120 600 -120 c 0,172,173
 641 -120 641 -120 671 -91 c 0,174,175
 700 -61 700 -61 700 -20 c 0,160,161
EndSplineSet
Validated: 1
EndChar

StartChar: uni2809
Encoding: 10249 10249 19
Width: 850
LayerCount: 2
Fore
SplineSet
400 680 m 0,0,1
 400 618 400 618 356 574 c 0,2,3
 312 530 312 530 250 530 c 0,4,5
 188 530 188 530 144 574 c 0,6,7
 100 618 100 618 100 680 c 0,8,9
 100 742 100 742 144 786 c 0,10,11
 188 830 188 830 250 830 c 0,12,13
 312 830 312 830 356 786 c 0,14,15
 400 742 400 742 400 680 c 0,0,1
400 330 m 0,16,17
 400 268 400 268 356 224 c 0,18,19
 312 180 312 180 250 180 c 0,20,21
 188 180 188 180 144 224 c 0,22,23
 100 268 100 268 100 330 c 0,24,25
 100 392 100 392 144 436 c 0,26,27
 188 480 188 480 250 480 c 0,28,29
 312 480 312 480 356 436 c 0,30,31
 400 392 400 392 400 330 c 0,16,17
350 330 m 0,32,33
 350 371 350 371 321 401 c 0,34,35
 291 430 291 430 250 430 c 0,36,37
 209 430 209 430 179 401 c 0,38,39
 150 371 150 371 150 330 c 0,40,41
 150 289 150 289 179 259 c 0,42,43
 209 230 209 230 250 230 c 0,44,45
 291 230 291 230 321 259 c 0,46,47
 350 289 350 289 350 330 c 0,32,33
400 -20 m 0,48,49
 400 -82 400 -82 356 -126 c 0,50,51
 312 -170 312 -170 250 -170 c 0,52,53
 188 -170 188 -170 144 -126 c 0,54,55
 100 -82 100 -82 100 -20 c 0,56,57
 100 42 100 42 144 86 c 0,58,59
 188 130 188 130 250 130 c 0,60,61
 312 130 312 130 356 86 c 0,62,63
 400 42 400 42 400 -20 c 0,48,49
350 -20 m 0,64,65
 350 21 350 21 321 51 c 0,66,67
 291 80 291 80 250 80 c 0,68,69
 209 80 209 80 179 51 c 0,70,71
 150 21 150 21 150 -20 c 0,72,73
 150 -61 150 -61 179 -91 c 0,74,75
 209 -120 209 -120 250 -120 c 0,76,77
 291 -120 291 -120 321 -91 c 0,78,79
 350 -61 350 -61 350 -20 c 0,64,65
750 680 m 0,80,81
 750 618 750 618 706 574 c 0,82,83
 662 530 662 530 600 530 c 0,84,85
 538 530 538 530 494 574 c 0,86,87
 450 618 450 618 450 680 c 0,88,89
 450 742 450 742 494 786 c 0,90,91
 538 830 538 830 600 830 c 0,92,93
 662 830 662 830 706 786 c 0,94,95
 750 742 750 742 750 680 c 0,80,81
750 330 m 0,96,97
 750 268 750 268 706 224 c 0,98,99
 662 180 662 180 600 180 c 0,100,101
 538 180 538 180 494 224 c 0,102,103
 450 268 450 268 450 330 c 0,104,105
 450 392 450 392 494 436 c 0,106,107
 538 480 538 480 600 480 c 0,108,109
 662 480 662 480 706 436 c 0,110,111
 750 392 750 392 750 330 c 0,96,97
700 330 m 0,112,113
 700 371 700 371 671 401 c 0,114,115
 641 430 641 430 600 430 c 0,116,117
 559 430 559 430 529 401 c 0,118,119
 500 371 500 371 500 330 c 0,120,121
 500 289 500 289 529 259 c 0,122,123
 559 230 559 230 600 230 c 0,124,125
 641 230 641 230 671 259 c 0,126,127
 700 289 700 289 700 330 c 0,112,113
750 -20 m 0,128,129
 750 -82 750 -82 706 -126 c 0,130,131
 662 -170 662 -170 600 -170 c 0,132,133
 538 -170 538 -170 494 -126 c 0,134,135
 450 -82 450 -82 450 -20 c 0,136,137
 450 42 450 42 494 86 c 0,138,139
 538 130 538 130 600 130 c 0,140,141
 662 130 662 130 706 86 c 0,142,143
 750 42 750 42 750 -20 c 0,128,129
700 -20 m 0,144,145
 700 21 700 21 671 51 c 0,146,147
 641 80 641 80 600 80 c 0,148,149
 559 80 559 80 529 51 c 0,150,151
 500 21 500 21 500 -20 c 0,152,153
 500 -61 500 -61 529 -91 c 0,154,155
 559 -120 559 -120 600 -120 c 0,156,157
 641 -120 641 -120 671 -91 c 0,158,159
 700 -61 700 -61 700 -20 c 0,144,145
EndSplineSet
Validated: 1
EndChar

StartChar: uni280a
Encoding: 10250 10250 20
Width: 850
LayerCount: 2
Fore
SplineSet
400 680 m 0,0,1
 400 618 400 618 356 574 c 0,2,3
 312 530 312 530 250 530 c 0,4,5
 188 530 188 530 144 574 c 0,6,7
 100 618 100 618 100 680 c 0,8,9
 100 742 100 742 144 786 c 0,10,11
 188 830 188 830 250 830 c 0,12,13
 312 830 312 830 356 786 c 0,14,15
 400 742 400 742 400 680 c 0,0,1
350 680 m 0,16,17
 350 721 350 721 321 751 c 0,18,19
 291 780 291 780 250 780 c 0,20,21
 209 780 209 780 179 751 c 0,22,23
 150 721 150 721 150 680 c 0,24,25
 150 639 150 639 179 609 c 0,26,27
 209 580 209 580 250 580 c 0,28,29
 291 580 291 580 321 609 c 0,30,31
 350 639 350 639 350 680 c 0,16,17
400 330 m 0,32,33
 400 268 400 268 356 224 c 0,34,35
 312 180 312 180 250 180 c 0,36,37
 188 180 188 180 144 224 c 0,38,39
 100 268 100 268 100 330 c 0,40,41
 100 392 100 392 144 436 c 0,42,43
 188 480 188 480 250 480 c 0,44,45
 312 480 312 480 356 436 c 0,46,47
 400 392 400 392 400 330 c 0,32,33
400 -20 m 0,48,49
 400 -82 400 -82 356 -126 c 0,50,51
 312 -170 312 -170 250 -170 c 0,52,53
 188 -170 188 -170 144 -126 c 0,54,55
 100 -82 100 -82 100 -20 c 0,56,57
 100 42 100 42 144 86 c 0,58,59
 188 130 188 130 250 130 c 0,60,61
 312 130 312 130 356 86 c 0,62,63
 400 42 400 42 400 -20 c 0,48,49
350 -20 m 0,64,65
 350 21 350 21 321 51 c 0,66,67
 291 80 291 80 250 80 c 0,68,69
 209 80 209 80 179 51 c 0,70,71
 150 21 150 21 150 -20 c 0,72,73
 150 -61 150 -61 179 -91 c 0,74,75
 209 -120 209 -120 250 -120 c 0,76,77
 291 -120 291 -120 321 -91 c 0,78,79
 350 -61 350 -61 350 -20 c 0,64,65
750 680 m 0,80,81
 750 618 750 618 706 574 c 0,82,83
 662 530 662 530 600 530 c 0,84,85
 538 530 538 530 494 574 c 0,86,87
 450 618 450 618 450 680 c 0,88,89
 450 742 450 742 494 786 c 0,90,91
 538 830 538 830 600 830 c 0,92,93
 662 830 662 830 706 786 c 0,94,95
 750 742 750 742 750 680 c 0,80,81
750 330 m 0,96,97
 750 268 750 268 706 224 c 0,98,99
 662 180 662 180 600 180 c 0,100,101
 538 180 538 180 494 224 c 0,102,103
 450 268 450 268 450 330 c 0,104,105
 450 392 450 392 494 436 c 0,106,107
 538 480 538 480 600 480 c 0,108,109
 662 480 662 480 706 436 c 0,110,111
 750 392 750 392 750 330 c 0,96,97
700 330 m 0,112,113
 700 371 700 371 671 401 c 0,114,115
 641 430 641 430 600 430 c 0,116,117
 559 430 559 430 529 401 c 0,118,119
 500 371 500 371 500 330 c 0,120,121
 500 289 500 289 529 259 c 0,122,123
 559 230 559 230 600 230 c 0,124,125
 641 230 641 230 671 259 c 0,126,127
 700 289 700 289 700 330 c 0,112,113
750 -20 m 0,128,129
 750 -82 750 -82 706 -126 c 0,130,131
 662 -170 662 -170 600 -170 c 0,132,133
 538 -170 538 -170 494 -126 c 0,134,135
 450 -82 450 -82 450 -20 c 0,136,137
 450 42 450 42 494 86 c 0,138,139
 538 130 538 130 600 130 c 0,140,141
 662 130 662 130 706 86 c 0,142,143
 750 42 750 42 750 -20 c 0,128,129
700 -20 m 0,144,145
 700 21 700 21 671 51 c 0,146,147
 641 80 641 80 600 80 c 0,148,149
 559 80 559 80 529 51 c 0,150,151
 500 21 500 21 500 -20 c 0,152,153
 500 -61 500 -61 529 -91 c 0,154,155
 559 -120 559 -120 600 -120 c 0,156,157
 641 -120 641 -120 671 -91 c 0,158,159
 700 -61 700 -61 700 -20 c 0,144,145
EndSplineSet
Validated: 1
EndChar

StartChar: uni280b
Encoding: 10251 10251 21
Width: 850
LayerCount: 2
Fore
SplineSet
400 680 m 0,0,1
 400 618 400 618 356 574 c 0,2,3
 312 530 312 530 250 530 c 0,4,5
 188 530 188 530 144 574 c 0,6,7
 100 618 100 618 100 680 c 0,8,9
 100 742 100 742 144 786 c 0,10,11
 188 830 188 830 250 830 c 0,12,13
 312 830 312 830 356 786 c 0,14,15
 400 742 400 742 400 680 c 0,0,1
400 330 m 0,16,17
 400 268 400 268 356 224 c 0,18,19
 312 180 312 180 250 180 c 0,20,21
 188 180 188 180 144 224 c 0,22,23
 100 268 100 268 100 330 c 0,24,25
 100 392 100 392 144 436 c 0,26,27
 188 480 188 480 250 480 c 0,28,29
 312 480 312 480 356 436 c 0,30,31
 400 392 400 392 400 330 c 0,16,17
400 -20 m 0,32,33
 400 -82 400 -82 356 -126 c 0,34,35
 312 -170 312 -170 250 -170 c 0,36,37
 188 -170 188 -170 144 -126 c 0,38,39
 100 -82 100 -82 100 -20 c 0,40,41
 100 42 100 42 144 86 c 0,42,43
 188 130 188 130 250 130 c 0,44,45
 312 130 312 130 356 86 c 0,46,47
 400 42 400 42 400 -20 c 0,32,33
350 -20 m 0,48,49
 350 21 350 21 321 51 c 0,50,51
 291 80 291 80 250 80 c 0,52,53
 209 80 209 80 179 51 c 0,54,55
 150 21 150 21 150 -20 c 0,56,57
 150 -61 150 -61 179 -91 c 0,58,59
 209 -120 209 -120 250 -120 c 0,60,61
 291 -120 291 -120 321 -91 c 0,62,63
 350 -61 350 -61 350 -20 c 0,48,49
750 680 m 0,64,65
 750 618 750 618 706 574 c 0,66,67
 662 530 662 530 600 530 c 0,68,69
 538 530 538 530 494 574 c 0,70,71
 450 618 450 618 450 680 c 0,72,73
 450 742 450 742 494 786 c 0,74,75
 538 830 538 830 600 830 c 0,76,77
 662 830 662 830 706 786 c 0,78,79
 750 742 750 742 750 680 c 0,64,65
750 330 m 0,80,81
 750 268 750 268 706 224 c 0,82,83
 662 180 662 180 600 180 c 0,84,85
 538 180 538 180 494 224 c 0,86,87
 450 268 450 268 450 330 c 0,88,89
 450 392 450 392 494 436 c 0,90,91
 538 480 538 480 600 480 c 0,92,93
 662 480 662 480 706 436 c 0,94,95
 750 392 750 392 750 330 c 0,80,81
700 330 m 0,96,97
 700 371 700 371 671 401 c 0,98,99
 641 430 641 430 600 430 c 0,100,101
 559 430 559 430 529 401 c 0,102,103
 500 371 500 371 500 330 c 0,104,105
 500 289 500 289 529 259 c 0,106,107
 559 230 559 230 600 230 c 0,108,109
 641 230 641 230 671 259 c 0,110,111
 700 289 700 289 700 330 c 0,96,97
750 -20 m 0,112,113
 750 -82 750 -82 706 -126 c 0,114,115
 662 -170 662 -170 600 -170 c 0,116,117
 538 -170 538 -170 494 -126 c 0,118,119
 450 -82 450 -82 450 -20 c 0,120,121
 450 42 450 42 494 86 c 0,122,123
 538 130 538 130 600 130 c 0,124,125
 662 130 662 130 706 86 c 0,126,127
 750 42 750 42 750 -20 c 0,112,113
700 -20 m 0,128,129
 700 21 700 21 671 51 c 0,130,131
 641 80 641 80 600 80 c 0,132,133
 559 80 559 80 529 51 c 0,134,135
 500 21 500 21 500 -20 c 0,136,137
 500 -61 500 -61 529 -91 c 0,138,139
 559 -120 559 -120 600 -120 c 0,140,141
 641 -120 641 -120 671 -91 c 0,142,143
 700 -61 700 -61 700 -20 c 0,128,129
EndSplineSet
Validated: 1
EndChar

StartChar: uni280c
Encoding: 10252 10252 22
Width: 850
LayerCount: 2
Fore
SplineSet
400 680 m 0,0,1
 400 618 400 618 356 574 c 0,2,3
 312 530 312 530 250 530 c 0,4,5
 188 530 188 530 144 574 c 0,6,7
 100 618 100 618 100 680 c 0,8,9
 100 742 100 742 144 786 c 0,10,11
 188 830 188 830 250 830 c 0,12,13
 312 830 312 830 356 786 c 0,14,15
 400 742 400 742 400 680 c 0,0,1
350 680 m 0,16,17
 350 721 350 721 321 751 c 0,18,19
 291 780 291 780 250 780 c 0,20,21
 209 780 209 780 179 751 c 0,22,23
 150 721 150 721 150 680 c 0,24,25
 150 639 150 639 179 609 c 0,26,27
 209 580 209 580 250 580 c 0,28,29
 291 580 291 580 321 609 c 0,30,31
 350 639 350 639 350 680 c 0,16,17
400 330 m 0,32,33
 400 268 400 268 356 224 c 0,34,35
 312 180 312 180 250 180 c 0,36,37
 188 180 188 180 144 224 c 0,38,39
 100 268 100 268 100 330 c 0,40,41
 100 392 100 392 144 436 c 0,42,43
 188 480 188 480 250 480 c 0,44,45
 312 480 312 480 356 436 c 0,46,47
 400 392 400 392 400 330 c 0,32,33
350 330 m 0,48,49
 350 371 350 371 321 401 c 0,50,51
 291 430 291 430 250 430 c 0,52,53
 209 430 209 430 179 401 c 0,54,55
 150 371 150 371 150 330 c 0,56,57
 150 289 150 289 179 259 c 0,58,59
 209 230 209 230 250 230 c 0,60,61
 291 230 291 230 321 259 c 0,62,63
 350 289 350 289 350 330 c 0,48,49
400 -20 m 0,64,65
 400 -82 400 -82 356 -126 c 0,66,67
 312 -170 312 -170 250 -170 c 0,68,69
 188 -170 188 -170 144 -126 c 0,70,71
 100 -82 100 -82 100 -20 c 0,72,73
 100 42 100 42 144 86 c 0,74,75
 188 130 188 130 250 130 c 0,76,77
 312 130 312 130 356 86 c 0,78,79
 400 42 400 42 400 -20 c 0,64,65
750 680 m 0,80,81
 750 618 750 618 706 574 c 0,82,83
 662 530 662 530 600 530 c 0,84,85
 538 530 538 530 494 574 c 0,86,87
 450 618 450 618 450 680 c 0,88,89
 450 742 450 742 494 786 c 0,90,91
 538 830 538 830 600 830 c 0,92,93
 662 830 662 830 706 786 c 0,94,95
 750 742 750 742 750 680 c 0,80,81
750 330 m 0,96,97
 750 268 750 268 706 224 c 0,98,99
 662 180 662 180 600 180 c 0,100,101
 538 180 538 180 494 224 c 0,102,103
 450 268 450 268 450 330 c 0,104,105
 450 392 450 392 494 436 c 0,106,107
 538 480 538 480 600 480 c 0,108,109
 662 480 662 480 706 436 c 0,110,111
 750 392 750 392 750 330 c 0,96,97
700 330 m 0,112,113
 700 371 700 371 671 401 c 0,114,115
 641 430 641 430 600 430 c 0,116,117
 559 430 559 430 529 401 c 0,118,119
 500 371 500 371 500 330 c 0,120,121
 500 289 500 289 529 259 c 0,122,123
 559 230 559 230 600 230 c 0,124,125
 641 230 641 230 671 259 c 0,126,127
 700 289 700 289 700 330 c 0,112,113
750 -20 m 0,128,129
 750 -82 750 -82 706 -126 c 0,130,131
 662 -170 662 -170 600 -170 c 0,132,133
 538 -170 538 -170 494 -126 c 0,134,135
 450 -82 450 -82 450 -20 c 0,136,137
 450 42 450 42 494 86 c 0,138,139
 538 130 538 130 600 130 c 0,140,141
 662 130 662 130 706 86 c 0,142,143
 750 42 750 42 750 -20 c 0,128,129
700 -20 m 0,144,145
 700 21 700 21 671 51 c 0,146,147
 641 80 641 80 600 80 c 0,148,149
 559 80 559 80 529 51 c 0,150,151
 500 21 500 21 500 -20 c 0,152,153
 500 -61 500 -61 529 -91 c 0,154,155
 559 -120 559 -120 600 -120 c 0,156,157
 641 -120 641 -120 671 -91 c 0,158,159
 700 -61 700 -61 700 -20 c 0,144,145
EndSplineSet
Validated: 1
EndChar

StartChar: uni280d
Encoding: 10253 10253 23
Width: 850
LayerCount: 2
Fore
SplineSet
400 680 m 0,0,1
 400 618 400 618 356 574 c 0,2,3
 312 530 312 530 250 530 c 0,4,5
 188 530 188 530 144 574 c 0,6,7
 100 618 100 618 100 680 c 0,8,9
 100 742 100 742 144 786 c 0,10,11
 188 830 188 830 250 830 c 0,12,13
 312 830 312 830 356 786 c 0,14,15
 400 742 400 742 400 680 c 0,0,1
400 330 m 0,16,17
 400 268 400 268 356 224 c 0,18,19
 312 180 312 180 250 180 c 0,20,21
 188 180 188 180 144 224 c 0,22,23
 100 268 100 268 100 330 c 0,24,25
 100 392 100 392 144 436 c 0,26,27
 188 480 188 480 250 480 c 0,28,29
 312 480 312 480 356 436 c 0,30,31
 400 392 400 392 400 330 c 0,16,17
350 330 m 0,32,33
 350 371 350 371 321 401 c 0,34,35
 291 430 291 430 250 430 c 0,36,37
 209 430 209 430 179 401 c 0,38,39
 150 371 150 371 150 330 c 0,40,41
 150 289 150 289 179 259 c 0,42,43
 209 230 209 230 250 230 c 0,44,45
 291 230 291 230 321 259 c 0,46,47
 350 289 350 289 350 330 c 0,32,33
400 -20 m 0,48,49
 400 -82 400 -82 356 -126 c 0,50,51
 312 -170 312 -170 250 -170 c 0,52,53
 188 -170 188 -170 144 -126 c 0,54,55
 100 -82 100 -82 100 -20 c 0,56,57
 100 42 100 42 144 86 c 0,58,59
 188 130 188 130 250 130 c 0,60,61
 312 130 312 130 356 86 c 0,62,63
 400 42 400 42 400 -20 c 0,48,49
750 680 m 0,64,65
 750 618 750 618 706 574 c 0,66,67
 662 530 662 530 600 530 c 0,68,69
 538 530 538 530 494 574 c 0,70,71
 450 618 450 618 450 680 c 0,72,73
 450 742 450 742 494 786 c 0,74,75
 538 830 538 830 600 830 c 0,76,77
 662 830 662 830 706 786 c 0,78,79
 750 742 750 742 750 680 c 0,64,65
750 330 m 0,80,81
 750 268 750 268 706 224 c 0,82,83
 662 180 662 180 600 180 c 0,84,85
 538 180 538 180 494 224 c 0,86,87
 450 268 450 268 450 330 c 0,88,89
 450 392 450 392 494 436 c 0,90,91
 538 480 538 480 600 480 c 0,92,93
 662 480 662 480 706 436 c 0,94,95
 750 392 750 392 750 330 c 0,80,81
700 330 m 0,96,97
 700 371 700 371 671 401 c 0,98,99
 641 430 641 430 600 430 c 0,100,101
 559 430 559 430 529 401 c 0,102,103
 500 371 500 371 500 330 c 0,104,105
 500 289 500 289 529 259 c 0,106,107
 559 230 559 230 600 230 c 0,108,109
 641 230 641 230 671 259 c 0,110,111
 700 289 700 289 700 330 c 0,96,97
750 -20 m 0,112,113
 750 -82 750 -82 706 -126 c 0,114,115
 662 -170 662 -170 600 -170 c 0,116,117
 538 -170 538 -170 494 -126 c 0,118,119
 450 -82 450 -82 450 -20 c 0,120,121
 450 42 450 42 494 86 c 0,122,123
 538 130 538 130 600 130 c 0,124,125
 662 130 662 130 706 86 c 0,126,127
 750 42 750 42 750 -20 c 0,112,113
700 -20 m 0,128,129
 700 21 700 21 671 51 c 0,130,131
 641 80 641 80 600 80 c 0,132,133
 559 80 559 80 529 51 c 0,134,135
 500 21 500 21 500 -20 c 0,136,137
 500 -61 500 -61 529 -91 c 0,138,139
 559 -120 559 -120 600 -120 c 0,140,141
 641 -120 641 -120 671 -91 c 0,142,143
 700 -61 700 -61 700 -20 c 0,128,129
EndSplineSet
Validated: 1
EndChar

StartChar: uni280e
Encoding: 10254 10254 24
Width: 850
LayerCount: 2
Fore
SplineSet
400 680 m 0,0,1
 400 618 400 618 356 574 c 0,2,3
 312 530 312 530 250 530 c 0,4,5
 188 530 188 530 144 574 c 0,6,7
 100 618 100 618 100 680 c 0,8,9
 100 742 100 742 144 786 c 0,10,11
 188 830 188 830 250 830 c 0,12,13
 312 830 312 830 356 786 c 0,14,15
 400 742 400 742 400 680 c 0,0,1
350 680 m 0,16,17
 350 721 350 721 321 751 c 0,18,19
 291 780 291 780 250 780 c 0,20,21
 209 780 209 780 179 751 c 0,22,23
 150 721 150 721 150 680 c 0,24,25
 150 639 150 639 179 609 c 0,26,27
 209 580 209 580 250 580 c 0,28,29
 291 580 291 580 321 609 c 0,30,31
 350 639 350 639 350 680 c 0,16,17
400 330 m 0,32,33
 400 268 400 268 356 224 c 0,34,35
 312 180 312 180 250 180 c 0,36,37
 188 180 188 180 144 224 c 0,38,39
 100 268 100 268 100 330 c 0,40,41
 100 392 100 392 144 436 c 0,42,43
 188 480 188 480 250 480 c 0,44,45
 312 480 312 480 356 436 c 0,46,47
 400 392 400 392 400 330 c 0,32,33
400 -20 m 0,48,49
 400 -82 400 -82 356 -126 c 0,50,51
 312 -170 312 -170 250 -170 c 0,52,53
 188 -170 188 -170 144 -126 c 0,54,55
 100 -82 100 -82 100 -20 c 0,56,57
 100 42 100 42 144 86 c 0,58,59
 188 130 188 130 250 130 c 0,60,61
 312 130 312 130 356 86 c 0,62,63
 400 42 400 42 400 -20 c 0,48,49
750 680 m 0,64,65
 750 618 750 618 706 574 c 0,66,67
 662 530 662 530 600 530 c 0,68,69
 538 530 538 530 494 574 c 0,70,71
 450 618 450 618 450 680 c 0,72,73
 450 742 450 742 494 786 c 0,74,75
 538 830 538 830 600 830 c 0,76,77
 662 830 662 830 706 786 c 0,78,79
 750 742 750 742 750 680 c 0,64,65
750 330 m 0,80,81
 750 268 750 268 706 224 c 0,82,83
 662 180 662 180 600 180 c 0,84,85
 538 180 538 180 494 224 c 0,86,87
 450 268 450 268 450 330 c 0,88,89
 450 392 450 392 494 436 c 0,90,91
 538 480 538 480 600 480 c 0,92,93
 662 480 662 480 706 436 c 0,94,95
 750 392 750 392 750 330 c 0,80,81
700 330 m 0,96,97
 700 371 700 371 671 401 c 0,98,99
 641 430 641 430 600 430 c 0,100,101
 559 430 559 430 529 401 c 0,102,103
 500 371 500 371 500 330 c 0,104,105
 500 289 500 289 529 259 c 0,106,107
 559 230 559 230 600 230 c 0,108,109
 641 230 641 230 671 259 c 0,110,111
 700 289 700 289 700 330 c 0,96,97
750 -20 m 0,112,113
 750 -82 750 -82 706 -126 c 0,114,115
 662 -170 662 -170 600 -170 c 0,116,117
 538 -170 538 -170 494 -126 c 0,118,119
 450 -82 450 -82 450 -20 c 0,120,121
 450 42 450 42 494 86 c 0,122,123
 538 130 538 130 600 130 c 0,124,125
 662 130 662 130 706 86 c 0,126,127
 750 42 750 42 750 -20 c 0,112,113
700 -20 m 0,128,129
 700 21 700 21 671 51 c 0,130,131
 641 80 641 80 600 80 c 0,132,133
 559 80 559 80 529 51 c 0,134,135
 500 21 500 21 500 -20 c 0,136,137
 500 -61 500 -61 529 -91 c 0,138,139
 559 -120 559 -120 600 -120 c 0,140,141
 641 -120 641 -120 671 -91 c 0,142,143
 700 -61 700 -61 700 -20 c 0,128,129
EndSplineSet
Validated: 1
EndChar

StartChar: uni280f
Encoding: 10255 10255 25
Width: 850
LayerCount: 2
Fore
SplineSet
400 680 m 0,0,1
 400 618 400 618 356 574 c 0,2,3
 312 530 312 530 250 530 c 0,4,5
 188 530 188 530 144 574 c 0,6,7
 100 618 100 618 100 680 c 0,8,9
 100 742 100 742 144 786 c 0,10,11
 188 830 188 830 250 830 c 0,12,13
 312 830 312 830 356 786 c 0,14,15
 400 742 400 742 400 680 c 0,0,1
400 330 m 0,16,17
 400 268 400 268 356 224 c 0,18,19
 312 180 312 180 250 180 c 0,20,21
 188 180 188 180 144 224 c 0,22,23
 100 268 100 268 100 330 c 0,24,25
 100 392 100 392 144 436 c 0,26,27
 188 480 188 480 250 480 c 0,28,29
 312 480 312 480 356 436 c 0,30,31
 400 392 400 392 400 330 c 0,16,17
400 -20 m 0,32,33
 400 -82 400 -82 356 -126 c 0,34,35
 312 -170 312 -170 250 -170 c 0,36,37
 188 -170 188 -170 144 -126 c 0,38,39
 100 -82 100 -82 100 -20 c 0,40,41
 100 42 100 42 144 86 c 0,42,43
 188 130 188 130 250 130 c 0,44,45
 312 130 312 130 356 86 c 0,46,47
 400 42 400 42 400 -20 c 0,32,33
750 680 m 0,48,49
 750 618 750 618 706 574 c 0,50,51
 662 530 662 530 600 530 c 0,52,53
 538 530 538 530 494 574 c 0,54,55
 450 618 450 618 450 680 c 0,56,57
 450 742 450 742 494 786 c 0,58,59
 538 830 538 830 600 830 c 0,60,61
 662 830 662 830 706 786 c 0,62,63
 750 742 750 742 750 680 c 0,48,49
750 330 m 0,64,65
 750 268 750 268 706 224 c 0,66,67
 662 180 662 180 600 180 c 0,68,69
 538 180 538 180 494 224 c 0,70,71
 450 268 450 268 450 330 c 0,72,73
 450 392 450 392 494 436 c 0,74,75
 538 480 538 480 600 480 c 0,76,77
 662 480 662 480 706 436 c 0,78,79
 750 392 750 392 750 330 c 0,64,65
700 330 m 0,80,81
 700 371 700 371 671 401 c 0,82,83
 641 430 641 430 600 430 c 0,84,85
 559 430 559 430 529 401 c 0,86,87
 500 371 500 371 500 330 c 0,88,89
 500 289 500 289 529 259 c 0,90,91
 559 230 559 230 600 230 c 0,92,93
 641 230 641 230 671 259 c 0,94,95
 700 289 700 289 700 330 c 0,80,81
750 -20 m 0,96,97
 750 -82 750 -82 706 -126 c 0,98,99
 662 -170 662 -170 600 -170 c 0,100,101
 538 -170 538 -170 494 -126 c 0,102,103
 450 -82 450 -82 450 -20 c 0,104,105
 450 42 450 42 494 86 c 0,106,107
 538 130 538 130 600 130 c 0,108,109
 662 130 662 130 706 86 c 0,110,111
 750 42 750 42 750 -20 c 0,96,97
700 -20 m 0,112,113
 700 21 700 21 671 51 c 0,114,115
 641 80 641 80 600 80 c 0,116,117
 559 80 559 80 529 51 c 0,118,119
 500 21 500 21 500 -20 c 0,120,121
 500 -61 500 -61 529 -91 c 0,122,123
 559 -120 559 -120 600 -120 c 0,124,125
 641 -120 641 -120 671 -91 c 0,126,127
 700 -61 700 -61 700 -20 c 0,112,113
EndSplineSet
Validated: 1
EndChar

StartChar: uni2810
Encoding: 10256 10256 26
Width: 850
LayerCount: 2
Fore
SplineSet
400 680 m 0,0,1
 400 618 400 618 356 574 c 0,2,3
 312 530 312 530 250 530 c 0,4,5
 188 530 188 530 144 574 c 0,6,7
 100 618 100 618 100 680 c 0,8,9
 100 742 100 742 144 786 c 0,10,11
 188 830 188 830 250 830 c 0,12,13
 312 830 312 830 356 786 c 0,14,15
 400 742 400 742 400 680 c 0,0,1
350 680 m 0,16,17
 350 721 350 721 321 751 c 0,18,19
 291 780 291 780 250 780 c 0,20,21
 209 780 209 780 179 751 c 0,22,23
 150 721 150 721 150 680 c 0,24,25
 150 639 150 639 179 609 c 0,26,27
 209 580 209 580 250 580 c 0,28,29
 291 580 291 580 321 609 c 0,30,31
 350 639 350 639 350 680 c 0,16,17
400 330 m 0,32,33
 400 268 400 268 356 224 c 0,34,35
 312 180 312 180 250 180 c 0,36,37
 188 180 188 180 144 224 c 0,38,39
 100 268 100 268 100 330 c 0,40,41
 100 392 100 392 144 436 c 0,42,43
 188 480 188 480 250 480 c 0,44,45
 312 480 312 480 356 436 c 0,46,47
 400 392 400 392 400 330 c 0,32,33
350 330 m 0,48,49
 350 371 350 371 321 401 c 0,50,51
 291 430 291 430 250 430 c 0,52,53
 209 430 209 430 179 401 c 0,54,55
 150 371 150 371 150 330 c 0,56,57
 150 289 150 289 179 259 c 0,58,59
 209 230 209 230 250 230 c 0,60,61
 291 230 291 230 321 259 c 0,62,63
 350 289 350 289 350 330 c 0,48,49
400 -20 m 0,64,65
 400 -82 400 -82 356 -126 c 0,66,67
 312 -170 312 -170 250 -170 c 0,68,69
 188 -170 188 -170 144 -126 c 0,70,71
 100 -82 100 -82 100 -20 c 0,72,73
 100 42 100 42 144 86 c 0,74,75
 188 130 188 130 250 130 c 0,76,77
 312 130 312 130 356 86 c 0,78,79
 400 42 400 42 400 -20 c 0,64,65
350 -20 m 0,80,81
 350 21 350 21 321 51 c 0,82,83
 291 80 291 80 250 80 c 0,84,85
 209 80 209 80 179 51 c 0,86,87
 150 21 150 21 150 -20 c 0,88,89
 150 -61 150 -61 179 -91 c 0,90,91
 209 -120 209 -120 250 -120 c 0,92,93
 291 -120 291 -120 321 -91 c 0,94,95
 350 -61 350 -61 350 -20 c 0,80,81
750 680 m 0,96,97
 750 618 750 618 706 574 c 0,98,99
 662 530 662 530 600 530 c 0,100,101
 538 530 538 530 494 574 c 0,102,103
 450 618 450 618 450 680 c 0,104,105
 450 742 450 742 494 786 c 0,106,107
 538 830 538 830 600 830 c 0,108,109
 662 830 662 830 706 786 c 0,110,111
 750 742 750 742 750 680 c 0,96,97
700 680 m 0,112,113
 700 721 700 721 671 751 c 0,114,115
 641 780 641 780 600 780 c 0,116,117
 559 780 559 780 529 751 c 0,118,119
 500 721 500 721 500 680 c 0,120,121
 500 639 500 639 529 609 c 0,122,123
 559 580 559 580 600 580 c 0,124,125
 641 580 641 580 671 609 c 0,126,127
 700 639 700 639 700 680 c 0,112,113
750 330 m 0,128,129
 750 268 750 268 706 224 c 0,130,131
 662 180 662 180 600 180 c 0,132,133
 538 180 538 180 494 224 c 0,134,135
 450 268 450 268 450 330 c 0,136,137
 450 392 450 392 494 436 c 0,138,139
 538 480 538 480 600 480 c 0,140,141
 662 480 662 480 706 436 c 0,142,143
 750 392 750 392 750 330 c 0,128,129
750 -20 m 0,144,145
 750 -82 750 -82 706 -126 c 0,146,147
 662 -170 662 -170 600 -170 c 0,148,149
 538 -170 538 -170 494 -126 c 0,150,151
 450 -82 450 -82 450 -20 c 0,152,153
 450 42 450 42 494 86 c 0,154,155
 538 130 538 130 600 130 c 0,156,157
 662 130 662 130 706 86 c 0,158,159
 750 42 750 42 750 -20 c 0,144,145
700 -20 m 0,160,161
 700 21 700 21 671 51 c 0,162,163
 641 80 641 80 600 80 c 0,164,165
 559 80 559 80 529 51 c 0,166,167
 500 21 500 21 500 -20 c 0,168,169
 500 -61 500 -61 529 -91 c 0,170,171
 559 -120 559 -120 600 -120 c 0,172,173
 641 -120 641 -120 671 -91 c 0,174,175
 700 -61 700 -61 700 -20 c 0,160,161
EndSplineSet
Validated: 1
EndChar

StartChar: uni2811
Encoding: 10257 10257 27
Width: 850
LayerCount: 2
Fore
SplineSet
400 680 m 0,0,1
 400 618 400 618 356 574 c 0,2,3
 312 530 312 530 250 530 c 0,4,5
 188 530 188 530 144 574 c 0,6,7
 100 618 100 618 100 680 c 0,8,9
 100 742 100 742 144 786 c 0,10,11
 188 830 188 830 250 830 c 0,12,13
 312 830 312 830 356 786 c 0,14,15
 400 742 400 742 400 680 c 0,0,1
400 330 m 0,16,17
 400 268 400 268 356 224 c 0,18,19
 312 180 312 180 250 180 c 0,20,21
 188 180 188 180 144 224 c 0,22,23
 100 268 100 268 100 330 c 0,24,25
 100 392 100 392 144 436 c 0,26,27
 188 480 188 480 250 480 c 0,28,29
 312 480 312 480 356 436 c 0,30,31
 400 392 400 392 400 330 c 0,16,17
350 330 m 0,32,33
 350 371 350 371 321 401 c 0,34,35
 291 430 291 430 250 430 c 0,36,37
 209 430 209 430 179 401 c 0,38,39
 150 371 150 371 150 330 c 0,40,41
 150 289 150 289 179 259 c 0,42,43
 209 230 209 230 250 230 c 0,44,45
 291 230 291 230 321 259 c 0,46,47
 350 289 350 289 350 330 c 0,32,33
400 -20 m 0,48,49
 400 -82 400 -82 356 -126 c 0,50,51
 312 -170 312 -170 250 -170 c 0,52,53
 188 -170 188 -170 144 -126 c 0,54,55
 100 -82 100 -82 100 -20 c 0,56,57
 100 42 100 42 144 86 c 0,58,59
 188 130 188 130 250 130 c 0,60,61
 312 130 312 130 356 86 c 0,62,63
 400 42 400 42 400 -20 c 0,48,49
350 -20 m 0,64,65
 350 21 350 21 321 51 c 0,66,67
 291 80 291 80 250 80 c 0,68,69
 209 80 209 80 179 51 c 0,70,71
 150 21 150 21 150 -20 c 0,72,73
 150 -61 150 -61 179 -91 c 0,74,75
 209 -120 209 -120 250 -120 c 0,76,77
 291 -120 291 -120 321 -91 c 0,78,79
 350 -61 350 -61 350 -20 c 0,64,65
750 680 m 0,80,81
 750 618 750 618 706 574 c 0,82,83
 662 530 662 530 600 530 c 0,84,85
 538 530 538 530 494 574 c 0,86,87
 450 618 450 618 450 680 c 0,88,89
 450 742 450 742 494 786 c 0,90,91
 538 830 538 830 600 830 c 0,92,93
 662 830 662 830 706 786 c 0,94,95
 750 742 750 742 750 680 c 0,80,81
700 680 m 0,96,97
 700 721 700 721 671 751 c 0,98,99
 641 780 641 780 600 780 c 0,100,101
 559 780 559 780 529 751 c 0,102,103
 500 721 500 721 500 680 c 0,104,105
 500 639 500 639 529 609 c 0,106,107
 559 580 559 580 600 580 c 0,108,109
 641 580 641 580 671 609 c 0,110,111
 700 639 700 639 700 680 c 0,96,97
750 330 m 0,112,113
 750 268 750 268 706 224 c 0,114,115
 662 180 662 180 600 180 c 0,116,117
 538 180 538 180 494 224 c 0,118,119
 450 268 450 268 450 330 c 0,120,121
 450 392 450 392 494 436 c 0,122,123
 538 480 538 480 600 480 c 0,124,125
 662 480 662 480 706 436 c 0,126,127
 750 392 750 392 750 330 c 0,112,113
750 -20 m 0,128,129
 750 -82 750 -82 706 -126 c 0,130,131
 662 -170 662 -170 600 -170 c 0,132,133
 538 -170 538 -170 494 -126 c 0,134,135
 450 -82 450 -82 450 -20 c 0,136,137
 450 42 450 42 494 86 c 0,138,139
 538 130 538 130 600 130 c 0,140,141
 662 130 662 130 706 86 c 0,142,143
 750 42 750 42 750 -20 c 0,128,129
700 -20 m 0,144,145
 700 21 700 21 671 51 c 0,146,147
 641 80 641 80 600 80 c 0,148,149
 559 80 559 80 529 51 c 0,150,151
 500 21 500 21 500 -20 c 0,152,153
 500 -61 500 -61 529 -91 c 0,154,155
 559 -120 559 -120 600 -120 c 0,156,157
 641 -120 641 -120 671 -91 c 0,158,159
 700 -61 700 -61 700 -20 c 0,144,145
EndSplineSet
Validated: 1
EndChar

StartChar: uni2812
Encoding: 10258 10258 28
Width: 850
LayerCount: 2
Fore
SplineSet
400 680 m 0,0,1
 400 618 400 618 356 574 c 0,2,3
 312 530 312 530 250 530 c 0,4,5
 188 530 188 530 144 574 c 0,6,7
 100 618 100 618 100 680 c 0,8,9
 100 742 100 742 144 786 c 0,10,11
 188 830 188 830 250 830 c 0,12,13
 312 830 312 830 356 786 c 0,14,15
 400 742 400 742 400 680 c 0,0,1
350 680 m 0,16,17
 350 721 350 721 321 751 c 0,18,19
 291 780 291 780 250 780 c 0,20,21
 209 780 209 780 179 751 c 0,22,23
 150 721 150 721 150 680 c 0,24,25
 150 639 150 639 179 609 c 0,26,27
 209 580 209 580 250 580 c 0,28,29
 291 580 291 580 321 609 c 0,30,31
 350 639 350 639 350 680 c 0,16,17
400 330 m 0,32,33
 400 268 400 268 356 224 c 0,34,35
 312 180 312 180 250 180 c 0,36,37
 188 180 188 180 144 224 c 0,38,39
 100 268 100 268 100 330 c 0,40,41
 100 392 100 392 144 436 c 0,42,43
 188 480 188 480 250 480 c 0,44,45
 312 480 312 480 356 436 c 0,46,47
 400 392 400 392 400 330 c 0,32,33
400 -20 m 0,48,49
 400 -82 400 -82 356 -126 c 0,50,51
 312 -170 312 -170 250 -170 c 0,52,53
 188 -170 188 -170 144 -126 c 0,54,55
 100 -82 100 -82 100 -20 c 0,56,57
 100 42 100 42 144 86 c 0,58,59
 188 130 188 130 250 130 c 0,60,61
 312 130 312 130 356 86 c 0,62,63
 400 42 400 42 400 -20 c 0,48,49
350 -20 m 0,64,65
 350 21 350 21 321 51 c 0,66,67
 291 80 291 80 250 80 c 0,68,69
 209 80 209 80 179 51 c 0,70,71
 150 21 150 21 150 -20 c 0,72,73
 150 -61 150 -61 179 -91 c 0,74,75
 209 -120 209 -120 250 -120 c 0,76,77
 291 -120 291 -120 321 -91 c 0,78,79
 350 -61 350 -61 350 -20 c 0,64,65
750 680 m 0,80,81
 750 618 750 618 706 574 c 0,82,83
 662 530 662 530 600 530 c 0,84,85
 538 530 538 530 494 574 c 0,86,87
 450 618 450 618 450 680 c 0,88,89
 450 742 450 742 494 786 c 0,90,91
 538 830 538 830 600 830 c 0,92,93
 662 830 662 830 706 786 c 0,94,95
 750 742 750 742 750 680 c 0,80,81
700 680 m 0,96,97
 700 721 700 721 671 751 c 0,98,99
 641 780 641 780 600 780 c 0,100,101
 559 780 559 780 529 751 c 0,102,103
 500 721 500 721 500 680 c 0,104,105
 500 639 500 639 529 609 c 0,106,107
 559 580 559 580 600 580 c 0,108,109
 641 580 641 580 671 609 c 0,110,111
 700 639 700 639 700 680 c 0,96,97
750 330 m 0,112,113
 750 268 750 268 706 224 c 0,114,115
 662 180 662 180 600 180 c 0,116,117
 538 180 538 180 494 224 c 0,118,119
 450 268 450 268 450 330 c 0,120,121
 450 392 450 392 494 436 c 0,122,123
 538 480 538 480 600 480 c 0,124,125
 662 480 662 480 706 436 c 0,126,127
 750 392 750 392 750 330 c 0,112,113
750 -20 m 0,128,129
 750 -82 750 -82 706 -126 c 0,130,131
 662 -170 662 -170 600 -170 c 0,132,133
 538 -170 538 -170 494 -126 c 0,134,135
 450 -82 450 -82 450 -20 c 0,136,137
 450 42 450 42 494 86 c 0,138,139
 538 130 538 130 600 130 c 0,140,141
 662 130 662 130 706 86 c 0,142,143
 750 42 750 42 750 -20 c 0,128,129
700 -20 m 0,144,145
 700 21 700 21 671 51 c 0,146,147
 641 80 641 80 600 80 c 0,148,149
 559 80 559 80 529 51 c 0,150,151
 500 21 500 21 500 -20 c 0,152,153
 500 -61 500 -61 529 -91 c 0,154,155
 559 -120 559 -120 600 -120 c 0,156,157
 641 -120 641 -120 671 -91 c 0,158,159
 700 -61 700 -61 700 -20 c 0,144,145
EndSplineSet
Validated: 1
EndChar

StartChar: uni2813
Encoding: 10259 10259 29
Width: 850
LayerCount: 2
Fore
SplineSet
400 680 m 0,0,1
 400 618 400 618 356 574 c 0,2,3
 312 530 312 530 250 530 c 0,4,5
 188 530 188 530 144 574 c 0,6,7
 100 618 100 618 100 680 c 0,8,9
 100 742 100 742 144 786 c 0,10,11
 188 830 188 830 250 830 c 0,12,13
 312 830 312 830 356 786 c 0,14,15
 400 742 400 742 400 680 c 0,0,1
400 330 m 0,16,17
 400 268 400 268 356 224 c 0,18,19
 312 180 312 180 250 180 c 0,20,21
 188 180 188 180 144 224 c 0,22,23
 100 268 100 268 100 330 c 0,24,25
 100 392 100 392 144 436 c 0,26,27
 188 480 188 480 250 480 c 0,28,29
 312 480 312 480 356 436 c 0,30,31
 400 392 400 392 400 330 c 0,16,17
400 -20 m 0,32,33
 400 -82 400 -82 356 -126 c 0,34,35
 312 -170 312 -170 250 -170 c 0,36,37
 188 -170 188 -170 144 -126 c 0,38,39
 100 -82 100 -82 100 -20 c 0,40,41
 100 42 100 42 144 86 c 0,42,43
 188 130 188 130 250 130 c 0,44,45
 312 130 312 130 356 86 c 0,46,47
 400 42 400 42 400 -20 c 0,32,33
350 -20 m 0,48,49
 350 21 350 21 321 51 c 0,50,51
 291 80 291 80 250 80 c 0,52,53
 209 80 209 80 179 51 c 0,54,55
 150 21 150 21 150 -20 c 0,56,57
 150 -61 150 -61 179 -91 c 0,58,59
 209 -120 209 -120 250 -120 c 0,60,61
 291 -120 291 -120 321 -91 c 0,62,63
 350 -61 350 -61 350 -20 c 0,48,49
750 680 m 0,64,65
 750 618 750 618 706 574 c 0,66,67
 662 530 662 530 600 530 c 0,68,69
 538 530 538 530 494 574 c 0,70,71
 450 618 450 618 450 680 c 0,72,73
 450 742 450 742 494 786 c 0,74,75
 538 830 538 830 600 830 c 0,76,77
 662 830 662 830 706 786 c 0,78,79
 750 742 750 742 750 680 c 0,64,65
700 680 m 0,80,81
 700 721 700 721 671 751 c 0,82,83
 641 780 641 780 600 780 c 0,84,85
 559 780 559 780 529 751 c 0,86,87
 500 721 500 721 500 680 c 0,88,89
 500 639 500 639 529 609 c 0,90,91
 559 580 559 580 600 580 c 0,92,93
 641 580 641 580 671 609 c 0,94,95
 700 639 700 639 700 680 c 0,80,81
750 330 m 0,96,97
 750 268 750 268 706 224 c 0,98,99
 662 180 662 180 600 180 c 0,100,101
 538 180 538 180 494 224 c 0,102,103
 450 268 450 268 450 330 c 0,104,105
 450 392 450 392 494 436 c 0,106,107
 538 480 538 480 600 480 c 0,108,109
 662 480 662 480 706 436 c 0,110,111
 750 392 750 392 750 330 c 0,96,97
750 -20 m 0,112,113
 750 -82 750 -82 706 -126 c 0,114,115
 662 -170 662 -170 600 -170 c 0,116,117
 538 -170 538 -170 494 -126 c 0,118,119
 450 -82 450 -82 450 -20 c 0,120,121
 450 42 450 42 494 86 c 0,122,123
 538 130 538 130 600 130 c 0,124,125
 662 130 662 130 706 86 c 0,126,127
 750 42 750 42 750 -20 c 0,112,113
700 -20 m 0,128,129
 700 21 700 21 671 51 c 0,130,131
 641 80 641 80 600 80 c 0,132,133
 559 80 559 80 529 51 c 0,134,135
 500 21 500 21 500 -20 c 0,136,137
 500 -61 500 -61 529 -91 c 0,138,139
 559 -120 559 -120 600 -120 c 0,140,141
 641 -120 641 -120 671 -91 c 0,142,143
 700 -61 700 -61 700 -20 c 0,128,129
EndSplineSet
Validated: 1
EndChar

StartChar: uni2814
Encoding: 10260 10260 30
Width: 850
LayerCount: 2
Fore
SplineSet
400 680 m 0,0,1
 400 618 400 618 356 574 c 0,2,3
 312 530 312 530 250 530 c 0,4,5
 188 530 188 530 144 574 c 0,6,7
 100 618 100 618 100 680 c 0,8,9
 100 742 100 742 144 786 c 0,10,11
 188 830 188 830 250 830 c 0,12,13
 312 830 312 830 356 786 c 0,14,15
 400 742 400 742 400 680 c 0,0,1
350 680 m 0,16,17
 350 721 350 721 321 751 c 0,18,19
 291 780 291 780 250 780 c 0,20,21
 209 780 209 780 179 751 c 0,22,23
 150 721 150 721 150 680 c 0,24,25
 150 639 150 639 179 609 c 0,26,27
 209 580 209 580 250 580 c 0,28,29
 291 580 291 580 321 609 c 0,30,31
 350 639 350 639 350 680 c 0,16,17
400 330 m 0,32,33
 400 268 400 268 356 224 c 0,34,35
 312 180 312 180 250 180 c 0,36,37
 188 180 188 180 144 224 c 0,38,39
 100 268 100 268 100 330 c 0,40,41
 100 392 100 392 144 436 c 0,42,43
 188 480 188 480 250 480 c 0,44,45
 312 480 312 480 356 436 c 0,46,47
 400 392 400 392 400 330 c 0,32,33
350 330 m 0,48,49
 350 371 350 371 321 401 c 0,50,51
 291 430 291 430 250 430 c 0,52,53
 209 430 209 430 179 401 c 0,54,55
 150 371 150 371 150 330 c 0,56,57
 150 289 150 289 179 259 c 0,58,59
 209 230 209 230 250 230 c 0,60,61
 291 230 291 230 321 259 c 0,62,63
 350 289 350 289 350 330 c 0,48,49
400 -20 m 0,64,65
 400 -82 400 -82 356 -126 c 0,66,67
 312 -170 312 -170 250 -170 c 0,68,69
 188 -170 188 -170 144 -126 c 0,70,71
 100 -82 100 -82 100 -20 c 0,72,73
 100 42 100 42 144 86 c 0,74,75
 188 130 188 130 250 130 c 0,76,77
 312 130 312 130 356 86 c 0,78,79
 400 42 400 42 400 -20 c 0,64,65
750 680 m 0,80,81
 750 618 750 618 706 574 c 0,82,83
 662 530 662 530 600 530 c 0,84,85
 538 530 538 530 494 574 c 0,86,87
 450 618 450 618 450 680 c 0,88,89
 450 742 450 742 494 786 c 0,90,91
 538 830 538 830 600 830 c 0,92,93
 662 830 662 830 706 786 c 0,94,95
 750 742 750 742 750 680 c 0,80,81
700 680 m 0,96,97
 700 721 700 721 671 751 c 0,98,99
 641 780 641 780 600 780 c 0,100,101
 559 780 559 780 529 751 c 0,102,103
 500 721 500 721 500 680 c 0,104,105
 500 639 500 639 529 609 c 0,106,107
 559 580 559 580 600 580 c 0,108,109
 641 580 641 580 671 609 c 0,110,111
 700 639 700 639 700 680 c 0,96,97
750 330 m 0,112,113
 750 268 750 268 706 224 c 0,114,115
 662 180 662 180 600 180 c 0,116,117
 538 180 538 180 494 224 c 0,118,119
 450 268 450 268 450 330 c 0,120,121
 450 392 450 392 494 436 c 0,122,123
 538 480 538 480 600 480 c 0,124,125
 662 480 662 480 706 436 c 0,126,127
 750 392 750 392 750 330 c 0,112,113
750 -20 m 0,128,129
 750 -82 750 -82 706 -126 c 0,130,131
 662 -170 662 -170 600 -170 c 0,132,133
 538 -170 538 -170 494 -126 c 0,134,135
 450 -82 450 -82 450 -20 c 0,136,137
 450 42 450 42 494 86 c 0,138,139
 538 130 538 130 600 130 c 0,140,141
 662 130 662 130 706 86 c 0,142,143
 750 42 750 42 750 -20 c 0,128,129
700 -20 m 0,144,145
 700 21 700 21 671 51 c 0,146,147
 641 80 641 80 600 80 c 0,148,149
 559 80 559 80 529 51 c 0,150,151
 500 21 500 21 500 -20 c 0,152,153
 500 -61 500 -61 529 -91 c 0,154,155
 559 -120 559 -120 600 -120 c 0,156,157
 641 -120 641 -120 671 -91 c 0,158,159
 700 -61 700 -61 700 -20 c 0,144,145
EndSplineSet
Validated: 1
EndChar

StartChar: uni2815
Encoding: 10261 10261 31
Width: 850
LayerCount: 2
Fore
SplineSet
400 680 m 0,0,1
 400 618 400 618 356 574 c 0,2,3
 312 530 312 530 250 530 c 0,4,5
 188 530 188 530 144 574 c 0,6,7
 100 618 100 618 100 680 c 0,8,9
 100 742 100 742 144 786 c 0,10,11
 188 830 188 830 250 830 c 0,12,13
 312 830 312 830 356 786 c 0,14,15
 400 742 400 742 400 680 c 0,0,1
400 330 m 0,16,17
 400 268 400 268 356 224 c 0,18,19
 312 180 312 180 250 180 c 0,20,21
 188 180 188 180 144 224 c 0,22,23
 100 268 100 268 100 330 c 0,24,25
 100 392 100 392 144 436 c 0,26,27
 188 480 188 480 250 480 c 0,28,29
 312 480 312 480 356 436 c 0,30,31
 400 392 400 392 400 330 c 0,16,17
350 330 m 0,32,33
 350 371 350 371 321 401 c 0,34,35
 291 430 291 430 250 430 c 0,36,37
 209 430 209 430 179 401 c 0,38,39
 150 371 150 371 150 330 c 0,40,41
 150 289 150 289 179 259 c 0,42,43
 209 230 209 230 250 230 c 0,44,45
 291 230 291 230 321 259 c 0,46,47
 350 289 350 289 350 330 c 0,32,33
400 -20 m 0,48,49
 400 -82 400 -82 356 -126 c 0,50,51
 312 -170 312 -170 250 -170 c 0,52,53
 188 -170 188 -170 144 -126 c 0,54,55
 100 -82 100 -82 100 -20 c 0,56,57
 100 42 100 42 144 86 c 0,58,59
 188 130 188 130 250 130 c 0,60,61
 312 130 312 130 356 86 c 0,62,63
 400 42 400 42 400 -20 c 0,48,49
750 680 m 0,64,65
 750 618 750 618 706 574 c 0,66,67
 662 530 662 530 600 530 c 0,68,69
 538 530 538 530 494 574 c 0,70,71
 450 618 450 618 450 680 c 0,72,73
 450 742 450 742 494 786 c 0,74,75
 538 830 538 830 600 830 c 0,76,77
 662 830 662 830 706 786 c 0,78,79
 750 742 750 742 750 680 c 0,64,65
700 680 m 0,80,81
 700 721 700 721 671 751 c 0,82,83
 641 780 641 780 600 780 c 0,84,85
 559 780 559 780 529 751 c 0,86,87
 500 721 500 721 500 680 c 0,88,89
 500 639 500 639 529 609 c 0,90,91
 559 580 559 580 600 580 c 0,92,93
 641 580 641 580 671 609 c 0,94,95
 700 639 700 639 700 680 c 0,80,81
750 330 m 0,96,97
 750 268 750 268 706 224 c 0,98,99
 662 180 662 180 600 180 c 0,100,101
 538 180 538 180 494 224 c 0,102,103
 450 268 450 268 450 330 c 0,104,105
 450 392 450 392 494 436 c 0,106,107
 538 480 538 480 600 480 c 0,108,109
 662 480 662 480 706 436 c 0,110,111
 750 392 750 392 750 330 c 0,96,97
750 -20 m 0,112,113
 750 -82 750 -82 706 -126 c 0,114,115
 662 -170 662 -170 600 -170 c 0,116,117
 538 -170 538 -170 494 -126 c 0,118,119
 450 -82 450 -82 450 -20 c 0,120,121
 450 42 450 42 494 86 c 0,122,123
 538 130 538 130 600 130 c 0,124,125
 662 130 662 130 706 86 c 0,126,127
 750 42 750 42 750 -20 c 0,112,113
700 -20 m 0,128,129
 700 21 700 21 671 51 c 0,130,131
 641 80 641 80 600 80 c 0,132,133
 559 80 559 80 529 51 c 0,134,135
 500 21 500 21 500 -20 c 0,136,137
 500 -61 500 -61 529 -91 c 0,138,139
 559 -120 559 -120 600 -120 c 0,140,141
 641 -120 641 -120 671 -91 c 0,142,143
 700 -61 700 -61 700 -20 c 0,128,129
EndSplineSet
Validated: 1
EndChar

StartChar: uni2816
Encoding: 10262 10262 32
Width: 850
LayerCount: 2
Fore
SplineSet
400 680 m 0,0,1
 400 618 400 618 356 574 c 0,2,3
 312 530 312 530 250 530 c 0,4,5
 188 530 188 530 144 574 c 0,6,7
 100 618 100 618 100 680 c 0,8,9
 100 742 100 742 144 786 c 0,10,11
 188 830 188 830 250 830 c 0,12,13
 312 830 312 830 356 786 c 0,14,15
 400 742 400 742 400 680 c 0,0,1
350 680 m 0,16,17
 350 721 350 721 321 751 c 0,18,19
 291 780 291 780 250 780 c 0,20,21
 209 780 209 780 179 751 c 0,22,23
 150 721 150 721 150 680 c 0,24,25
 150 639 150 639 179 609 c 0,26,27
 209 580 209 580 250 580 c 0,28,29
 291 580 291 580 321 609 c 0,30,31
 350 639 350 639 350 680 c 0,16,17
400 330 m 0,32,33
 400 268 400 268 356 224 c 0,34,35
 312 180 312 180 250 180 c 0,36,37
 188 180 188 180 144 224 c 0,38,39
 100 268 100 268 100 330 c 0,40,41
 100 392 100 392 144 436 c 0,42,43
 188 480 188 480 250 480 c 0,44,45
 312 480 312 480 356 436 c 0,46,47
 400 392 400 392 400 330 c 0,32,33
400 -20 m 0,48,49
 400 -82 400 -82 356 -126 c 0,50,51
 312 -170 312 -170 250 -170 c 0,52,53
 188 -170 188 -170 144 -126 c 0,54,55
 100 -82 100 -82 100 -20 c 0,56,57
 100 42 100 42 144 86 c 0,58,59
 188 130 188 130 250 130 c 0,60,61
 312 130 312 130 356 86 c 0,62,63
 400 42 400 42 400 -20 c 0,48,49
750 680 m 0,64,65
 750 618 750 618 706 574 c 0,66,67
 662 530 662 530 600 530 c 0,68,69
 538 530 538 530 494 574 c 0,70,71
 450 618 450 618 450 680 c 0,72,73
 450 742 450 742 494 786 c 0,74,75
 538 830 538 830 600 830 c 0,76,77
 662 830 662 830 706 786 c 0,78,79
 750 742 750 742 750 680 c 0,64,65
700 680 m 0,80,81
 700 721 700 721 671 751 c 0,82,83
 641 780 641 780 600 780 c 0,84,85
 559 780 559 780 529 751 c 0,86,87
 500 721 500 721 500 680 c 0,88,89
 500 639 500 639 529 609 c 0,90,91
 559 580 559 580 600 580 c 0,92,93
 641 580 641 580 671 609 c 0,94,95
 700 639 700 639 700 680 c 0,80,81
750 330 m 0,96,97
 750 268 750 268 706 224 c 0,98,99
 662 180 662 180 600 180 c 0,100,101
 538 180 538 180 494 224 c 0,102,103
 450 268 450 268 450 330 c 0,104,105
 450 392 450 392 494 436 c 0,106,107
 538 480 538 480 600 480 c 0,108,109
 662 480 662 480 706 436 c 0,110,111
 750 392 750 392 750 330 c 0,96,97
750 -20 m 0,112,113
 750 -82 750 -82 706 -126 c 0,114,115
 662 -170 662 -170 600 -170 c 0,116,117
 538 -170 538 -170 494 -126 c 0,118,119
 450 -82 450 -82 450 -20 c 0,120,121
 450 42 450 42 494 86 c 0,122,123
 538 130 538 130 600 130 c 0,124,125
 662 130 662 130 706 86 c 0,126,127
 750 42 750 42 750 -20 c 0,112,113
700 -20 m 0,128,129
 700 21 700 21 671 51 c 0,130,131
 641 80 641 80 600 80 c 0,132,133
 559 80 559 80 529 51 c 0,134,135
 500 21 500 21 500 -20 c 0,136,137
 500 -61 500 -61 529 -91 c 0,138,139
 559 -120 559 -120 600 -120 c 0,140,141
 641 -120 641 -120 671 -91 c 0,142,143
 700 -61 700 -61 700 -20 c 0,128,129
EndSplineSet
Validated: 1
EndChar

StartChar: uni2817
Encoding: 10263 10263 33
Width: 850
LayerCount: 2
Fore
SplineSet
400 680 m 0,0,1
 400 618 400 618 356 574 c 0,2,3
 312 530 312 530 250 530 c 0,4,5
 188 530 188 530 144 574 c 0,6,7
 100 618 100 618 100 680 c 0,8,9
 100 742 100 742 144 786 c 0,10,11
 188 830 188 830 250 830 c 0,12,13
 312 830 312 830 356 786 c 0,14,15
 400 742 400 742 400 680 c 0,0,1
400 330 m 0,16,17
 400 268 400 268 356 224 c 0,18,19
 312 180 312 180 250 180 c 0,20,21
 188 180 188 180 144 224 c 0,22,23
 100 268 100 268 100 330 c 0,24,25
 100 392 100 392 144 436 c 0,26,27
 188 480 188 480 250 480 c 0,28,29
 312 480 312 480 356 436 c 0,30,31
 400 392 400 392 400 330 c 0,16,17
400 -20 m 0,32,33
 400 -82 400 -82 356 -126 c 0,34,35
 312 -170 312 -170 250 -170 c 0,36,37
 188 -170 188 -170 144 -126 c 0,38,39
 100 -82 100 -82 100 -20 c 0,40,41
 100 42 100 42 144 86 c 0,42,43
 188 130 188 130 250 130 c 0,44,45
 312 130 312 130 356 86 c 0,46,47
 400 42 400 42 400 -20 c 0,32,33
750 680 m 0,48,49
 750 618 750 618 706 574 c 0,50,51
 662 530 662 530 600 530 c 0,52,53
 538 530 538 530 494 574 c 0,54,55
 450 618 450 618 450 680 c 0,56,57
 450 742 450 742 494 786 c 0,58,59
 538 830 538 830 600 830 c 0,60,61
 662 830 662 830 706 786 c 0,62,63
 750 742 750 742 750 680 c 0,48,49
700 680 m 0,64,65
 700 721 700 721 671 751 c 0,66,67
 641 780 641 780 600 780 c 0,68,69
 559 780 559 780 529 751 c 0,70,71
 500 721 500 721 500 680 c 0,72,73
 500 639 500 639 529 609 c 0,74,75
 559 580 559 580 600 580 c 0,76,77
 641 580 641 580 671 609 c 0,78,79
 700 639 700 639 700 680 c 0,64,65
750 330 m 0,80,81
 750 268 750 268 706 224 c 0,82,83
 662 180 662 180 600 180 c 0,84,85
 538 180 538 180 494 224 c 0,86,87
 450 268 450 268 450 330 c 0,88,89
 450 392 450 392 494 436 c 0,90,91
 538 480 538 480 600 480 c 0,92,93
 662 480 662 480 706 436 c 0,94,95
 750 392 750 392 750 330 c 0,80,81
750 -20 m 0,96,97
 750 -82 750 -82 706 -126 c 0,98,99
 662 -170 662 -170 600 -170 c 0,100,101
 538 -170 538 -170 494 -126 c 0,102,103
 450 -82 450 -82 450 -20 c 0,104,105
 450 42 450 42 494 86 c 0,106,107
 538 130 538 130 600 130 c 0,108,109
 662 130 662 130 706 86 c 0,110,111
 750 42 750 42 750 -20 c 0,96,97
700 -20 m 0,112,113
 700 21 700 21 671 51 c 0,114,115
 641 80 641 80 600 80 c 0,116,117
 559 80 559 80 529 51 c 0,118,119
 500 21 500 21 500 -20 c 0,120,121
 500 -61 500 -61 529 -91 c 0,122,123
 559 -120 559 -120 600 -120 c 0,124,125
 641 -120 641 -120 671 -91 c 0,126,127
 700 -61 700 -61 700 -20 c 0,112,113
EndSplineSet
Validated: 1
EndChar

StartChar: uni2818
Encoding: 10264 10264 34
Width: 850
LayerCount: 2
Fore
SplineSet
400 680 m 0,0,1
 400 618 400 618 356 574 c 0,2,3
 312 530 312 530 250 530 c 0,4,5
 188 530 188 530 144 574 c 0,6,7
 100 618 100 618 100 680 c 0,8,9
 100 742 100 742 144 786 c 0,10,11
 188 830 188 830 250 830 c 0,12,13
 312 830 312 830 356 786 c 0,14,15
 400 742 400 742 400 680 c 0,0,1
350 680 m 0,16,17
 350 721 350 721 321 751 c 0,18,19
 291 780 291 780 250 780 c 0,20,21
 209 780 209 780 179 751 c 0,22,23
 150 721 150 721 150 680 c 0,24,25
 150 639 150 639 179 609 c 0,26,27
 209 580 209 580 250 580 c 0,28,29
 291 580 291 580 321 609 c 0,30,31
 350 639 350 639 350 680 c 0,16,17
400 330 m 0,32,33
 400 268 400 268 356 224 c 0,34,35
 312 180 312 180 250 180 c 0,36,37
 188 180 188 180 144 224 c 0,38,39
 100 268 100 268 100 330 c 0,40,41
 100 392 100 392 144 436 c 0,42,43
 188 480 188 480 250 480 c 0,44,45
 312 480 312 480 356 436 c 0,46,47
 400 392 400 392 400 330 c 0,32,33
350 330 m 0,48,49
 350 371 350 371 321 401 c 0,50,51
 291 430 291 430 250 430 c 0,52,53
 209 430 209 430 179 401 c 0,54,55
 150 371 150 371 150 330 c 0,56,57
 150 289 150 289 179 259 c 0,58,59
 209 230 209 230 250 230 c 0,60,61
 291 230 291 230 321 259 c 0,62,63
 350 289 350 289 350 330 c 0,48,49
400 -20 m 0,64,65
 400 -82 400 -82 356 -126 c 0,66,67
 312 -170 312 -170 250 -170 c 0,68,69
 188 -170 188 -170 144 -126 c 0,70,71
 100 -82 100 -82 100 -20 c 0,72,73
 100 42 100 42 144 86 c 0,74,75
 188 130 188 130 250 130 c 0,76,77
 312 130 312 130 356 86 c 0,78,79
 400 42 400 42 400 -20 c 0,64,65
350 -20 m 0,80,81
 350 21 350 21 321 51 c 0,82,83
 291 80 291 80 250 80 c 0,84,85
 209 80 209 80 179 51 c 0,86,87
 150 21 150 21 150 -20 c 0,88,89
 150 -61 150 -61 179 -91 c 0,90,91
 209 -120 209 -120 250 -120 c 0,92,93
 291 -120 291 -120 321 -91 c 0,94,95
 350 -61 350 -61 350 -20 c 0,80,81
750 680 m 0,96,97
 750 618 750 618 706 574 c 0,98,99
 662 530 662 530 600 530 c 0,100,101
 538 530 538 530 494 574 c 0,102,103
 450 618 450 618 450 680 c 0,104,105
 450 742 450 742 494 786 c 0,106,107
 538 830 538 830 600 830 c 0,108,109
 662 830 662 830 706 786 c 0,110,111
 750 742 750 742 750 680 c 0,96,97
750 330 m 0,112,113
 750 268 750 268 706 224 c 0,114,115
 662 180 662 180 600 180 c 0,116,117
 538 180 538 180 494 224 c 0,118,119
 450 268 450 268 450 330 c 0,120,121
 450 392 450 392 494 436 c 0,122,123
 538 480 538 480 600 480 c 0,124,125
 662 480 662 480 706 436 c 0,126,127
 750 392 750 392 750 330 c 0,112,113
750 -20 m 0,128,129
 750 -82 750 -82 706 -126 c 0,130,131
 662 -170 662 -170 600 -170 c 0,132,133
 538 -170 538 -170 494 -126 c 0,134,135
 450 -82 450 -82 450 -20 c 0,136,137
 450 42 450 42 494 86 c 0,138,139
 538 130 538 130 600 130 c 0,140,141
 662 130 662 130 706 86 c 0,142,143
 750 42 750 42 750 -20 c 0,128,129
700 -20 m 0,144,145
 700 21 700 21 671 51 c 0,146,147
 641 80 641 80 600 80 c 0,148,149
 559 80 559 80 529 51 c 0,150,151
 500 21 500 21 500 -20 c 0,152,153
 500 -61 500 -61 529 -91 c 0,154,155
 559 -120 559 -120 600 -120 c 0,156,157
 641 -120 641 -120 671 -91 c 0,158,159
 700 -61 700 -61 700 -20 c 0,144,145
EndSplineSet
Validated: 1
EndChar

StartChar: uni2819
Encoding: 10265 10265 35
Width: 850
LayerCount: 2
Fore
SplineSet
400 680 m 0,0,1
 400 618 400 618 356 574 c 0,2,3
 312 530 312 530 250 530 c 0,4,5
 188 530 188 530 144 574 c 0,6,7
 100 618 100 618 100 680 c 0,8,9
 100 742 100 742 144 786 c 0,10,11
 188 830 188 830 250 830 c 0,12,13
 312 830 312 830 356 786 c 0,14,15
 400 742 400 742 400 680 c 0,0,1
400 330 m 0,16,17
 400 268 400 268 356 224 c 0,18,19
 312 180 312 180 250 180 c 0,20,21
 188 180 188 180 144 224 c 0,22,23
 100 268 100 268 100 330 c 0,24,25
 100 392 100 392 144 436 c 0,26,27
 188 480 188 480 250 480 c 0,28,29
 312 480 312 480 356 436 c 0,30,31
 400 392 400 392 400 330 c 0,16,17
350 330 m 0,32,33
 350 371 350 371 321 401 c 0,34,35
 291 430 291 430 250 430 c 0,36,37
 209 430 209 430 179 401 c 0,38,39
 150 371 150 371 150 330 c 0,40,41
 150 289 150 289 179 259 c 0,42,43
 209 230 209 230 250 230 c 0,44,45
 291 230 291 230 321 259 c 0,46,47
 350 289 350 289 350 330 c 0,32,33
400 -20 m 0,48,49
 400 -82 400 -82 356 -126 c 0,50,51
 312 -170 312 -170 250 -170 c 0,52,53
 188 -170 188 -170 144 -126 c 0,54,55
 100 -82 100 -82 100 -20 c 0,56,57
 100 42 100 42 144 86 c 0,58,59
 188 130 188 130 250 130 c 0,60,61
 312 130 312 130 356 86 c 0,62,63
 400 42 400 42 400 -20 c 0,48,49
350 -20 m 0,64,65
 350 21 350 21 321 51 c 0,66,67
 291 80 291 80 250 80 c 0,68,69
 209 80 209 80 179 51 c 0,70,71
 150 21 150 21 150 -20 c 0,72,73
 150 -61 150 -61 179 -91 c 0,74,75
 209 -120 209 -120 250 -120 c 0,76,77
 291 -120 291 -120 321 -91 c 0,78,79
 350 -61 350 -61 350 -20 c 0,64,65
750 680 m 0,80,81
 750 618 750 618 706 574 c 0,82,83
 662 530 662 530 600 530 c 0,84,85
 538 530 538 530 494 574 c 0,86,87
 450 618 450 618 450 680 c 0,88,89
 450 742 450 742 494 786 c 0,90,91
 538 830 538 830 600 830 c 0,92,93
 662 830 662 830 706 786 c 0,94,95
 750 742 750 742 750 680 c 0,80,81
750 330 m 0,96,97
 750 268 750 268 706 224 c 0,98,99
 662 180 662 180 600 180 c 0,100,101
 538 180 538 180 494 224 c 0,102,103
 450 268 450 268 450 330 c 0,104,105
 450 392 450 392 494 436 c 0,106,107
 538 480 538 480 600 480 c 0,108,109
 662 480 662 480 706 436 c 0,110,111
 750 392 750 392 750 330 c 0,96,97
750 -20 m 0,112,113
 750 -82 750 -82 706 -126 c 0,114,115
 662 -170 662 -170 600 -170 c 0,116,117
 538 -170 538 -170 494 -126 c 0,118,119
 450 -82 450 -82 450 -20 c 0,120,121
 450 42 450 42 494 86 c 0,122,123
 538 130 538 130 600 130 c 0,124,125
 662 130 662 130 706 86 c 0,126,127
 750 42 750 42 750 -20 c 0,112,113
700 -20 m 0,128,129
 700 21 700 21 671 51 c 0,130,131
 641 80 641 80 600 80 c 0,132,133
 559 80 559 80 529 51 c 0,134,135
 500 21 500 21 500 -20 c 0,136,137
 500 -61 500 -61 529 -91 c 0,138,139
 559 -120 559 -120 600 -120 c 0,140,141
 641 -120 641 -120 671 -91 c 0,142,143
 700 -61 700 -61 700 -20 c 0,128,129
EndSplineSet
Validated: 1
EndChar

StartChar: uni281a
Encoding: 10266 10266 36
Width: 850
LayerCount: 2
Fore
SplineSet
400 680 m 0,0,1
 400 618 400 618 356 574 c 0,2,3
 312 530 312 530 250 530 c 0,4,5
 188 530 188 530 144 574 c 0,6,7
 100 618 100 618 100 680 c 0,8,9
 100 742 100 742 144 786 c 0,10,11
 188 830 188 830 250 830 c 0,12,13
 312 830 312 830 356 786 c 0,14,15
 400 742 400 742 400 680 c 0,0,1
350 680 m 0,16,17
 350 721 350 721 321 751 c 0,18,19
 291 780 291 780 250 780 c 0,20,21
 209 780 209 780 179 751 c 0,22,23
 150 721 150 721 150 680 c 0,24,25
 150 639 150 639 179 609 c 0,26,27
 209 580 209 580 250 580 c 0,28,29
 291 580 291 580 321 609 c 0,30,31
 350 639 350 639 350 680 c 0,16,17
400 330 m 0,32,33
 400 268 400 268 356 224 c 0,34,35
 312 180 312 180 250 180 c 0,36,37
 188 180 188 180 144 224 c 0,38,39
 100 268 100 268 100 330 c 0,40,41
 100 392 100 392 144 436 c 0,42,43
 188 480 188 480 250 480 c 0,44,45
 312 480 312 480 356 436 c 0,46,47
 400 392 400 392 400 330 c 0,32,33
400 -20 m 0,48,49
 400 -82 400 -82 356 -126 c 0,50,51
 312 -170 312 -170 250 -170 c 0,52,53
 188 -170 188 -170 144 -126 c 0,54,55
 100 -82 100 -82 100 -20 c 0,56,57
 100 42 100 42 144 86 c 0,58,59
 188 130 188 130 250 130 c 0,60,61
 312 130 312 130 356 86 c 0,62,63
 400 42 400 42 400 -20 c 0,48,49
350 -20 m 0,64,65
 350 21 350 21 321 51 c 0,66,67
 291 80 291 80 250 80 c 0,68,69
 209 80 209 80 179 51 c 0,70,71
 150 21 150 21 150 -20 c 0,72,73
 150 -61 150 -61 179 -91 c 0,74,75
 209 -120 209 -120 250 -120 c 0,76,77
 291 -120 291 -120 321 -91 c 0,78,79
 350 -61 350 -61 350 -20 c 0,64,65
750 680 m 0,80,81
 750 618 750 618 706 574 c 0,82,83
 662 530 662 530 600 530 c 0,84,85
 538 530 538 530 494 574 c 0,86,87
 450 618 450 618 450 680 c 0,88,89
 450 742 450 742 494 786 c 0,90,91
 538 830 538 830 600 830 c 0,92,93
 662 830 662 830 706 786 c 0,94,95
 750 742 750 742 750 680 c 0,80,81
750 330 m 0,96,97
 750 268 750 268 706 224 c 0,98,99
 662 180 662 180 600 180 c 0,100,101
 538 180 538 180 494 224 c 0,102,103
 450 268 450 268 450 330 c 0,104,105
 450 392 450 392 494 436 c 0,106,107
 538 480 538 480 600 480 c 0,108,109
 662 480 662 480 706 436 c 0,110,111
 750 392 750 392 750 330 c 0,96,97
750 -20 m 0,112,113
 750 -82 750 -82 706 -126 c 0,114,115
 662 -170 662 -170 600 -170 c 0,116,117
 538 -170 538 -170 494 -126 c 0,118,119
 450 -82 450 -82 450 -20 c 0,120,121
 450 42 450 42 494 86 c 0,122,123
 538 130 538 130 600 130 c 0,124,125
 662 130 662 130 706 86 c 0,126,127
 750 42 750 42 750 -20 c 0,112,113
700 -20 m 0,128,129
 700 21 700 21 671 51 c 0,130,131
 641 80 641 80 600 80 c 0,132,133
 559 80 559 80 529 51 c 0,134,135
 500 21 500 21 500 -20 c 0,136,137
 500 -61 500 -61 529 -91 c 0,138,139
 559 -120 559 -120 600 -120 c 0,140,141
 641 -120 641 -120 671 -91 c 0,142,143
 700 -61 700 -61 700 -20 c 0,128,129
EndSplineSet
Validated: 1
EndChar

StartChar: uni281b
Encoding: 10267 10267 37
Width: 850
LayerCount: 2
Fore
SplineSet
400 680 m 0,0,1
 400 618 400 618 356 574 c 0,2,3
 312 530 312 530 250 530 c 0,4,5
 188 530 188 530 144 574 c 0,6,7
 100 618 100 618 100 680 c 0,8,9
 100 742 100 742 144 786 c 0,10,11
 188 830 188 830 250 830 c 0,12,13
 312 830 312 830 356 786 c 0,14,15
 400 742 400 742 400 680 c 0,0,1
400 330 m 0,16,17
 400 268 400 268 356 224 c 0,18,19
 312 180 312 180 250 180 c 0,20,21
 188 180 188 180 144 224 c 0,22,23
 100 268 100 268 100 330 c 0,24,25
 100 392 100 392 144 436 c 0,26,27
 188 480 188 480 250 480 c 0,28,29
 312 480 312 480 356 436 c 0,30,31
 400 392 400 392 400 330 c 0,16,17
400 -20 m 0,32,33
 400 -82 400 -82 356 -126 c 0,34,35
 312 -170 312 -170 250 -170 c 0,36,37
 188 -170 188 -170 144 -126 c 0,38,39
 100 -82 100 -82 100 -20 c 0,40,41
 100 42 100 42 144 86 c 0,42,43
 188 130 188 130 250 130 c 0,44,45
 312 130 312 130 356 86 c 0,46,47
 400 42 400 42 400 -20 c 0,32,33
350 -20 m 0,48,49
 350 21 350 21 321 51 c 0,50,51
 291 80 291 80 250 80 c 0,52,53
 209 80 209 80 179 51 c 0,54,55
 150 21 150 21 150 -20 c 0,56,57
 150 -61 150 -61 179 -91 c 0,58,59
 209 -120 209 -120 250 -120 c 0,60,61
 291 -120 291 -120 321 -91 c 0,62,63
 350 -61 350 -61 350 -20 c 0,48,49
750 680 m 0,64,65
 750 618 750 618 706 574 c 0,66,67
 662 530 662 530 600 530 c 0,68,69
 538 530 538 530 494 574 c 0,70,71
 450 618 450 618 450 680 c 0,72,73
 450 742 450 742 494 786 c 0,74,75
 538 830 538 830 600 830 c 0,76,77
 662 830 662 830 706 786 c 0,78,79
 750 742 750 742 750 680 c 0,64,65
750 330 m 0,80,81
 750 268 750 268 706 224 c 0,82,83
 662 180 662 180 600 180 c 0,84,85
 538 180 538 180 494 224 c 0,86,87
 450 268 450 268 450 330 c 0,88,89
 450 392 450 392 494 436 c 0,90,91
 538 480 538 480 600 480 c 0,92,93
 662 480 662 480 706 436 c 0,94,95
 750 392 750 392 750 330 c 0,80,81
750 -20 m 0,96,97
 750 -82 750 -82 706 -126 c 0,98,99
 662 -170 662 -170 600 -170 c 0,100,101
 538 -170 538 -170 494 -126 c 0,102,103
 450 -82 450 -82 450 -20 c 0,104,105
 450 42 450 42 494 86 c 0,106,107
 538 130 538 130 600 130 c 0,108,109
 662 130 662 130 706 86 c 0,110,111
 750 42 750 42 750 -20 c 0,96,97
700 -20 m 0,112,113
 700 21 700 21 671 51 c 0,114,115
 641 80 641 80 600 80 c 0,116,117
 559 80 559 80 529 51 c 0,118,119
 500 21 500 21 500 -20 c 0,120,121
 500 -61 500 -61 529 -91 c 0,122,123
 559 -120 559 -120 600 -120 c 0,124,125
 641 -120 641 -120 671 -91 c 0,126,127
 700 -61 700 -61 700 -20 c 0,112,113
EndSplineSet
Validated: 1
EndChar

StartChar: uni281c
Encoding: 10268 10268 38
Width: 850
LayerCount: 2
Fore
SplineSet
400 680 m 0,0,1
 400 618 400 618 356 574 c 0,2,3
 312 530 312 530 250 530 c 0,4,5
 188 530 188 530 144 574 c 0,6,7
 100 618 100 618 100 680 c 0,8,9
 100 742 100 742 144 786 c 0,10,11
 188 830 188 830 250 830 c 0,12,13
 312 830 312 830 356 786 c 0,14,15
 400 742 400 742 400 680 c 0,0,1
350 680 m 0,16,17
 350 721 350 721 321 751 c 0,18,19
 291 780 291 780 250 780 c 0,20,21
 209 780 209 780 179 751 c 0,22,23
 150 721 150 721 150 680 c 0,24,25
 150 639 150 639 179 609 c 0,26,27
 209 580 209 580 250 580 c 0,28,29
 291 580 291 580 321 609 c 0,30,31
 350 639 350 639 350 680 c 0,16,17
400 330 m 0,32,33
 400 268 400 268 356 224 c 0,34,35
 312 180 312 180 250 180 c 0,36,37
 188 180 188 180 144 224 c 0,38,39
 100 268 100 268 100 330 c 0,40,41
 100 392 100 392 144 436 c 0,42,43
 188 480 188 480 250 480 c 0,44,45
 312 480 312 480 356 436 c 0,46,47
 400 392 400 392 400 330 c 0,32,33
350 330 m 0,48,49
 350 371 350 371 321 401 c 0,50,51
 291 430 291 430 250 430 c 0,52,53
 209 430 209 430 179 401 c 0,54,55
 150 371 150 371 150 330 c 0,56,57
 150 289 150 289 179 259 c 0,58,59
 209 230 209 230 250 230 c 0,60,61
 291 230 291 230 321 259 c 0,62,63
 350 289 350 289 350 330 c 0,48,49
400 -20 m 0,64,65
 400 -82 400 -82 356 -126 c 0,66,67
 312 -170 312 -170 250 -170 c 0,68,69
 188 -170 188 -170 144 -126 c 0,70,71
 100 -82 100 -82 100 -20 c 0,72,73
 100 42 100 42 144 86 c 0,74,75
 188 130 188 130 250 130 c 0,76,77
 312 130 312 130 356 86 c 0,78,79
 400 42 400 42 400 -20 c 0,64,65
750 680 m 0,80,81
 750 618 750 618 706 574 c 0,82,83
 662 530 662 530 600 530 c 0,84,85
 538 530 538 530 494 574 c 0,86,87
 450 618 450 618 450 680 c 0,88,89
 450 742 450 742 494 786 c 0,90,91
 538 830 538 830 600 830 c 0,92,93
 662 830 662 830 706 786 c 0,94,95
 750 742 750 742 750 680 c 0,80,81
750 330 m 0,96,97
 750 268 750 268 706 224 c 0,98,99
 662 180 662 180 600 180 c 0,100,101
 538 180 538 180 494 224 c 0,102,103
 450 268 450 268 450 330 c 0,104,105
 450 392 450 392 494 436 c 0,106,107
 538 480 538 480 600 480 c 0,108,109
 662 480 662 480 706 436 c 0,110,111
 750 392 750 392 750 330 c 0,96,97
750 -20 m 0,112,113
 750 -82 750 -82 706 -126 c 0,114,115
 662 -170 662 -170 600 -170 c 0,116,117
 538 -170 538 -170 494 -126 c 0,118,119
 450 -82 450 -82 450 -20 c 0,120,121
 450 42 450 42 494 86 c 0,122,123
 538 130 538 130 600 130 c 0,124,125
 662 130 662 130 706 86 c 0,126,127
 750 42 750 42 750 -20 c 0,112,113
700 -20 m 0,128,129
 700 21 700 21 671 51 c 0,130,131
 641 80 641 80 600 80 c 0,132,133
 559 80 559 80 529 51 c 0,134,135
 500 21 500 21 500 -20 c 0,136,137
 500 -61 500 -61 529 -91 c 0,138,139
 559 -120 559 -120 600 -120 c 0,140,141
 641 -120 641 -120 671 -91 c 0,142,143
 700 -61 700 -61 700 -20 c 0,128,129
EndSplineSet
Validated: 1
EndChar

StartChar: uni281d
Encoding: 10269 10269 39
Width: 850
LayerCount: 2
Fore
SplineSet
400 680 m 0,0,1
 400 618 400 618 356 574 c 0,2,3
 312 530 312 530 250 530 c 0,4,5
 188 530 188 530 144 574 c 0,6,7
 100 618 100 618 100 680 c 0,8,9
 100 742 100 742 144 786 c 0,10,11
 188 830 188 830 250 830 c 0,12,13
 312 830 312 830 356 786 c 0,14,15
 400 742 400 742 400 680 c 0,0,1
400 330 m 0,16,17
 400 268 400 268 356 224 c 0,18,19
 312 180 312 180 250 180 c 0,20,21
 188 180 188 180 144 224 c 0,22,23
 100 268 100 268 100 330 c 0,24,25
 100 392 100 392 144 436 c 0,26,27
 188 480 188 480 250 480 c 0,28,29
 312 480 312 480 356 436 c 0,30,31
 400 392 400 392 400 330 c 0,16,17
350 330 m 0,32,33
 350 371 350 371 321 401 c 0,34,35
 291 430 291 430 250 430 c 0,36,37
 209 430 209 430 179 401 c 0,38,39
 150 371 150 371 150 330 c 0,40,41
 150 289 150 289 179 259 c 0,42,43
 209 230 209 230 250 230 c 0,44,45
 291 230 291 230 321 259 c 0,46,47
 350 289 350 289 350 330 c 0,32,33
400 -20 m 0,48,49
 400 -82 400 -82 356 -126 c 0,50,51
 312 -170 312 -170 250 -170 c 0,52,53
 188 -170 188 -170 144 -126 c 0,54,55
 100 -82 100 -82 100 -20 c 0,56,57
 100 42 100 42 144 86 c 0,58,59
 188 130 188 130 250 130 c 0,60,61
 312 130 312 130 356 86 c 0,62,63
 400 42 400 42 400 -20 c 0,48,49
750 680 m 0,64,65
 750 618 750 618 706 574 c 0,66,67
 662 530 662 530 600 530 c 0,68,69
 538 530 538 530 494 574 c 0,70,71
 450 618 450 618 450 680 c 0,72,73
 450 742 450 742 494 786 c 0,74,75
 538 830 538 830 600 830 c 0,76,77
 662 830 662 830 706 786 c 0,78,79
 750 742 750 742 750 680 c 0,64,65
750 330 m 0,80,81
 750 268 750 268 706 224 c 0,82,83
 662 180 662 180 600 180 c 0,84,85
 538 180 538 180 494 224 c 0,86,87
 450 268 450 268 450 330 c 0,88,89
 450 392 450 392 494 436 c 0,90,91
 538 480 538 480 600 480 c 0,92,93
 662 480 662 480 706 436 c 0,94,95
 750 392 750 392 750 330 c 0,80,81
750 -20 m 0,96,97
 750 -82 750 -82 706 -126 c 0,98,99
 662 -170 662 -170 600 -170 c 0,100,101
 538 -170 538 -170 494 -126 c 0,102,103
 450 -82 450 -82 450 -20 c 0,104,105
 450 42 450 42 494 86 c 0,106,107
 538 130 538 130 600 130 c 0,108,109
 662 130 662 130 706 86 c 0,110,111
 750 42 750 42 750 -20 c 0,96,97
700 -20 m 0,112,113
 700 21 700 21 671 51 c 0,114,115
 641 80 641 80 600 80 c 0,116,117
 559 80 559 80 529 51 c 0,118,119
 500 21 500 21 500 -20 c 0,120,121
 500 -61 500 -61 529 -91 c 0,122,123
 559 -120 559 -120 600 -120 c 0,124,125
 641 -120 641 -120 671 -91 c 0,126,127
 700 -61 700 -61 700 -20 c 0,112,113
EndSplineSet
Validated: 1
EndChar

StartChar: uni281e
Encoding: 10270 10270 40
Width: 850
LayerCount: 2
Fore
SplineSet
400 680 m 0,0,1
 400 618 400 618 356 574 c 0,2,3
 312 530 312 530 250 530 c 0,4,5
 188 530 188 530 144 574 c 0,6,7
 100 618 100 618 100 680 c 0,8,9
 100 742 100 742 144 786 c 0,10,11
 188 830 188 830 250 830 c 0,12,13
 312 830 312 830 356 786 c 0,14,15
 400 742 400 742 400 680 c 0,0,1
350 680 m 0,16,17
 350 721 350 721 321 751 c 0,18,19
 291 780 291 780 250 780 c 0,20,21
 209 780 209 780 179 751 c 0,22,23
 150 721 150 721 150 680 c 0,24,25
 150 639 150 639 179 609 c 0,26,27
 209 580 209 580 250 580 c 0,28,29
 291 580 291 580 321 609 c 0,30,31
 350 639 350 639 350 680 c 0,16,17
400 330 m 0,32,33
 400 268 400 268 356 224 c 0,34,35
 312 180 312 180 250 180 c 0,36,37
 188 180 188 180 144 224 c 0,38,39
 100 268 100 268 100 330 c 0,40,41
 100 392 100 392 144 436 c 0,42,43
 188 480 188 480 250 480 c 0,44,45
 312 480 312 480 356 436 c 0,46,47
 400 392 400 392 400 330 c 0,32,33
400 -20 m 0,48,49
 400 -82 400 -82 356 -126 c 0,50,51
 312 -170 312 -170 250 -170 c 0,52,53
 188 -170 188 -170 144 -126 c 0,54,55
 100 -82 100 -82 100 -20 c 0,56,57
 100 42 100 42 144 86 c 0,58,59
 188 130 188 130 250 130 c 0,60,61
 312 130 312 130 356 86 c 0,62,63
 400 42 400 42 400 -20 c 0,48,49
750 680 m 0,64,65
 750 618 750 618 706 574 c 0,66,67
 662 530 662 530 600 530 c 0,68,69
 538 530 538 530 494 574 c 0,70,71
 450 618 450 618 450 680 c 0,72,73
 450 742 450 742 494 786 c 0,74,75
 538 830 538 830 600 830 c 0,76,77
 662 830 662 830 706 786 c 0,78,79
 750 742 750 742 750 680 c 0,64,65
750 330 m 0,80,81
 750 268 750 268 706 224 c 0,82,83
 662 180 662 180 600 180 c 0,84,85
 538 180 538 180 494 224 c 0,86,87
 450 268 450 268 450 330 c 0,88,89
 450 392 450 392 494 436 c 0,90,91
 538 480 538 480 600 480 c 0,92,93
 662 480 662 480 706 436 c 0,94,95
 750 392 750 392 750 330 c 0,80,81
750 -20 m 0,96,97
 750 -82 750 -82 706 -126 c 0,98,99
 662 -170 662 -170 600 -170 c 0,100,101
 538 -170 538 -170 494 -126 c 0,102,103
 450 -82 450 -82 450 -20 c 0,104,105
 450 42 450 42 494 86 c 0,106,107
 538 130 538 130 600 130 c 0,108,109
 662 130 662 130 706 86 c 0,110,111
 750 42 750 42 750 -20 c 0,96,97
700 -20 m 0,112,113
 700 21 700 21 671 51 c 0,114,115
 641 80 641 80 600 80 c 0,116,117
 559 80 559 80 529 51 c 0,118,119
 500 21 500 21 500 -20 c 0,120,121
 500 -61 500 -61 529 -91 c 0,122,123
 559 -120 559 -120 600 -120 c 0,124,125
 641 -120 641 -120 671 -91 c 0,126,127
 700 -61 700 -61 700 -20 c 0,112,113
EndSplineSet
Validated: 1
EndChar

StartChar: uni281f
Encoding: 10271 10271 41
Width: 850
LayerCount: 2
Fore
SplineSet
400 680 m 0,0,1
 400 618 400 618 356 574 c 0,2,3
 312 530 312 530 250 530 c 0,4,5
 188 530 188 530 144 574 c 0,6,7
 100 618 100 618 100 680 c 0,8,9
 100 742 100 742 144 786 c 0,10,11
 188 830 188 830 250 830 c 0,12,13
 312 830 312 830 356 786 c 0,14,15
 400 742 400 742 400 680 c 0,0,1
400 330 m 0,16,17
 400 268 400 268 356 224 c 0,18,19
 312 180 312 180 250 180 c 0,20,21
 188 180 188 180 144 224 c 0,22,23
 100 268 100 268 100 330 c 0,24,25
 100 392 100 392 144 436 c 0,26,27
 188 480 188 480 250 480 c 0,28,29
 312 480 312 480 356 436 c 0,30,31
 400 392 400 392 400 330 c 0,16,17
400 -20 m 0,32,33
 400 -82 400 -82 356 -126 c 0,34,35
 312 -170 312 -170 250 -170 c 0,36,37
 188 -170 188 -170 144 -126 c 0,38,39
 100 -82 100 -82 100 -20 c 0,40,41
 100 42 100 42 144 86 c 0,42,43
 188 130 188 130 250 130 c 0,44,45
 312 130 312 130 356 86 c 0,46,47
 400 42 400 42 400 -20 c 0,32,33
750 680 m 0,48,49
 750 618 750 618 706 574 c 0,50,51
 662 530 662 530 600 530 c 0,52,53
 538 530 538 530 494 574 c 0,54,55
 450 618 450 618 450 680 c 0,56,57
 450 742 450 742 494 786 c 0,58,59
 538 830 538 830 600 830 c 0,60,61
 662 830 662 830 706 786 c 0,62,63
 750 742 750 742 750 680 c 0,48,49
750 330 m 0,64,65
 750 268 750 268 706 224 c 0,66,67
 662 180 662 180 600 180 c 0,68,69
 538 180 538 180 494 224 c 0,70,71
 450 268 450 268 450 330 c 0,72,73
 450 392 450 392 494 436 c 0,74,75
 538 480 538 480 600 480 c 0,76,77
 662 480 662 480 706 436 c 0,78,79
 750 392 750 392 750 330 c 0,64,65
750 -20 m 0,80,81
 750 -82 750 -82 706 -126 c 0,82,83
 662 -170 662 -170 600 -170 c 0,84,85
 538 -170 538 -170 494 -126 c 0,86,87
 450 -82 450 -82 450 -20 c 0,88,89
 450 42 450 42 494 86 c 0,90,91
 538 130 538 130 600 130 c 0,92,93
 662 130 662 130 706 86 c 0,94,95
 750 42 750 42 750 -20 c 0,80,81
700 -20 m 0,96,97
 700 21 700 21 671 51 c 0,98,99
 641 80 641 80 600 80 c 0,100,101
 559 80 559 80 529 51 c 0,102,103
 500 21 500 21 500 -20 c 0,104,105
 500 -61 500 -61 529 -91 c 0,106,107
 559 -120 559 -120 600 -120 c 0,108,109
 641 -120 641 -120 671 -91 c 0,110,111
 700 -61 700 -61 700 -20 c 0,96,97
EndSplineSet
Validated: 1
EndChar

StartChar: uni2820
Encoding: 10272 10272 42
Width: 850
LayerCount: 2
Fore
SplineSet
400 680 m 0,0,1
 400 618 400 618 356 574 c 0,2,3
 312 530 312 530 250 530 c 0,4,5
 188 530 188 530 144 574 c 0,6,7
 100 618 100 618 100 680 c 0,8,9
 100 742 100 742 144 786 c 0,10,11
 188 830 188 830 250 830 c 0,12,13
 312 830 312 830 356 786 c 0,14,15
 400 742 400 742 400 680 c 0,0,1
350 680 m 0,16,17
 350 721 350 721 321 751 c 0,18,19
 291 780 291 780 250 780 c 0,20,21
 209 780 209 780 179 751 c 0,22,23
 150 721 150 721 150 680 c 0,24,25
 150 639 150 639 179 609 c 0,26,27
 209 580 209 580 250 580 c 0,28,29
 291 580 291 580 321 609 c 0,30,31
 350 639 350 639 350 680 c 0,16,17
400 330 m 0,32,33
 400 268 400 268 356 224 c 0,34,35
 312 180 312 180 250 180 c 0,36,37
 188 180 188 180 144 224 c 0,38,39
 100 268 100 268 100 330 c 0,40,41
 100 392 100 392 144 436 c 0,42,43
 188 480 188 480 250 480 c 0,44,45
 312 480 312 480 356 436 c 0,46,47
 400 392 400 392 400 330 c 0,32,33
350 330 m 0,48,49
 350 371 350 371 321 401 c 0,50,51
 291 430 291 430 250 430 c 0,52,53
 209 430 209 430 179 401 c 0,54,55
 150 371 150 371 150 330 c 0,56,57
 150 289 150 289 179 259 c 0,58,59
 209 230 209 230 250 230 c 0,60,61
 291 230 291 230 321 259 c 0,62,63
 350 289 350 289 350 330 c 0,48,49
400 -20 m 0,64,65
 400 -82 400 -82 356 -126 c 0,66,67
 312 -170 312 -170 250 -170 c 0,68,69
 188 -170 188 -170 144 -126 c 0,70,71
 100 -82 100 -82 100 -20 c 0,72,73
 100 42 100 42 144 86 c 0,74,75
 188 130 188 130 250 130 c 0,76,77
 312 130 312 130 356 86 c 0,78,79
 400 42 400 42 400 -20 c 0,64,65
350 -20 m 0,80,81
 350 21 350 21 321 51 c 0,82,83
 291 80 291 80 250 80 c 0,84,85
 209 80 209 80 179 51 c 0,86,87
 150 21 150 21 150 -20 c 0,88,89
 150 -61 150 -61 179 -91 c 0,90,91
 209 -120 209 -120 250 -120 c 0,92,93
 291 -120 291 -120 321 -91 c 0,94,95
 350 -61 350 -61 350 -20 c 0,80,81
750 680 m 0,96,97
 750 618 750 618 706 574 c 0,98,99
 662 530 662 530 600 530 c 0,100,101
 538 530 538 530 494 574 c 0,102,103
 450 618 450 618 450 680 c 0,104,105
 450 742 450 742 494 786 c 0,106,107
 538 830 538 830 600 830 c 0,108,109
 662 830 662 830 706 786 c 0,110,111
 750 742 750 742 750 680 c 0,96,97
700 680 m 0,112,113
 700 721 700 721 671 751 c 0,114,115
 641 780 641 780 600 780 c 0,116,117
 559 780 559 780 529 751 c 0,118,119
 500 721 500 721 500 680 c 0,120,121
 500 639 500 639 529 609 c 0,122,123
 559 580 559 580 600 580 c 0,124,125
 641 580 641 580 671 609 c 0,126,127
 700 639 700 639 700 680 c 0,112,113
750 330 m 0,128,129
 750 268 750 268 706 224 c 0,130,131
 662 180 662 180 600 180 c 0,132,133
 538 180 538 180 494 224 c 0,134,135
 450 268 450 268 450 330 c 0,136,137
 450 392 450 392 494 436 c 0,138,139
 538 480 538 480 600 480 c 0,140,141
 662 480 662 480 706 436 c 0,142,143
 750 392 750 392 750 330 c 0,128,129
700 330 m 0,144,145
 700 371 700 371 671 401 c 0,146,147
 641 430 641 430 600 430 c 0,148,149
 559 430 559 430 529 401 c 0,150,151
 500 371 500 371 500 330 c 0,152,153
 500 289 500 289 529 259 c 0,154,155
 559 230 559 230 600 230 c 0,156,157
 641 230 641 230 671 259 c 0,158,159
 700 289 700 289 700 330 c 0,144,145
750 -20 m 0,160,161
 750 -82 750 -82 706 -126 c 0,162,163
 662 -170 662 -170 600 -170 c 0,164,165
 538 -170 538 -170 494 -126 c 0,166,167
 450 -82 450 -82 450 -20 c 0,168,169
 450 42 450 42 494 86 c 0,170,171
 538 130 538 130 600 130 c 0,172,173
 662 130 662 130 706 86 c 0,174,175
 750 42 750 42 750 -20 c 0,160,161
EndSplineSet
Validated: 1
EndChar

StartChar: uni2821
Encoding: 10273 10273 43
Width: 850
LayerCount: 2
Fore
SplineSet
400 680 m 0,0,1
 400 618 400 618 356 574 c 0,2,3
 312 530 312 530 250 530 c 0,4,5
 188 530 188 530 144 574 c 0,6,7
 100 618 100 618 100 680 c 0,8,9
 100 742 100 742 144 786 c 0,10,11
 188 830 188 830 250 830 c 0,12,13
 312 830 312 830 356 786 c 0,14,15
 400 742 400 742 400 680 c 0,0,1
400 330 m 0,16,17
 400 268 400 268 356 224 c 0,18,19
 312 180 312 180 250 180 c 0,20,21
 188 180 188 180 144 224 c 0,22,23
 100 268 100 268 100 330 c 0,24,25
 100 392 100 392 144 436 c 0,26,27
 188 480 188 480 250 480 c 0,28,29
 312 480 312 480 356 436 c 0,30,31
 400 392 400 392 400 330 c 0,16,17
350 330 m 0,32,33
 350 371 350 371 321 401 c 0,34,35
 291 430 291 430 250 430 c 0,36,37
 209 430 209 430 179 401 c 0,38,39
 150 371 150 371 150 330 c 0,40,41
 150 289 150 289 179 259 c 0,42,43
 209 230 209 230 250 230 c 0,44,45
 291 230 291 230 321 259 c 0,46,47
 350 289 350 289 350 330 c 0,32,33
400 -20 m 0,48,49
 400 -82 400 -82 356 -126 c 0,50,51
 312 -170 312 -170 250 -170 c 0,52,53
 188 -170 188 -170 144 -126 c 0,54,55
 100 -82 100 -82 100 -20 c 0,56,57
 100 42 100 42 144 86 c 0,58,59
 188 130 188 130 250 130 c 0,60,61
 312 130 312 130 356 86 c 0,62,63
 400 42 400 42 400 -20 c 0,48,49
350 -20 m 0,64,65
 350 21 350 21 321 51 c 0,66,67
 291 80 291 80 250 80 c 0,68,69
 209 80 209 80 179 51 c 0,70,71
 150 21 150 21 150 -20 c 0,72,73
 150 -61 150 -61 179 -91 c 0,74,75
 209 -120 209 -120 250 -120 c 0,76,77
 291 -120 291 -120 321 -91 c 0,78,79
 350 -61 350 -61 350 -20 c 0,64,65
750 680 m 0,80,81
 750 618 750 618 706 574 c 0,82,83
 662 530 662 530 600 530 c 0,84,85
 538 530 538 530 494 574 c 0,86,87
 450 618 450 618 450 680 c 0,88,89
 450 742 450 742 494 786 c 0,90,91
 538 830 538 830 600 830 c 0,92,93
 662 830 662 830 706 786 c 0,94,95
 750 742 750 742 750 680 c 0,80,81
700 680 m 0,96,97
 700 721 700 721 671 751 c 0,98,99
 641 780 641 780 600 780 c 0,100,101
 559 780 559 780 529 751 c 0,102,103
 500 721 500 721 500 680 c 0,104,105
 500 639 500 639 529 609 c 0,106,107
 559 580 559 580 600 580 c 0,108,109
 641 580 641 580 671 609 c 0,110,111
 700 639 700 639 700 680 c 0,96,97
750 330 m 0,112,113
 750 268 750 268 706 224 c 0,114,115
 662 180 662 180 600 180 c 0,116,117
 538 180 538 180 494 224 c 0,118,119
 450 268 450 268 450 330 c 0,120,121
 450 392 450 392 494 436 c 0,122,123
 538 480 538 480 600 480 c 0,124,125
 662 480 662 480 706 436 c 0,126,127
 750 392 750 392 750 330 c 0,112,113
700 330 m 0,128,129
 700 371 700 371 671 401 c 0,130,131
 641 430 641 430 600 430 c 0,132,133
 559 430 559 430 529 401 c 0,134,135
 500 371 500 371 500 330 c 0,136,137
 500 289 500 289 529 259 c 0,138,139
 559 230 559 230 600 230 c 0,140,141
 641 230 641 230 671 259 c 0,142,143
 700 289 700 289 700 330 c 0,128,129
750 -20 m 0,144,145
 750 -82 750 -82 706 -126 c 0,146,147
 662 -170 662 -170 600 -170 c 0,148,149
 538 -170 538 -170 494 -126 c 0,150,151
 450 -82 450 -82 450 -20 c 0,152,153
 450 42 450 42 494 86 c 0,154,155
 538 130 538 130 600 130 c 0,156,157
 662 130 662 130 706 86 c 0,158,159
 750 42 750 42 750 -20 c 0,144,145
EndSplineSet
Validated: 1
EndChar

StartChar: uni2822
Encoding: 10274 10274 44
Width: 850
LayerCount: 2
Fore
SplineSet
400 680 m 0,0,1
 400 618 400 618 356 574 c 0,2,3
 312 530 312 530 250 530 c 0,4,5
 188 530 188 530 144 574 c 0,6,7
 100 618 100 618 100 680 c 0,8,9
 100 742 100 742 144 786 c 0,10,11
 188 830 188 830 250 830 c 0,12,13
 312 830 312 830 356 786 c 0,14,15
 400 742 400 742 400 680 c 0,0,1
350 680 m 0,16,17
 350 721 350 721 321 751 c 0,18,19
 291 780 291 780 250 780 c 0,20,21
 209 780 209 780 179 751 c 0,22,23
 150 721 150 721 150 680 c 0,24,25
 150 639 150 639 179 609 c 0,26,27
 209 580 209 580 250 580 c 0,28,29
 291 580 291 580 321 609 c 0,30,31
 350 639 350 639 350 680 c 0,16,17
400 330 m 0,32,33
 400 268 400 268 356 224 c 0,34,35
 312 180 312 180 250 180 c 0,36,37
 188 180 188 180 144 224 c 0,38,39
 100 268 100 268 100 330 c 0,40,41
 100 392 100 392 144 436 c 0,42,43
 188 480 188 480 250 480 c 0,44,45
 312 480 312 480 356 436 c 0,46,47
 400 392 400 392 400 330 c 0,32,33
400 -20 m 0,48,49
 400 -82 400 -82 356 -126 c 0,50,51
 312 -170 312 -170 250 -170 c 0,52,53
 188 -170 188 -170 144 -126 c 0,54,55
 100 -82 100 -82 100 -20 c 0,56,57
 100 42 100 42 144 86 c 0,58,59
 188 130 188 130 250 130 c 0,60,61
 312 130 312 130 356 86 c 0,62,63
 400 42 400 42 400 -20 c 0,48,49
350 -20 m 0,64,65
 350 21 350 21 321 51 c 0,66,67
 291 80 291 80 250 80 c 0,68,69
 209 80 209 80 179 51 c 0,70,71
 150 21 150 21 150 -20 c 0,72,73
 150 -61 150 -61 179 -91 c 0,74,75
 209 -120 209 -120 250 -120 c 0,76,77
 291 -120 291 -120 321 -91 c 0,78,79
 350 -61 350 -61 350 -20 c 0,64,65
750 680 m 0,80,81
 750 618 750 618 706 574 c 0,82,83
 662 530 662 530 600 530 c 0,84,85
 538 530 538 530 494 574 c 0,86,87
 450 618 450 618 450 680 c 0,88,89
 450 742 450 742 494 786 c 0,90,91
 538 830 538 830 600 830 c 0,92,93
 662 830 662 830 706 786 c 0,94,95
 750 742 750 742 750 680 c 0,80,81
700 680 m 0,96,97
 700 721 700 721 671 751 c 0,98,99
 641 780 641 780 600 780 c 0,100,101
 559 780 559 780 529 751 c 0,102,103
 500 721 500 721 500 680 c 0,104,105
 500 639 500 639 529 609 c 0,106,107
 559 580 559 580 600 580 c 0,108,109
 641 580 641 580 671 609 c 0,110,111
 700 639 700 639 700 680 c 0,96,97
750 330 m 0,112,113
 750 268 750 268 706 224 c 0,114,115
 662 180 662 180 600 180 c 0,116,117
 538 180 538 180 494 224 c 0,118,119
 450 268 450 268 450 330 c 0,120,121
 450 392 450 392 494 436 c 0,122,123
 538 480 538 480 600 480 c 0,124,125
 662 480 662 480 706 436 c 0,126,127
 750 392 750 392 750 330 c 0,112,113
700 330 m 0,128,129
 700 371 700 371 671 401 c 0,130,131
 641 430 641 430 600 430 c 0,132,133
 559 430 559 430 529 401 c 0,134,135
 500 371 500 371 500 330 c 0,136,137
 500 289 500 289 529 259 c 0,138,139
 559 230 559 230 600 230 c 0,140,141
 641 230 641 230 671 259 c 0,142,143
 700 289 700 289 700 330 c 0,128,129
750 -20 m 0,144,145
 750 -82 750 -82 706 -126 c 0,146,147
 662 -170 662 -170 600 -170 c 0,148,149
 538 -170 538 -170 494 -126 c 0,150,151
 450 -82 450 -82 450 -20 c 0,152,153
 450 42 450 42 494 86 c 0,154,155
 538 130 538 130 600 130 c 0,156,157
 662 130 662 130 706 86 c 0,158,159
 750 42 750 42 750 -20 c 0,144,145
EndSplineSet
Validated: 1
EndChar

StartChar: uni2823
Encoding: 10275 10275 45
Width: 850
LayerCount: 2
Fore
SplineSet
400 680 m 0,0,1
 400 618 400 618 356 574 c 0,2,3
 312 530 312 530 250 530 c 0,4,5
 188 530 188 530 144 574 c 0,6,7
 100 618 100 618 100 680 c 0,8,9
 100 742 100 742 144 786 c 0,10,11
 188 830 188 830 250 830 c 0,12,13
 312 830 312 830 356 786 c 0,14,15
 400 742 400 742 400 680 c 0,0,1
400 330 m 0,16,17
 400 268 400 268 356 224 c 0,18,19
 312 180 312 180 250 180 c 0,20,21
 188 180 188 180 144 224 c 0,22,23
 100 268 100 268 100 330 c 0,24,25
 100 392 100 392 144 436 c 0,26,27
 188 480 188 480 250 480 c 0,28,29
 312 480 312 480 356 436 c 0,30,31
 400 392 400 392 400 330 c 0,16,17
400 -20 m 0,32,33
 400 -82 400 -82 356 -126 c 0,34,35
 312 -170 312 -170 250 -170 c 0,36,37
 188 -170 188 -170 144 -126 c 0,38,39
 100 -82 100 -82 100 -20 c 0,40,41
 100 42 100 42 144 86 c 0,42,43
 188 130 188 130 250 130 c 0,44,45
 312 130 312 130 356 86 c 0,46,47
 400 42 400 42 400 -20 c 0,32,33
350 -20 m 0,48,49
 350 21 350 21 321 51 c 0,50,51
 291 80 291 80 250 80 c 0,52,53
 209 80 209 80 179 51 c 0,54,55
 150 21 150 21 150 -20 c 0,56,57
 150 -61 150 -61 179 -91 c 0,58,59
 209 -120 209 -120 250 -120 c 0,60,61
 291 -120 291 -120 321 -91 c 0,62,63
 350 -61 350 -61 350 -20 c 0,48,49
750 680 m 0,64,65
 750 618 750 618 706 574 c 0,66,67
 662 530 662 530 600 530 c 0,68,69
 538 530 538 530 494 574 c 0,70,71
 450 618 450 618 450 680 c 0,72,73
 450 742 450 742 494 786 c 0,74,75
 538 830 538 830 600 830 c 0,76,77
 662 830 662 830 706 786 c 0,78,79
 750 742 750 742 750 680 c 0,64,65
700 680 m 0,80,81
 700 721 700 721 671 751 c 0,82,83
 641 780 641 780 600 780 c 0,84,85
 559 780 559 780 529 751 c 0,86,87
 500 721 500 721 500 680 c 0,88,89
 500 639 500 639 529 609 c 0,90,91
 559 580 559 580 600 580 c 0,92,93
 641 580 641 580 671 609 c 0,94,95
 700 639 700 639 700 680 c 0,80,81
750 330 m 0,96,97
 750 268 750 268 706 224 c 0,98,99
 662 180 662 180 600 180 c 0,100,101
 538 180 538 180 494 224 c 0,102,103
 450 268 450 268 450 330 c 0,104,105
 450 392 450 392 494 436 c 0,106,107
 538 480 538 480 600 480 c 0,108,109
 662 480 662 480 706 436 c 0,110,111
 750 392 750 392 750 330 c 0,96,97
700 330 m 0,112,113
 700 371 700 371 671 401 c 0,114,115
 641 430 641 430 600 430 c 0,116,117
 559 430 559 430 529 401 c 0,118,119
 500 371 500 371 500 330 c 0,120,121
 500 289 500 289 529 259 c 0,122,123
 559 230 559 230 600 230 c 0,124,125
 641 230 641 230 671 259 c 0,126,127
 700 289 700 289 700 330 c 0,112,113
750 -20 m 0,128,129
 750 -82 750 -82 706 -126 c 0,130,131
 662 -170 662 -170 600 -170 c 0,132,133
 538 -170 538 -170 494 -126 c 0,134,135
 450 -82 450 -82 450 -20 c 0,136,137
 450 42 450 42 494 86 c 0,138,139
 538 130 538 130 600 130 c 0,140,141
 662 130 662 130 706 86 c 0,142,143
 750 42 750 42 750 -20 c 0,128,129
EndSplineSet
Validated: 1
EndChar

StartChar: uni2824
Encoding: 10276 10276 46
Width: 850
LayerCount: 2
Fore
SplineSet
400 680 m 0,0,1
 400 618 400 618 356 574 c 0,2,3
 312 530 312 530 250 530 c 0,4,5
 188 530 188 530 144 574 c 0,6,7
 100 618 100 618 100 680 c 0,8,9
 100 742 100 742 144 786 c 0,10,11
 188 830 188 830 250 830 c 0,12,13
 312 830 312 830 356 786 c 0,14,15
 400 742 400 742 400 680 c 0,0,1
350 680 m 0,16,17
 350 721 350 721 321 751 c 0,18,19
 291 780 291 780 250 780 c 0,20,21
 209 780 209 780 179 751 c 0,22,23
 150 721 150 721 150 680 c 0,24,25
 150 639 150 639 179 609 c 0,26,27
 209 580 209 580 250 580 c 0,28,29
 291 580 291 580 321 609 c 0,30,31
 350 639 350 639 350 680 c 0,16,17
400 330 m 0,32,33
 400 268 400 268 356 224 c 0,34,35
 312 180 312 180 250 180 c 0,36,37
 188 180 188 180 144 224 c 0,38,39
 100 268 100 268 100 330 c 0,40,41
 100 392 100 392 144 436 c 0,42,43
 188 480 188 480 250 480 c 0,44,45
 312 480 312 480 356 436 c 0,46,47
 400 392 400 392 400 330 c 0,32,33
350 330 m 0,48,49
 350 371 350 371 321 401 c 0,50,51
 291 430 291 430 250 430 c 0,52,53
 209 430 209 430 179 401 c 0,54,55
 150 371 150 371 150 330 c 0,56,57
 150 289 150 289 179 259 c 0,58,59
 209 230 209 230 250 230 c 0,60,61
 291 230 291 230 321 259 c 0,62,63
 350 289 350 289 350 330 c 0,48,49
400 -20 m 0,64,65
 400 -82 400 -82 356 -126 c 0,66,67
 312 -170 312 -170 250 -170 c 0,68,69
 188 -170 188 -170 144 -126 c 0,70,71
 100 -82 100 -82 100 -20 c 0,72,73
 100 42 100 42 144 86 c 0,74,75
 188 130 188 130 250 130 c 0,76,77
 312 130 312 130 356 86 c 0,78,79
 400 42 400 42 400 -20 c 0,64,65
750 680 m 0,80,81
 750 618 750 618 706 574 c 0,82,83
 662 530 662 530 600 530 c 0,84,85
 538 530 538 530 494 574 c 0,86,87
 450 618 450 618 450 680 c 0,88,89
 450 742 450 742 494 786 c 0,90,91
 538 830 538 830 600 830 c 0,92,93
 662 830 662 830 706 786 c 0,94,95
 750 742 750 742 750 680 c 0,80,81
700 680 m 0,96,97
 700 721 700 721 671 751 c 0,98,99
 641 780 641 780 600 780 c 0,100,101
 559 780 559 780 529 751 c 0,102,103
 500 721 500 721 500 680 c 0,104,105
 500 639 500 639 529 609 c 0,106,107
 559 580 559 580 600 580 c 0,108,109
 641 580 641 580 671 609 c 0,110,111
 700 639 700 639 700 680 c 0,96,97
750 330 m 0,112,113
 750 268 750 268 706 224 c 0,114,115
 662 180 662 180 600 180 c 0,116,117
 538 180 538 180 494 224 c 0,118,119
 450 268 450 268 450 330 c 0,120,121
 450 392 450 392 494 436 c 0,122,123
 538 480 538 480 600 480 c 0,124,125
 662 480 662 480 706 436 c 0,126,127
 750 392 750 392 750 330 c 0,112,113
700 330 m 0,128,129
 700 371 700 371 671 401 c 0,130,131
 641 430 641 430 600 430 c 0,132,133
 559 430 559 430 529 401 c 0,134,135
 500 371 500 371 500 330 c 0,136,137
 500 289 500 289 529 259 c 0,138,139
 559 230 559 230 600 230 c 0,140,141
 641 230 641 230 671 259 c 0,142,143
 700 289 700 289 700 330 c 0,128,129
750 -20 m 0,144,145
 750 -82 750 -82 706 -126 c 0,146,147
 662 -170 662 -170 600 -170 c 0,148,149
 538 -170 538 -170 494 -126 c 0,150,151
 450 -82 450 -82 450 -20 c 0,152,153
 450 42 450 42 494 86 c 0,154,155
 538 130 538 130 600 130 c 0,156,157
 662 130 662 130 706 86 c 0,158,159
 750 42 750 42 750 -20 c 0,144,145
EndSplineSet
Validated: 1
EndChar

StartChar: uni2825
Encoding: 10277 10277 47
Width: 850
LayerCount: 2
Fore
SplineSet
400 680 m 0,0,1
 400 618 400 618 356 574 c 0,2,3
 312 530 312 530 250 530 c 0,4,5
 188 530 188 530 144 574 c 0,6,7
 100 618 100 618 100 680 c 0,8,9
 100 742 100 742 144 786 c 0,10,11
 188 830 188 830 250 830 c 0,12,13
 312 830 312 830 356 786 c 0,14,15
 400 742 400 742 400 680 c 0,0,1
400 330 m 0,16,17
 400 268 400 268 356 224 c 0,18,19
 312 180 312 180 250 180 c 0,20,21
 188 180 188 180 144 224 c 0,22,23
 100 268 100 268 100 330 c 0,24,25
 100 392 100 392 144 436 c 0,26,27
 188 480 188 480 250 480 c 0,28,29
 312 480 312 480 356 436 c 0,30,31
 400 392 400 392 400 330 c 0,16,17
350 330 m 0,32,33
 350 371 350 371 321 401 c 0,34,35
 291 430 291 430 250 430 c 0,36,37
 209 430 209 430 179 401 c 0,38,39
 150 371 150 371 150 330 c 0,40,41
 150 289 150 289 179 259 c 0,42,43
 209 230 209 230 250 230 c 0,44,45
 291 230 291 230 321 259 c 0,46,47
 350 289 350 289 350 330 c 0,32,33
400 -20 m 0,48,49
 400 -82 400 -82 356 -126 c 0,50,51
 312 -170 312 -170 250 -170 c 0,52,53
 188 -170 188 -170 144 -126 c 0,54,55
 100 -82 100 -82 100 -20 c 0,56,57
 100 42 100 42 144 86 c 0,58,59
 188 130 188 130 250 130 c 0,60,61
 312 130 312 130 356 86 c 0,62,63
 400 42 400 42 400 -20 c 0,48,49
750 680 m 0,64,65
 750 618 750 618 706 574 c 0,66,67
 662 530 662 530 600 530 c 0,68,69
 538 530 538 530 494 574 c 0,70,71
 450 618 450 618 450 680 c 0,72,73
 450 742 450 742 494 786 c 0,74,75
 538 830 538 830 600 830 c 0,76,77
 662 830 662 830 706 786 c 0,78,79
 750 742 750 742 750 680 c 0,64,65
700 680 m 0,80,81
 700 721 700 721 671 751 c 0,82,83
 641 780 641 780 600 780 c 0,84,85
 559 780 559 780 529 751 c 0,86,87
 500 721 500 721 500 680 c 0,88,89
 500 639 500 639 529 609 c 0,90,91
 559 580 559 580 600 580 c 0,92,93
 641 580 641 580 671 609 c 0,94,95
 700 639 700 639 700 680 c 0,80,81
750 330 m 0,96,97
 750 268 750 268 706 224 c 0,98,99
 662 180 662 180 600 180 c 0,100,101
 538 180 538 180 494 224 c 0,102,103
 450 268 450 268 450 330 c 0,104,105
 450 392 450 392 494 436 c 0,106,107
 538 480 538 480 600 480 c 0,108,109
 662 480 662 480 706 436 c 0,110,111
 750 392 750 392 750 330 c 0,96,97
700 330 m 0,112,113
 700 371 700 371 671 401 c 0,114,115
 641 430 641 430 600 430 c 0,116,117
 559 430 559 430 529 401 c 0,118,119
 500 371 500 371 500 330 c 0,120,121
 500 289 500 289 529 259 c 0,122,123
 559 230 559 230 600 230 c 0,124,125
 641 230 641 230 671 259 c 0,126,127
 700 289 700 289 700 330 c 0,112,113
750 -20 m 0,128,129
 750 -82 750 -82 706 -126 c 0,130,131
 662 -170 662 -170 600 -170 c 0,132,133
 538 -170 538 -170 494 -126 c 0,134,135
 450 -82 450 -82 450 -20 c 0,136,137
 450 42 450 42 494 86 c 0,138,139
 538 130 538 130 600 130 c 0,140,141
 662 130 662 130 706 86 c 0,142,143
 750 42 750 42 750 -20 c 0,128,129
EndSplineSet
Validated: 1
EndChar

StartChar: uni2826
Encoding: 10278 10278 48
Width: 850
LayerCount: 2
Fore
SplineSet
400 680 m 0,0,1
 400 618 400 618 356 574 c 0,2,3
 312 530 312 530 250 530 c 0,4,5
 188 530 188 530 144 574 c 0,6,7
 100 618 100 618 100 680 c 0,8,9
 100 742 100 742 144 786 c 0,10,11
 188 830 188 830 250 830 c 0,12,13
 312 830 312 830 356 786 c 0,14,15
 400 742 400 742 400 680 c 0,0,1
350 680 m 0,16,17
 350 721 350 721 321 751 c 0,18,19
 291 780 291 780 250 780 c 0,20,21
 209 780 209 780 179 751 c 0,22,23
 150 721 150 721 150 680 c 0,24,25
 150 639 150 639 179 609 c 0,26,27
 209 580 209 580 250 580 c 0,28,29
 291 580 291 580 321 609 c 0,30,31
 350 639 350 639 350 680 c 0,16,17
400 330 m 0,32,33
 400 268 400 268 356 224 c 0,34,35
 312 180 312 180 250 180 c 0,36,37
 188 180 188 180 144 224 c 0,38,39
 100 268 100 268 100 330 c 0,40,41
 100 392 100 392 144 436 c 0,42,43
 188 480 188 480 250 480 c 0,44,45
 312 480 312 480 356 436 c 0,46,47
 400 392 400 392 400 330 c 0,32,33
400 -20 m 0,48,49
 400 -82 400 -82 356 -126 c 0,50,51
 312 -170 312 -170 250 -170 c 0,52,53
 188 -170 188 -170 144 -126 c 0,54,55
 100 -82 100 -82 100 -20 c 0,56,57
 100 42 100 42 144 86 c 0,58,59
 188 130 188 130 250 130 c 0,60,61
 312 130 312 130 356 86 c 0,62,63
 400 42 400 42 400 -20 c 0,48,49
750 680 m 0,64,65
 750 618 750 618 706 574 c 0,66,67
 662 530 662 530 600 530 c 0,68,69
 538 530 538 530 494 574 c 0,70,71
 450 618 450 618 450 680 c 0,72,73
 450 742 450 742 494 786 c 0,74,75
 538 830 538 830 600 830 c 0,76,77
 662 830 662 830 706 786 c 0,78,79
 750 742 750 742 750 680 c 0,64,65
700 680 m 0,80,81
 700 721 700 721 671 751 c 0,82,83
 641 780 641 780 600 780 c 0,84,85
 559 780 559 780 529 751 c 0,86,87
 500 721 500 721 500 680 c 0,88,89
 500 639 500 639 529 609 c 0,90,91
 559 580 559 580 600 580 c 0,92,93
 641 580 641 580 671 609 c 0,94,95
 700 639 700 639 700 680 c 0,80,81
750 330 m 0,96,97
 750 268 750 268 706 224 c 0,98,99
 662 180 662 180 600 180 c 0,100,101
 538 180 538 180 494 224 c 0,102,103
 450 268 450 268 450 330 c 0,104,105
 450 392 450 392 494 436 c 0,106,107
 538 480 538 480 600 480 c 0,108,109
 662 480 662 480 706 436 c 0,110,111
 750 392 750 392 750 330 c 0,96,97
700 330 m 0,112,113
 700 371 700 371 671 401 c 0,114,115
 641 430 641 430 600 430 c 0,116,117
 559 430 559 430 529 401 c 0,118,119
 500 371 500 371 500 330 c 0,120,121
 500 289 500 289 529 259 c 0,122,123
 559 230 559 230 600 230 c 0,124,125
 641 230 641 230 671 259 c 0,126,127
 700 289 700 289 700 330 c 0,112,113
750 -20 m 0,128,129
 750 -82 750 -82 706 -126 c 0,130,131
 662 -170 662 -170 600 -170 c 0,132,133
 538 -170 538 -170 494 -126 c 0,134,135
 450 -82 450 -82 450 -20 c 0,136,137
 450 42 450 42 494 86 c 0,138,139
 538 130 538 130 600 130 c 0,140,141
 662 130 662 130 706 86 c 0,142,143
 750 42 750 42 750 -20 c 0,128,129
EndSplineSet
Validated: 1
EndChar

StartChar: uni2827
Encoding: 10279 10279 49
Width: 850
LayerCount: 2
Fore
SplineSet
400 680 m 0,0,1
 400 618 400 618 356 574 c 0,2,3
 312 530 312 530 250 530 c 0,4,5
 188 530 188 530 144 574 c 0,6,7
 100 618 100 618 100 680 c 0,8,9
 100 742 100 742 144 786 c 0,10,11
 188 830 188 830 250 830 c 0,12,13
 312 830 312 830 356 786 c 0,14,15
 400 742 400 742 400 680 c 0,0,1
400 330 m 0,16,17
 400 268 400 268 356 224 c 0,18,19
 312 180 312 180 250 180 c 0,20,21
 188 180 188 180 144 224 c 0,22,23
 100 268 100 268 100 330 c 0,24,25
 100 392 100 392 144 436 c 0,26,27
 188 480 188 480 250 480 c 0,28,29
 312 480 312 480 356 436 c 0,30,31
 400 392 400 392 400 330 c 0,16,17
400 -20 m 0,32,33
 400 -82 400 -82 356 -126 c 0,34,35
 312 -170 312 -170 250 -170 c 0,36,37
 188 -170 188 -170 144 -126 c 0,38,39
 100 -82 100 -82 100 -20 c 0,40,41
 100 42 100 42 144 86 c 0,42,43
 188 130 188 130 250 130 c 0,44,45
 312 130 312 130 356 86 c 0,46,47
 400 42 400 42 400 -20 c 0,32,33
750 680 m 0,48,49
 750 618 750 618 706 574 c 0,50,51
 662 530 662 530 600 530 c 0,52,53
 538 530 538 530 494 574 c 0,54,55
 450 618 450 618 450 680 c 0,56,57
 450 742 450 742 494 786 c 0,58,59
 538 830 538 830 600 830 c 0,60,61
 662 830 662 830 706 786 c 0,62,63
 750 742 750 742 750 680 c 0,48,49
700 680 m 0,64,65
 700 721 700 721 671 751 c 0,66,67
 641 780 641 780 600 780 c 0,68,69
 559 780 559 780 529 751 c 0,70,71
 500 721 500 721 500 680 c 0,72,73
 500 639 500 639 529 609 c 0,74,75
 559 580 559 580 600 580 c 0,76,77
 641 580 641 580 671 609 c 0,78,79
 700 639 700 639 700 680 c 0,64,65
750 330 m 0,80,81
 750 268 750 268 706 224 c 0,82,83
 662 180 662 180 600 180 c 0,84,85
 538 180 538 180 494 224 c 0,86,87
 450 268 450 268 450 330 c 0,88,89
 450 392 450 392 494 436 c 0,90,91
 538 480 538 480 600 480 c 0,92,93
 662 480 662 480 706 436 c 0,94,95
 750 392 750 392 750 330 c 0,80,81
700 330 m 0,96,97
 700 371 700 371 671 401 c 0,98,99
 641 430 641 430 600 430 c 0,100,101
 559 430 559 430 529 401 c 0,102,103
 500 371 500 371 500 330 c 0,104,105
 500 289 500 289 529 259 c 0,106,107
 559 230 559 230 600 230 c 0,108,109
 641 230 641 230 671 259 c 0,110,111
 700 289 700 289 700 330 c 0,96,97
750 -20 m 0,112,113
 750 -82 750 -82 706 -126 c 0,114,115
 662 -170 662 -170 600 -170 c 0,116,117
 538 -170 538 -170 494 -126 c 0,118,119
 450 -82 450 -82 450 -20 c 0,120,121
 450 42 450 42 494 86 c 0,122,123
 538 130 538 130 600 130 c 0,124,125
 662 130 662 130 706 86 c 0,126,127
 750 42 750 42 750 -20 c 0,112,113
EndSplineSet
Validated: 1
EndChar

StartChar: uni2828
Encoding: 10280 10280 50
Width: 850
LayerCount: 2
Fore
SplineSet
400 680 m 0,0,1
 400 618 400 618 356 574 c 0,2,3
 312 530 312 530 250 530 c 0,4,5
 188 530 188 530 144 574 c 0,6,7
 100 618 100 618 100 680 c 0,8,9
 100 742 100 742 144 786 c 0,10,11
 188 830 188 830 250 830 c 0,12,13
 312 830 312 830 356 786 c 0,14,15
 400 742 400 742 400 680 c 0,0,1
350 680 m 0,16,17
 350 721 350 721 321 751 c 0,18,19
 291 780 291 780 250 780 c 0,20,21
 209 780 209 780 179 751 c 0,22,23
 150 721 150 721 150 680 c 0,24,25
 150 639 150 639 179 609 c 0,26,27
 209 580 209 580 250 580 c 0,28,29
 291 580 291 580 321 609 c 0,30,31
 350 639 350 639 350 680 c 0,16,17
400 330 m 0,32,33
 400 268 400 268 356 224 c 0,34,35
 312 180 312 180 250 180 c 0,36,37
 188 180 188 180 144 224 c 0,38,39
 100 268 100 268 100 330 c 0,40,41
 100 392 100 392 144 436 c 0,42,43
 188 480 188 480 250 480 c 0,44,45
 312 480 312 480 356 436 c 0,46,47
 400 392 400 392 400 330 c 0,32,33
350 330 m 0,48,49
 350 371 350 371 321 401 c 0,50,51
 291 430 291 430 250 430 c 0,52,53
 209 430 209 430 179 401 c 0,54,55
 150 371 150 371 150 330 c 0,56,57
 150 289 150 289 179 259 c 0,58,59
 209 230 209 230 250 230 c 0,60,61
 291 230 291 230 321 259 c 0,62,63
 350 289 350 289 350 330 c 0,48,49
400 -20 m 0,64,65
 400 -82 400 -82 356 -126 c 0,66,67
 312 -170 312 -170 250 -170 c 0,68,69
 188 -170 188 -170 144 -126 c 0,70,71
 100 -82 100 -82 100 -20 c 0,72,73
 100 42 100 42 144 86 c 0,74,75
 188 130 188 130 250 130 c 0,76,77
 312 130 312 130 356 86 c 0,78,79
 400 42 400 42 400 -20 c 0,64,65
350 -20 m 0,80,81
 350 21 350 21 321 51 c 0,82,83
 291 80 291 80 250 80 c 0,84,85
 209 80 209 80 179 51 c 0,86,87
 150 21 150 21 150 -20 c 0,88,89
 150 -61 150 -61 179 -91 c 0,90,91
 209 -120 209 -120 250 -120 c 0,92,93
 291 -120 291 -120 321 -91 c 0,94,95
 350 -61 350 -61 350 -20 c 0,80,81
750 680 m 0,96,97
 750 618 750 618 706 574 c 0,98,99
 662 530 662 530 600 530 c 0,100,101
 538 530 538 530 494 574 c 0,102,103
 450 618 450 618 450 680 c 0,104,105
 450 742 450 742 494 786 c 0,106,107
 538 830 538 830 600 830 c 0,108,109
 662 830 662 830 706 786 c 0,110,111
 750 742 750 742 750 680 c 0,96,97
750 330 m 0,112,113
 750 268 750 268 706 224 c 0,114,115
 662 180 662 180 600 180 c 0,116,117
 538 180 538 180 494 224 c 0,118,119
 450 268 450 268 450 330 c 0,120,121
 450 392 450 392 494 436 c 0,122,123
 538 480 538 480 600 480 c 0,124,125
 662 480 662 480 706 436 c 0,126,127
 750 392 750 392 750 330 c 0,112,113
700 330 m 0,128,129
 700 371 700 371 671 401 c 0,130,131
 641 430 641 430 600 430 c 0,132,133
 559 430 559 430 529 401 c 0,134,135
 500 371 500 371 500 330 c 0,136,137
 500 289 500 289 529 259 c 0,138,139
 559 230 559 230 600 230 c 0,140,141
 641 230 641 230 671 259 c 0,142,143
 700 289 700 289 700 330 c 0,128,129
750 -20 m 0,144,145
 750 -82 750 -82 706 -126 c 0,146,147
 662 -170 662 -170 600 -170 c 0,148,149
 538 -170 538 -170 494 -126 c 0,150,151
 450 -82 450 -82 450 -20 c 0,152,153
 450 42 450 42 494 86 c 0,154,155
 538 130 538 130 600 130 c 0,156,157
 662 130 662 130 706 86 c 0,158,159
 750 42 750 42 750 -20 c 0,144,145
EndSplineSet
Validated: 1
EndChar

StartChar: uni2829
Encoding: 10281 10281 51
Width: 850
LayerCount: 2
Fore
SplineSet
400 680 m 0,0,1
 400 618 400 618 356 574 c 0,2,3
 312 530 312 530 250 530 c 0,4,5
 188 530 188 530 144 574 c 0,6,7
 100 618 100 618 100 680 c 0,8,9
 100 742 100 742 144 786 c 0,10,11
 188 830 188 830 250 830 c 0,12,13
 312 830 312 830 356 786 c 0,14,15
 400 742 400 742 400 680 c 0,0,1
400 330 m 0,16,17
 400 268 400 268 356 224 c 0,18,19
 312 180 312 180 250 180 c 0,20,21
 188 180 188 180 144 224 c 0,22,23
 100 268 100 268 100 330 c 0,24,25
 100 392 100 392 144 436 c 0,26,27
 188 480 188 480 250 480 c 0,28,29
 312 480 312 480 356 436 c 0,30,31
 400 392 400 392 400 330 c 0,16,17
350 330 m 0,32,33
 350 371 350 371 321 401 c 0,34,35
 291 430 291 430 250 430 c 0,36,37
 209 430 209 430 179 401 c 0,38,39
 150 371 150 371 150 330 c 0,40,41
 150 289 150 289 179 259 c 0,42,43
 209 230 209 230 250 230 c 0,44,45
 291 230 291 230 321 259 c 0,46,47
 350 289 350 289 350 330 c 0,32,33
400 -20 m 0,48,49
 400 -82 400 -82 356 -126 c 0,50,51
 312 -170 312 -170 250 -170 c 0,52,53
 188 -170 188 -170 144 -126 c 0,54,55
 100 -82 100 -82 100 -20 c 0,56,57
 100 42 100 42 144 86 c 0,58,59
 188 130 188 130 250 130 c 0,60,61
 312 130 312 130 356 86 c 0,62,63
 400 42 400 42 400 -20 c 0,48,49
350 -20 m 0,64,65
 350 21 350 21 321 51 c 0,66,67
 291 80 291 80 250 80 c 0,68,69
 209 80 209 80 179 51 c 0,70,71
 150 21 150 21 150 -20 c 0,72,73
 150 -61 150 -61 179 -91 c 0,74,75
 209 -120 209 -120 250 -120 c 0,76,77
 291 -120 291 -120 321 -91 c 0,78,79
 350 -61 350 -61 350 -20 c 0,64,65
750 680 m 0,80,81
 750 618 750 618 706 574 c 0,82,83
 662 530 662 530 600 530 c 0,84,85
 538 530 538 530 494 574 c 0,86,87
 450 618 450 618 450 680 c 0,88,89
 450 742 450 742 494 786 c 0,90,91
 538 830 538 830 600 830 c 0,92,93
 662 830 662 830 706 786 c 0,94,95
 750 742 750 742 750 680 c 0,80,81
750 330 m 0,96,97
 750 268 750 268 706 224 c 0,98,99
 662 180 662 180 600 180 c 0,100,101
 538 180 538 180 494 224 c 0,102,103
 450 268 450 268 450 330 c 0,104,105
 450 392 450 392 494 436 c 0,106,107
 538 480 538 480 600 480 c 0,108,109
 662 480 662 480 706 436 c 0,110,111
 750 392 750 392 750 330 c 0,96,97
700 330 m 0,112,113
 700 371 700 371 671 401 c 0,114,115
 641 430 641 430 600 430 c 0,116,117
 559 430 559 430 529 401 c 0,118,119
 500 371 500 371 500 330 c 0,120,121
 500 289 500 289 529 259 c 0,122,123
 559 230 559 230 600 230 c 0,124,125
 641 230 641 230 671 259 c 0,126,127
 700 289 700 289 700 330 c 0,112,113
750 -20 m 0,128,129
 750 -82 750 -82 706 -126 c 0,130,131
 662 -170 662 -170 600 -170 c 0,132,133
 538 -170 538 -170 494 -126 c 0,134,135
 450 -82 450 -82 450 -20 c 0,136,137
 450 42 450 42 494 86 c 0,138,139
 538 130 538 130 600 130 c 0,140,141
 662 130 662 130 706 86 c 0,142,143
 750 42 750 42 750 -20 c 0,128,129
EndSplineSet
Validated: 1
EndChar

StartChar: uni282a
Encoding: 10282 10282 52
Width: 850
LayerCount: 2
Fore
SplineSet
400 680 m 0,0,1
 400 618 400 618 356 574 c 0,2,3
 312 530 312 530 250 530 c 0,4,5
 188 530 188 530 144 574 c 0,6,7
 100 618 100 618 100 680 c 0,8,9
 100 742 100 742 144 786 c 0,10,11
 188 830 188 830 250 830 c 0,12,13
 312 830 312 830 356 786 c 0,14,15
 400 742 400 742 400 680 c 0,0,1
350 680 m 0,16,17
 350 721 350 721 321 751 c 0,18,19
 291 780 291 780 250 780 c 0,20,21
 209 780 209 780 179 751 c 0,22,23
 150 721 150 721 150 680 c 0,24,25
 150 639 150 639 179 609 c 0,26,27
 209 580 209 580 250 580 c 0,28,29
 291 580 291 580 321 609 c 0,30,31
 350 639 350 639 350 680 c 0,16,17
400 330 m 0,32,33
 400 268 400 268 356 224 c 0,34,35
 312 180 312 180 250 180 c 0,36,37
 188 180 188 180 144 224 c 0,38,39
 100 268 100 268 100 330 c 0,40,41
 100 392 100 392 144 436 c 0,42,43
 188 480 188 480 250 480 c 0,44,45
 312 480 312 480 356 436 c 0,46,47
 400 392 400 392 400 330 c 0,32,33
400 -20 m 0,48,49
 400 -82 400 -82 356 -126 c 0,50,51
 312 -170 312 -170 250 -170 c 0,52,53
 188 -170 188 -170 144 -126 c 0,54,55
 100 -82 100 -82 100 -20 c 0,56,57
 100 42 100 42 144 86 c 0,58,59
 188 130 188 130 250 130 c 0,60,61
 312 130 312 130 356 86 c 0,62,63
 400 42 400 42 400 -20 c 0,48,49
350 -20 m 0,64,65
 350 21 350 21 321 51 c 0,66,67
 291 80 291 80 250 80 c 0,68,69
 209 80 209 80 179 51 c 0,70,71
 150 21 150 21 150 -20 c 0,72,73
 150 -61 150 -61 179 -91 c 0,74,75
 209 -120 209 -120 250 -120 c 0,76,77
 291 -120 291 -120 321 -91 c 0,78,79
 350 -61 350 -61 350 -20 c 0,64,65
750 680 m 0,80,81
 750 618 750 618 706 574 c 0,82,83
 662 530 662 530 600 530 c 0,84,85
 538 530 538 530 494 574 c 0,86,87
 450 618 450 618 450 680 c 0,88,89
 450 742 450 742 494 786 c 0,90,91
 538 830 538 830 600 830 c 0,92,93
 662 830 662 830 706 786 c 0,94,95
 750 742 750 742 750 680 c 0,80,81
750 330 m 0,96,97
 750 268 750 268 706 224 c 0,98,99
 662 180 662 180 600 180 c 0,100,101
 538 180 538 180 494 224 c 0,102,103
 450 268 450 268 450 330 c 0,104,105
 450 392 450 392 494 436 c 0,106,107
 538 480 538 480 600 480 c 0,108,109
 662 480 662 480 706 436 c 0,110,111
 750 392 750 392 750 330 c 0,96,97
700 330 m 0,112,113
 700 371 700 371 671 401 c 0,114,115
 641 430 641 430 600 430 c 0,116,117
 559 430 559 430 529 401 c 0,118,119
 500 371 500 371 500 330 c 0,120,121
 500 289 500 289 529 259 c 0,122,123
 559 230 559 230 600 230 c 0,124,125
 641 230 641 230 671 259 c 0,126,127
 700 289 700 289 700 330 c 0,112,113
750 -20 m 0,128,129
 750 -82 750 -82 706 -126 c 0,130,131
 662 -170 662 -170 600 -170 c 0,132,133
 538 -170 538 -170 494 -126 c 0,134,135
 450 -82 450 -82 450 -20 c 0,136,137
 450 42 450 42 494 86 c 0,138,139
 538 130 538 130 600 130 c 0,140,141
 662 130 662 130 706 86 c 0,142,143
 750 42 750 42 750 -20 c 0,128,129
EndSplineSet
Validated: 1
EndChar

StartChar: uni282b
Encoding: 10283 10283 53
Width: 850
LayerCount: 2
Fore
SplineSet
400 680 m 0,0,1
 400 618 400 618 356 574 c 0,2,3
 312 530 312 530 250 530 c 0,4,5
 188 530 188 530 144 574 c 0,6,7
 100 618 100 618 100 680 c 0,8,9
 100 742 100 742 144 786 c 0,10,11
 188 830 188 830 250 830 c 0,12,13
 312 830 312 830 356 786 c 0,14,15
 400 742 400 742 400 680 c 0,0,1
400 330 m 0,16,17
 400 268 400 268 356 224 c 0,18,19
 312 180 312 180 250 180 c 0,20,21
 188 180 188 180 144 224 c 0,22,23
 100 268 100 268 100 330 c 0,24,25
 100 392 100 392 144 436 c 0,26,27
 188 480 188 480 250 480 c 0,28,29
 312 480 312 480 356 436 c 0,30,31
 400 392 400 392 400 330 c 0,16,17
400 -20 m 0,32,33
 400 -82 400 -82 356 -126 c 0,34,35
 312 -170 312 -170 250 -170 c 0,36,37
 188 -170 188 -170 144 -126 c 0,38,39
 100 -82 100 -82 100 -20 c 0,40,41
 100 42 100 42 144 86 c 0,42,43
 188 130 188 130 250 130 c 0,44,45
 312 130 312 130 356 86 c 0,46,47
 400 42 400 42 400 -20 c 0,32,33
350 -20 m 0,48,49
 350 21 350 21 321 51 c 0,50,51
 291 80 291 80 250 80 c 0,52,53
 209 80 209 80 179 51 c 0,54,55
 150 21 150 21 150 -20 c 0,56,57
 150 -61 150 -61 179 -91 c 0,58,59
 209 -120 209 -120 250 -120 c 0,60,61
 291 -120 291 -120 321 -91 c 0,62,63
 350 -61 350 -61 350 -20 c 0,48,49
750 680 m 0,64,65
 750 618 750 618 706 574 c 0,66,67
 662 530 662 530 600 530 c 0,68,69
 538 530 538 530 494 574 c 0,70,71
 450 618 450 618 450 680 c 0,72,73
 450 742 450 742 494 786 c 0,74,75
 538 830 538 830 600 830 c 0,76,77
 662 830 662 830 706 786 c 0,78,79
 750 742 750 742 750 680 c 0,64,65
750 330 m 0,80,81
 750 268 750 268 706 224 c 0,82,83
 662 180 662 180 600 180 c 0,84,85
 538 180 538 180 494 224 c 0,86,87
 450 268 450 268 450 330 c 0,88,89
 450 392 450 392 494 436 c 0,90,91
 538 480 538 480 600 480 c 0,92,93
 662 480 662 480 706 436 c 0,94,95
 750 392 750 392 750 330 c 0,80,81
700 330 m 0,96,97
 700 371 700 371 671 401 c 0,98,99
 641 430 641 430 600 430 c 0,100,101
 559 430 559 430 529 401 c 0,102,103
 500 371 500 371 500 330 c 0,104,105
 500 289 500 289 529 259 c 0,106,107
 559 230 559 230 600 230 c 0,108,109
 641 230 641 230 671 259 c 0,110,111
 700 289 700 289 700 330 c 0,96,97
750 -20 m 0,112,113
 750 -82 750 -82 706 -126 c 0,114,115
 662 -170 662 -170 600 -170 c 0,116,117
 538 -170 538 -170 494 -126 c 0,118,119
 450 -82 450 -82 450 -20 c 0,120,121
 450 42 450 42 494 86 c 0,122,123
 538 130 538 130 600 130 c 0,124,125
 662 130 662 130 706 86 c 0,126,127
 750 42 750 42 750 -20 c 0,112,113
EndSplineSet
Validated: 1
EndChar

StartChar: uni282c
Encoding: 10284 10284 54
Width: 850
LayerCount: 2
Fore
SplineSet
400 680 m 0,0,1
 400 618 400 618 356 574 c 0,2,3
 312 530 312 530 250 530 c 0,4,5
 188 530 188 530 144 574 c 0,6,7
 100 618 100 618 100 680 c 0,8,9
 100 742 100 742 144 786 c 0,10,11
 188 830 188 830 250 830 c 0,12,13
 312 830 312 830 356 786 c 0,14,15
 400 742 400 742 400 680 c 0,0,1
350 680 m 0,16,17
 350 721 350 721 321 751 c 0,18,19
 291 780 291 780 250 780 c 0,20,21
 209 780 209 780 179 751 c 0,22,23
 150 721 150 721 150 680 c 0,24,25
 150 639 150 639 179 609 c 0,26,27
 209 580 209 580 250 580 c 0,28,29
 291 580 291 580 321 609 c 0,30,31
 350 639 350 639 350 680 c 0,16,17
400 330 m 0,32,33
 400 268 400 268 356 224 c 0,34,35
 312 180 312 180 250 180 c 0,36,37
 188 180 188 180 144 224 c 0,38,39
 100 268 100 268 100 330 c 0,40,41
 100 392 100 392 144 436 c 0,42,43
 188 480 188 480 250 480 c 0,44,45
 312 480 312 480 356 436 c 0,46,47
 400 392 400 392 400 330 c 0,32,33
350 330 m 0,48,49
 350 371 350 371 321 401 c 0,50,51
 291 430 291 430 250 430 c 0,52,53
 209 430 209 430 179 401 c 0,54,55
 150 371 150 371 150 330 c 0,56,57
 150 289 150 289 179 259 c 0,58,59
 209 230 209 230 250 230 c 0,60,61
 291 230 291 230 321 259 c 0,62,63
 350 289 350 289 350 330 c 0,48,49
400 -20 m 0,64,65
 400 -82 400 -82 356 -126 c 0,66,67
 312 -170 312 -170 250 -170 c 0,68,69
 188 -170 188 -170 144 -126 c 0,70,71
 100 -82 100 -82 100 -20 c 0,72,73
 100 42 100 42 144 86 c 0,74,75
 188 130 188 130 250 130 c 0,76,77
 312 130 312 130 356 86 c 0,78,79
 400 42 400 42 400 -20 c 0,64,65
750 680 m 0,80,81
 750 618 750 618 706 574 c 0,82,83
 662 530 662 530 600 530 c 0,84,85
 538 530 538 530 494 574 c 0,86,87
 450 618 450 618 450 680 c 0,88,89
 450 742 450 742 494 786 c 0,90,91
 538 830 538 830 600 830 c 0,92,93
 662 830 662 830 706 786 c 0,94,95
 750 742 750 742 750 680 c 0,80,81
750 330 m 0,96,97
 750 268 750 268 706 224 c 0,98,99
 662 180 662 180 600 180 c 0,100,101
 538 180 538 180 494 224 c 0,102,103
 450 268 450 268 450 330 c 0,104,105
 450 392 450 392 494 436 c 0,106,107
 538 480 538 480 600 480 c 0,108,109
 662 480 662 480 706 436 c 0,110,111
 750 392 750 392 750 330 c 0,96,97
700 330 m 0,112,113
 700 371 700 371 671 401 c 0,114,115
 641 430 641 430 600 430 c 0,116,117
 559 430 559 430 529 401 c 0,118,119
 500 371 500 371 500 330 c 0,120,121
 500 289 500 289 529 259 c 0,122,123
 559 230 559 230 600 230 c 0,124,125
 641 230 641 230 671 259 c 0,126,127
 700 289 700 289 700 330 c 0,112,113
750 -20 m 0,128,129
 750 -82 750 -82 706 -126 c 0,130,131
 662 -170 662 -170 600 -170 c 0,132,133
 538 -170 538 -170 494 -126 c 0,134,135
 450 -82 450 -82 450 -20 c 0,136,137
 450 42 450 42 494 86 c 0,138,139
 538 130 538 130 600 130 c 0,140,141
 662 130 662 130 706 86 c 0,142,143
 750 42 750 42 750 -20 c 0,128,129
EndSplineSet
Validated: 1
EndChar

StartChar: uni282d
Encoding: 10285 10285 55
Width: 850
LayerCount: 2
Fore
SplineSet
400 680 m 0,0,1
 400 618 400 618 356 574 c 0,2,3
 312 530 312 530 250 530 c 0,4,5
 188 530 188 530 144 574 c 0,6,7
 100 618 100 618 100 680 c 0,8,9
 100 742 100 742 144 786 c 0,10,11
 188 830 188 830 250 830 c 0,12,13
 312 830 312 830 356 786 c 0,14,15
 400 742 400 742 400 680 c 0,0,1
400 330 m 0,16,17
 400 268 400 268 356 224 c 0,18,19
 312 180 312 180 250 180 c 0,20,21
 188 180 188 180 144 224 c 0,22,23
 100 268 100 268 100 330 c 0,24,25
 100 392 100 392 144 436 c 0,26,27
 188 480 188 480 250 480 c 0,28,29
 312 480 312 480 356 436 c 0,30,31
 400 392 400 392 400 330 c 0,16,17
350 330 m 0,32,33
 350 371 350 371 321 401 c 0,34,35
 291 430 291 430 250 430 c 0,36,37
 209 430 209 430 179 401 c 0,38,39
 150 371 150 371 150 330 c 0,40,41
 150 289 150 289 179 259 c 0,42,43
 209 230 209 230 250 230 c 0,44,45
 291 230 291 230 321 259 c 0,46,47
 350 289 350 289 350 330 c 0,32,33
400 -20 m 0,48,49
 400 -82 400 -82 356 -126 c 0,50,51
 312 -170 312 -170 250 -170 c 0,52,53
 188 -170 188 -170 144 -126 c 0,54,55
 100 -82 100 -82 100 -20 c 0,56,57
 100 42 100 42 144 86 c 0,58,59
 188 130 188 130 250 130 c 0,60,61
 312 130 312 130 356 86 c 0,62,63
 400 42 400 42 400 -20 c 0,48,49
750 680 m 0,64,65
 750 618 750 618 706 574 c 0,66,67
 662 530 662 530 600 530 c 0,68,69
 538 530 538 530 494 574 c 0,70,71
 450 618 450 618 450 680 c 0,72,73
 450 742 450 742 494 786 c 0,74,75
 538 830 538 830 600 830 c 0,76,77
 662 830 662 830 706 786 c 0,78,79
 750 742 750 742 750 680 c 0,64,65
750 330 m 0,80,81
 750 268 750 268 706 224 c 0,82,83
 662 180 662 180 600 180 c 0,84,85
 538 180 538 180 494 224 c 0,86,87
 450 268 450 268 450 330 c 0,88,89
 450 392 450 392 494 436 c 0,90,91
 538 480 538 480 600 480 c 0,92,93
 662 480 662 480 706 436 c 0,94,95
 750 392 750 392 750 330 c 0,80,81
700 330 m 0,96,97
 700 371 700 371 671 401 c 0,98,99
 641 430 641 430 600 430 c 0,100,101
 559 430 559 430 529 401 c 0,102,103
 500 371 500 371 500 330 c 0,104,105
 500 289 500 289 529 259 c 0,106,107
 559 230 559 230 600 230 c 0,108,109
 641 230 641 230 671 259 c 0,110,111
 700 289 700 289 700 330 c 0,96,97
750 -20 m 0,112,113
 750 -82 750 -82 706 -126 c 0,114,115
 662 -170 662 -170 600 -170 c 0,116,117
 538 -170 538 -170 494 -126 c 0,118,119
 450 -82 450 -82 450 -20 c 0,120,121
 450 42 450 42 494 86 c 0,122,123
 538 130 538 130 600 130 c 0,124,125
 662 130 662 130 706 86 c 0,126,127
 750 42 750 42 750 -20 c 0,112,113
EndSplineSet
Validated: 1
EndChar

StartChar: uni282e
Encoding: 10286 10286 56
Width: 850
LayerCount: 2
Fore
SplineSet
400 680 m 0,0,1
 400 618 400 618 356 574 c 0,2,3
 312 530 312 530 250 530 c 0,4,5
 188 530 188 530 144 574 c 0,6,7
 100 618 100 618 100 680 c 0,8,9
 100 742 100 742 144 786 c 0,10,11
 188 830 188 830 250 830 c 0,12,13
 312 830 312 830 356 786 c 0,14,15
 400 742 400 742 400 680 c 0,0,1
350 680 m 0,16,17
 350 721 350 721 321 751 c 0,18,19
 291 780 291 780 250 780 c 0,20,21
 209 780 209 780 179 751 c 0,22,23
 150 721 150 721 150 680 c 0,24,25
 150 639 150 639 179 609 c 0,26,27
 209 580 209 580 250 580 c 0,28,29
 291 580 291 580 321 609 c 0,30,31
 350 639 350 639 350 680 c 0,16,17
400 330 m 0,32,33
 400 268 400 268 356 224 c 0,34,35
 312 180 312 180 250 180 c 0,36,37
 188 180 188 180 144 224 c 0,38,39
 100 268 100 268 100 330 c 0,40,41
 100 392 100 392 144 436 c 0,42,43
 188 480 188 480 250 480 c 0,44,45
 312 480 312 480 356 436 c 0,46,47
 400 392 400 392 400 330 c 0,32,33
400 -20 m 0,48,49
 400 -82 400 -82 356 -126 c 0,50,51
 312 -170 312 -170 250 -170 c 0,52,53
 188 -170 188 -170 144 -126 c 0,54,55
 100 -82 100 -82 100 -20 c 0,56,57
 100 42 100 42 144 86 c 0,58,59
 188 130 188 130 250 130 c 0,60,61
 312 130 312 130 356 86 c 0,62,63
 400 42 400 42 400 -20 c 0,48,49
750 680 m 0,64,65
 750 618 750 618 706 574 c 0,66,67
 662 530 662 530 600 530 c 0,68,69
 538 530 538 530 494 574 c 0,70,71
 450 618 450 618 450 680 c 0,72,73
 450 742 450 742 494 786 c 0,74,75
 538 830 538 830 600 830 c 0,76,77
 662 830 662 830 706 786 c 0,78,79
 750 742 750 742 750 680 c 0,64,65
750 330 m 0,80,81
 750 268 750 268 706 224 c 0,82,83
 662 180 662 180 600 180 c 0,84,85
 538 180 538 180 494 224 c 0,86,87
 450 268 450 268 450 330 c 0,88,89
 450 392 450 392 494 436 c 0,90,91
 538 480 538 480 600 480 c 0,92,93
 662 480 662 480 706 436 c 0,94,95
 750 392 750 392 750 330 c 0,80,81
700 330 m 0,96,97
 700 371 700 371 671 401 c 0,98,99
 641 430 641 430 600 430 c 0,100,101
 559 430 559 430 529 401 c 0,102,103
 500 371 500 371 500 330 c 0,104,105
 500 289 500 289 529 259 c 0,106,107
 559 230 559 230 600 230 c 0,108,109
 641 230 641 230 671 259 c 0,110,111
 700 289 700 289 700 330 c 0,96,97
750 -20 m 0,112,113
 750 -82 750 -82 706 -126 c 0,114,115
 662 -170 662 -170 600 -170 c 0,116,117
 538 -170 538 -170 494 -126 c 0,118,119
 450 -82 450 -82 450 -20 c 0,120,121
 450 42 450 42 494 86 c 0,122,123
 538 130 538 130 600 130 c 0,124,125
 662 130 662 130 706 86 c 0,126,127
 750 42 750 42 750 -20 c 0,112,113
EndSplineSet
Validated: 1
EndChar

StartChar: uni282f
Encoding: 10287 10287 57
Width: 850
LayerCount: 2
Fore
SplineSet
400 680 m 0,0,1
 400 618 400 618 356 574 c 0,2,3
 312 530 312 530 250 530 c 0,4,5
 188 530 188 530 144 574 c 0,6,7
 100 618 100 618 100 680 c 0,8,9
 100 742 100 742 144 786 c 0,10,11
 188 830 188 830 250 830 c 0,12,13
 312 830 312 830 356 786 c 0,14,15
 400 742 400 742 400 680 c 0,0,1
400 330 m 0,16,17
 400 268 400 268 356 224 c 0,18,19
 312 180 312 180 250 180 c 0,20,21
 188 180 188 180 144 224 c 0,22,23
 100 268 100 268 100 330 c 0,24,25
 100 392 100 392 144 436 c 0,26,27
 188 480 188 480 250 480 c 0,28,29
 312 480 312 480 356 436 c 0,30,31
 400 392 400 392 400 330 c 0,16,17
400 -20 m 0,32,33
 400 -82 400 -82 356 -126 c 0,34,35
 312 -170 312 -170 250 -170 c 0,36,37
 188 -170 188 -170 144 -126 c 0,38,39
 100 -82 100 -82 100 -20 c 0,40,41
 100 42 100 42 144 86 c 0,42,43
 188 130 188 130 250 130 c 0,44,45
 312 130 312 130 356 86 c 0,46,47
 400 42 400 42 400 -20 c 0,32,33
750 680 m 0,48,49
 750 618 750 618 706 574 c 0,50,51
 662 530 662 530 600 530 c 0,52,53
 538 530 538 530 494 574 c 0,54,55
 450 618 450 618 450 680 c 0,56,57
 450 742 450 742 494 786 c 0,58,59
 538 830 538 830 600 830 c 0,60,61
 662 830 662 830 706 786 c 0,62,63
 750 742 750 742 750 680 c 0,48,49
750 330 m 0,64,65
 750 268 750 268 706 224 c 0,66,67
 662 180 662 180 600 180 c 0,68,69
 538 180 538 180 494 224 c 0,70,71
 450 268 450 268 450 330 c 0,72,73
 450 392 450 392 494 436 c 0,74,75
 538 480 538 480 600 480 c 0,76,77
 662 480 662 480 706 436 c 0,78,79
 750 392 750 392 750 330 c 0,64,65
700 330 m 0,80,81
 700 371 700 371 671 401 c 0,82,83
 641 430 641 430 600 430 c 0,84,85
 559 430 559 430 529 401 c 0,86,87
 500 371 500 371 500 330 c 0,88,89
 500 289 500 289 529 259 c 0,90,91
 559 230 559 230 600 230 c 0,92,93
 641 230 641 230 671 259 c 0,94,95
 700 289 700 289 700 330 c 0,80,81
750 -20 m 0,96,97
 750 -82 750 -82 706 -126 c 0,98,99
 662 -170 662 -170 600 -170 c 0,100,101
 538 -170 538 -170 494 -126 c 0,102,103
 450 -82 450 -82 450 -20 c 0,104,105
 450 42 450 42 494 86 c 0,106,107
 538 130 538 130 600 130 c 0,108,109
 662 130 662 130 706 86 c 0,110,111
 750 42 750 42 750 -20 c 0,96,97
EndSplineSet
Validated: 1
EndChar

StartChar: uni2830
Encoding: 10288 10288 58
Width: 850
LayerCount: 2
Fore
SplineSet
400 680 m 0,0,1
 400 618 400 618 356 574 c 0,2,3
 312 530 312 530 250 530 c 0,4,5
 188 530 188 530 144 574 c 0,6,7
 100 618 100 618 100 680 c 0,8,9
 100 742 100 742 144 786 c 0,10,11
 188 830 188 830 250 830 c 0,12,13
 312 830 312 830 356 786 c 0,14,15
 400 742 400 742 400 680 c 0,0,1
350 680 m 0,16,17
 350 721 350 721 321 751 c 0,18,19
 291 780 291 780 250 780 c 0,20,21
 209 780 209 780 179 751 c 0,22,23
 150 721 150 721 150 680 c 0,24,25
 150 639 150 639 179 609 c 0,26,27
 209 580 209 580 250 580 c 0,28,29
 291 580 291 580 321 609 c 0,30,31
 350 639 350 639 350 680 c 0,16,17
400 330 m 0,32,33
 400 268 400 268 356 224 c 0,34,35
 312 180 312 180 250 180 c 0,36,37
 188 180 188 180 144 224 c 0,38,39
 100 268 100 268 100 330 c 0,40,41
 100 392 100 392 144 436 c 0,42,43
 188 480 188 480 250 480 c 0,44,45
 312 480 312 480 356 436 c 0,46,47
 400 392 400 392 400 330 c 0,32,33
350 330 m 0,48,49
 350 371 350 371 321 401 c 0,50,51
 291 430 291 430 250 430 c 0,52,53
 209 430 209 430 179 401 c 0,54,55
 150 371 150 371 150 330 c 0,56,57
 150 289 150 289 179 259 c 0,58,59
 209 230 209 230 250 230 c 0,60,61
 291 230 291 230 321 259 c 0,62,63
 350 289 350 289 350 330 c 0,48,49
400 -20 m 0,64,65
 400 -82 400 -82 356 -126 c 0,66,67
 312 -170 312 -170 250 -170 c 0,68,69
 188 -170 188 -170 144 -126 c 0,70,71
 100 -82 100 -82 100 -20 c 0,72,73
 100 42 100 42 144 86 c 0,74,75
 188 130 188 130 250 130 c 0,76,77
 312 130 312 130 356 86 c 0,78,79
 400 42 400 42 400 -20 c 0,64,65
350 -20 m 0,80,81
 350 21 350 21 321 51 c 0,82,83
 291 80 291 80 250 80 c 0,84,85
 209 80 209 80 179 51 c 0,86,87
 150 21 150 21 150 -20 c 0,88,89
 150 -61 150 -61 179 -91 c 0,90,91
 209 -120 209 -120 250 -120 c 0,92,93
 291 -120 291 -120 321 -91 c 0,94,95
 350 -61 350 -61 350 -20 c 0,80,81
750 680 m 0,96,97
 750 618 750 618 706 574 c 0,98,99
 662 530 662 530 600 530 c 0,100,101
 538 530 538 530 494 574 c 0,102,103
 450 618 450 618 450 680 c 0,104,105
 450 742 450 742 494 786 c 0,106,107
 538 830 538 830 600 830 c 0,108,109
 662 830 662 830 706 786 c 0,110,111
 750 742 750 742 750 680 c 0,96,97
700 680 m 0,112,113
 700 721 700 721 671 751 c 0,114,115
 641 780 641 780 600 780 c 0,116,117
 559 780 559 780 529 751 c 0,118,119
 500 721 500 721 500 680 c 0,120,121
 500 639 500 639 529 609 c 0,122,123
 559 580 559 580 600 580 c 0,124,125
 641 580 641 580 671 609 c 0,126,127
 700 639 700 639 700 680 c 0,112,113
750 330 m 0,128,129
 750 268 750 268 706 224 c 0,130,131
 662 180 662 180 600 180 c 0,132,133
 538 180 538 180 494 224 c 0,134,135
 450 268 450 268 450 330 c 0,136,137
 450 392 450 392 494 436 c 0,138,139
 538 480 538 480 600 480 c 0,140,141
 662 480 662 480 706 436 c 0,142,143
 750 392 750 392 750 330 c 0,128,129
750 -20 m 0,144,145
 750 -82 750 -82 706 -126 c 0,146,147
 662 -170 662 -170 600 -170 c 0,148,149
 538 -170 538 -170 494 -126 c 0,150,151
 450 -82 450 -82 450 -20 c 0,152,153
 450 42 450 42 494 86 c 0,154,155
 538 130 538 130 600 130 c 0,156,157
 662 130 662 130 706 86 c 0,158,159
 750 42 750 42 750 -20 c 0,144,145
EndSplineSet
Validated: 1
EndChar

StartChar: uni2831
Encoding: 10289 10289 59
Width: 850
LayerCount: 2
Fore
SplineSet
400 680 m 0,0,1
 400 618 400 618 356 574 c 0,2,3
 312 530 312 530 250 530 c 0,4,5
 188 530 188 530 144 574 c 0,6,7
 100 618 100 618 100 680 c 0,8,9
 100 742 100 742 144 786 c 0,10,11
 188 830 188 830 250 830 c 0,12,13
 312 830 312 830 356 786 c 0,14,15
 400 742 400 742 400 680 c 0,0,1
400 330 m 0,16,17
 400 268 400 268 356 224 c 0,18,19
 312 180 312 180 250 180 c 0,20,21
 188 180 188 180 144 224 c 0,22,23
 100 268 100 268 100 330 c 0,24,25
 100 392 100 392 144 436 c 0,26,27
 188 480 188 480 250 480 c 0,28,29
 312 480 312 480 356 436 c 0,30,31
 400 392 400 392 400 330 c 0,16,17
350 330 m 0,32,33
 350 371 350 371 321 401 c 0,34,35
 291 430 291 430 250 430 c 0,36,37
 209 430 209 430 179 401 c 0,38,39
 150 371 150 371 150 330 c 0,40,41
 150 289 150 289 179 259 c 0,42,43
 209 230 209 230 250 230 c 0,44,45
 291 230 291 230 321 259 c 0,46,47
 350 289 350 289 350 330 c 0,32,33
400 -20 m 0,48,49
 400 -82 400 -82 356 -126 c 0,50,51
 312 -170 312 -170 250 -170 c 0,52,53
 188 -170 188 -170 144 -126 c 0,54,55
 100 -82 100 -82 100 -20 c 0,56,57
 100 42 100 42 144 86 c 0,58,59
 188 130 188 130 250 130 c 0,60,61
 312 130 312 130 356 86 c 0,62,63
 400 42 400 42 400 -20 c 0,48,49
350 -20 m 0,64,65
 350 21 350 21 321 51 c 0,66,67
 291 80 291 80 250 80 c 0,68,69
 209 80 209 80 179 51 c 0,70,71
 150 21 150 21 150 -20 c 0,72,73
 150 -61 150 -61 179 -91 c 0,74,75
 209 -120 209 -120 250 -120 c 0,76,77
 291 -120 291 -120 321 -91 c 0,78,79
 350 -61 350 -61 350 -20 c 0,64,65
750 680 m 0,80,81
 750 618 750 618 706 574 c 0,82,83
 662 530 662 530 600 530 c 0,84,85
 538 530 538 530 494 574 c 0,86,87
 450 618 450 618 450 680 c 0,88,89
 450 742 450 742 494 786 c 0,90,91
 538 830 538 830 600 830 c 0,92,93
 662 830 662 830 706 786 c 0,94,95
 750 742 750 742 750 680 c 0,80,81
700 680 m 0,96,97
 700 721 700 721 671 751 c 0,98,99
 641 780 641 780 600 780 c 0,100,101
 559 780 559 780 529 751 c 0,102,103
 500 721 500 721 500 680 c 0,104,105
 500 639 500 639 529 609 c 0,106,107
 559 580 559 580 600 580 c 0,108,109
 641 580 641 580 671 609 c 0,110,111
 700 639 700 639 700 680 c 0,96,97
750 330 m 0,112,113
 750 268 750 268 706 224 c 0,114,115
 662 180 662 180 600 180 c 0,116,117
 538 180 538 180 494 224 c 0,118,119
 450 268 450 268 450 330 c 0,120,121
 450 392 450 392 494 436 c 0,122,123
 538 480 538 480 600 480 c 0,124,125
 662 480 662 480 706 436 c 0,126,127
 750 392 750 392 750 330 c 0,112,113
750 -20 m 0,128,129
 750 -82 750 -82 706 -126 c 0,130,131
 662 -170 662 -170 600 -170 c 0,132,133
 538 -170 538 -170 494 -126 c 0,134,135
 450 -82 450 -82 450 -20 c 0,136,137
 450 42 450 42 494 86 c 0,138,139
 538 130 538 130 600 130 c 0,140,141
 662 130 662 130 706 86 c 0,142,143
 750 42 750 42 750 -20 c 0,128,129
EndSplineSet
Validated: 1
EndChar

StartChar: uni2832
Encoding: 10290 10290 60
Width: 850
LayerCount: 2
Fore
SplineSet
400 680 m 0,0,1
 400 618 400 618 356 574 c 0,2,3
 312 530 312 530 250 530 c 0,4,5
 188 530 188 530 144 574 c 0,6,7
 100 618 100 618 100 680 c 0,8,9
 100 742 100 742 144 786 c 0,10,11
 188 830 188 830 250 830 c 0,12,13
 312 830 312 830 356 786 c 0,14,15
 400 742 400 742 400 680 c 0,0,1
350 680 m 0,16,17
 350 721 350 721 321 751 c 0,18,19
 291 780 291 780 250 780 c 0,20,21
 209 780 209 780 179 751 c 0,22,23
 150 721 150 721 150 680 c 0,24,25
 150 639 150 639 179 609 c 0,26,27
 209 580 209 580 250 580 c 0,28,29
 291 580 291 580 321 609 c 0,30,31
 350 639 350 639 350 680 c 0,16,17
400 330 m 0,32,33
 400 268 400 268 356 224 c 0,34,35
 312 180 312 180 250 180 c 0,36,37
 188 180 188 180 144 224 c 0,38,39
 100 268 100 268 100 330 c 0,40,41
 100 392 100 392 144 436 c 0,42,43
 188 480 188 480 250 480 c 0,44,45
 312 480 312 480 356 436 c 0,46,47
 400 392 400 392 400 330 c 0,32,33
400 -20 m 0,48,49
 400 -82 400 -82 356 -126 c 0,50,51
 312 -170 312 -170 250 -170 c 0,52,53
 188 -170 188 -170 144 -126 c 0,54,55
 100 -82 100 -82 100 -20 c 0,56,57
 100 42 100 42 144 86 c 0,58,59
 188 130 188 130 250 130 c 0,60,61
 312 130 312 130 356 86 c 0,62,63
 400 42 400 42 400 -20 c 0,48,49
350 -20 m 0,64,65
 350 21 350 21 321 51 c 0,66,67
 291 80 291 80 250 80 c 0,68,69
 209 80 209 80 179 51 c 0,70,71
 150 21 150 21 150 -20 c 0,72,73
 150 -61 150 -61 179 -91 c 0,74,75
 209 -120 209 -120 250 -120 c 0,76,77
 291 -120 291 -120 321 -91 c 0,78,79
 350 -61 350 -61 350 -20 c 0,64,65
750 680 m 0,80,81
 750 618 750 618 706 574 c 0,82,83
 662 530 662 530 600 530 c 0,84,85
 538 530 538 530 494 574 c 0,86,87
 450 618 450 618 450 680 c 0,88,89
 450 742 450 742 494 786 c 0,90,91
 538 830 538 830 600 830 c 0,92,93
 662 830 662 830 706 786 c 0,94,95
 750 742 750 742 750 680 c 0,80,81
700 680 m 0,96,97
 700 721 700 721 671 751 c 0,98,99
 641 780 641 780 600 780 c 0,100,101
 559 780 559 780 529 751 c 0,102,103
 500 721 500 721 500 680 c 0,104,105
 500 639 500 639 529 609 c 0,106,107
 559 580 559 580 600 580 c 0,108,109
 641 580 641 580 671 609 c 0,110,111
 700 639 700 639 700 680 c 0,96,97
750 330 m 0,112,113
 750 268 750 268 706 224 c 0,114,115
 662 180 662 180 600 180 c 0,116,117
 538 180 538 180 494 224 c 0,118,119
 450 268 450 268 450 330 c 0,120,121
 450 392 450 392 494 436 c 0,122,123
 538 480 538 480 600 480 c 0,124,125
 662 480 662 480 706 436 c 0,126,127
 750 392 750 392 750 330 c 0,112,113
750 -20 m 0,128,129
 750 -82 750 -82 706 -126 c 0,130,131
 662 -170 662 -170 600 -170 c 0,132,133
 538 -170 538 -170 494 -126 c 0,134,135
 450 -82 450 -82 450 -20 c 0,136,137
 450 42 450 42 494 86 c 0,138,139
 538 130 538 130 600 130 c 0,140,141
 662 130 662 130 706 86 c 0,142,143
 750 42 750 42 750 -20 c 0,128,129
EndSplineSet
Validated: 1
EndChar

StartChar: uni2833
Encoding: 10291 10291 61
Width: 850
LayerCount: 2
Fore
SplineSet
400 680 m 0,0,1
 400 618 400 618 356 574 c 0,2,3
 312 530 312 530 250 530 c 0,4,5
 188 530 188 530 144 574 c 0,6,7
 100 618 100 618 100 680 c 0,8,9
 100 742 100 742 144 786 c 0,10,11
 188 830 188 830 250 830 c 0,12,13
 312 830 312 830 356 786 c 0,14,15
 400 742 400 742 400 680 c 0,0,1
400 330 m 0,16,17
 400 268 400 268 356 224 c 0,18,19
 312 180 312 180 250 180 c 0,20,21
 188 180 188 180 144 224 c 0,22,23
 100 268 100 268 100 330 c 0,24,25
 100 392 100 392 144 436 c 0,26,27
 188 480 188 480 250 480 c 0,28,29
 312 480 312 480 356 436 c 0,30,31
 400 392 400 392 400 330 c 0,16,17
400 -20 m 0,32,33
 400 -82 400 -82 356 -126 c 0,34,35
 312 -170 312 -170 250 -170 c 0,36,37
 188 -170 188 -170 144 -126 c 0,38,39
 100 -82 100 -82 100 -20 c 0,40,41
 100 42 100 42 144 86 c 0,42,43
 188 130 188 130 250 130 c 0,44,45
 312 130 312 130 356 86 c 0,46,47
 400 42 400 42 400 -20 c 0,32,33
350 -20 m 0,48,49
 350 21 350 21 321 51 c 0,50,51
 291 80 291 80 250 80 c 0,52,53
 209 80 209 80 179 51 c 0,54,55
 150 21 150 21 150 -20 c 0,56,57
 150 -61 150 -61 179 -91 c 0,58,59
 209 -120 209 -120 250 -120 c 0,60,61
 291 -120 291 -120 321 -91 c 0,62,63
 350 -61 350 -61 350 -20 c 0,48,49
750 680 m 0,64,65
 750 618 750 618 706 574 c 0,66,67
 662 530 662 530 600 530 c 0,68,69
 538 530 538 530 494 574 c 0,70,71
 450 618 450 618 450 680 c 0,72,73
 450 742 450 742 494 786 c 0,74,75
 538 830 538 830 600 830 c 0,76,77
 662 830 662 830 706 786 c 0,78,79
 750 742 750 742 750 680 c 0,64,65
700 680 m 0,80,81
 700 721 700 721 671 751 c 0,82,83
 641 780 641 780 600 780 c 0,84,85
 559 780 559 780 529 751 c 0,86,87
 500 721 500 721 500 680 c 0,88,89
 500 639 500 639 529 609 c 0,90,91
 559 580 559 580 600 580 c 0,92,93
 641 580 641 580 671 609 c 0,94,95
 700 639 700 639 700 680 c 0,80,81
750 330 m 0,96,97
 750 268 750 268 706 224 c 0,98,99
 662 180 662 180 600 180 c 0,100,101
 538 180 538 180 494 224 c 0,102,103
 450 268 450 268 450 330 c 0,104,105
 450 392 450 392 494 436 c 0,106,107
 538 480 538 480 600 480 c 0,108,109
 662 480 662 480 706 436 c 0,110,111
 750 392 750 392 750 330 c 0,96,97
750 -20 m 0,112,113
 750 -82 750 -82 706 -126 c 0,114,115
 662 -170 662 -170 600 -170 c 0,116,117
 538 -170 538 -170 494 -126 c 0,118,119
 450 -82 450 -82 450 -20 c 0,120,121
 450 42 450 42 494 86 c 0,122,123
 538 130 538 130 600 130 c 0,124,125
 662 130 662 130 706 86 c 0,126,127
 750 42 750 42 750 -20 c 0,112,113
EndSplineSet
Validated: 1
EndChar

StartChar: uni2834
Encoding: 10292 10292 62
Width: 850
LayerCount: 2
Fore
SplineSet
400 680 m 0,0,1
 400 618 400 618 356 574 c 0,2,3
 312 530 312 530 250 530 c 0,4,5
 188 530 188 530 144 574 c 0,6,7
 100 618 100 618 100 680 c 0,8,9
 100 742 100 742 144 786 c 0,10,11
 188 830 188 830 250 830 c 0,12,13
 312 830 312 830 356 786 c 0,14,15
 400 742 400 742 400 680 c 0,0,1
350 680 m 0,16,17
 350 721 350 721 321 751 c 0,18,19
 291 780 291 780 250 780 c 0,20,21
 209 780 209 780 179 751 c 0,22,23
 150 721 150 721 150 680 c 0,24,25
 150 639 150 639 179 609 c 0,26,27
 209 580 209 580 250 580 c 0,28,29
 291 580 291 580 321 609 c 0,30,31
 350 639 350 639 350 680 c 0,16,17
400 330 m 0,32,33
 400 268 400 268 356 224 c 0,34,35
 312 180 312 180 250 180 c 0,36,37
 188 180 188 180 144 224 c 0,38,39
 100 268 100 268 100 330 c 0,40,41
 100 392 100 392 144 436 c 0,42,43
 188 480 188 480 250 480 c 0,44,45
 312 480 312 480 356 436 c 0,46,47
 400 392 400 392 400 330 c 0,32,33
350 330 m 0,48,49
 350 371 350 371 321 401 c 0,50,51
 291 430 291 430 250 430 c 0,52,53
 209 430 209 430 179 401 c 0,54,55
 150 371 150 371 150 330 c 0,56,57
 150 289 150 289 179 259 c 0,58,59
 209 230 209 230 250 230 c 0,60,61
 291 230 291 230 321 259 c 0,62,63
 350 289 350 289 350 330 c 0,48,49
400 -20 m 0,64,65
 400 -82 400 -82 356 -126 c 0,66,67
 312 -170 312 -170 250 -170 c 0,68,69
 188 -170 188 -170 144 -126 c 0,70,71
 100 -82 100 -82 100 -20 c 0,72,73
 100 42 100 42 144 86 c 0,74,75
 188 130 188 130 250 130 c 0,76,77
 312 130 312 130 356 86 c 0,78,79
 400 42 400 42 400 -20 c 0,64,65
750 680 m 0,80,81
 750 618 750 618 706 574 c 0,82,83
 662 530 662 530 600 530 c 0,84,85
 538 530 538 530 494 574 c 0,86,87
 450 618 450 618 450 680 c 0,88,89
 450 742 450 742 494 786 c 0,90,91
 538 830 538 830 600 830 c 0,92,93
 662 830 662 830 706 786 c 0,94,95
 750 742 750 742 750 680 c 0,80,81
700 680 m 0,96,97
 700 721 700 721 671 751 c 0,98,99
 641 780 641 780 600 780 c 0,100,101
 559 780 559 780 529 751 c 0,102,103
 500 721 500 721 500 680 c 0,104,105
 500 639 500 639 529 609 c 0,106,107
 559 580 559 580 600 580 c 0,108,109
 641 580 641 580 671 609 c 0,110,111
 700 639 700 639 700 680 c 0,96,97
750 330 m 0,112,113
 750 268 750 268 706 224 c 0,114,115
 662 180 662 180 600 180 c 0,116,117
 538 180 538 180 494 224 c 0,118,119
 450 268 450 268 450 330 c 0,120,121
 450 392 450 392 494 436 c 0,122,123
 538 480 538 480 600 480 c 0,124,125
 662 480 662 480 706 436 c 0,126,127
 750 392 750 392 750 330 c 0,112,113
750 -20 m 0,128,129
 750 -82 750 -82 706 -126 c 0,130,131
 662 -170 662 -170 600 -170 c 0,132,133
 538 -170 538 -170 494 -126 c 0,134,135
 450 -82 450 -82 450 -20 c 0,136,137
 450 42 450 42 494 86 c 0,138,139
 538 130 538 130 600 130 c 0,140,141
 662 130 662 130 706 86 c 0,142,143
 750 42 750 42 750 -20 c 0,128,129
EndSplineSet
Validated: 1
EndChar

StartChar: uni2835
Encoding: 10293 10293 63
Width: 850
LayerCount: 2
Fore
SplineSet
400 680 m 0,0,1
 400 618 400 618 356 574 c 0,2,3
 312 530 312 530 250 530 c 0,4,5
 188 530 188 530 144 574 c 0,6,7
 100 618 100 618 100 680 c 0,8,9
 100 742 100 742 144 786 c 0,10,11
 188 830 188 830 250 830 c 0,12,13
 312 830 312 830 356 786 c 0,14,15
 400 742 400 742 400 680 c 0,0,1
400 330 m 0,16,17
 400 268 400 268 356 224 c 0,18,19
 312 180 312 180 250 180 c 0,20,21
 188 180 188 180 144 224 c 0,22,23
 100 268 100 268 100 330 c 0,24,25
 100 392 100 392 144 436 c 0,26,27
 188 480 188 480 250 480 c 0,28,29
 312 480 312 480 356 436 c 0,30,31
 400 392 400 392 400 330 c 0,16,17
350 330 m 0,32,33
 350 371 350 371 321 401 c 0,34,35
 291 430 291 430 250 430 c 0,36,37
 209 430 209 430 179 401 c 0,38,39
 150 371 150 371 150 330 c 0,40,41
 150 289 150 289 179 259 c 0,42,43
 209 230 209 230 250 230 c 0,44,45
 291 230 291 230 321 259 c 0,46,47
 350 289 350 289 350 330 c 0,32,33
400 -20 m 0,48,49
 400 -82 400 -82 356 -126 c 0,50,51
 312 -170 312 -170 250 -170 c 0,52,53
 188 -170 188 -170 144 -126 c 0,54,55
 100 -82 100 -82 100 -20 c 0,56,57
 100 42 100 42 144 86 c 0,58,59
 188 130 188 130 250 130 c 0,60,61
 312 130 312 130 356 86 c 0,62,63
 400 42 400 42 400 -20 c 0,48,49
750 680 m 0,64,65
 750 618 750 618 706 574 c 0,66,67
 662 530 662 530 600 530 c 0,68,69
 538 530 538 530 494 574 c 0,70,71
 450 618 450 618 450 680 c 0,72,73
 450 742 450 742 494 786 c 0,74,75
 538 830 538 830 600 830 c 0,76,77
 662 830 662 830 706 786 c 0,78,79
 750 742 750 742 750 680 c 0,64,65
700 680 m 0,80,81
 700 721 700 721 671 751 c 0,82,83
 641 780 641 780 600 780 c 0,84,85
 559 780 559 780 529 751 c 0,86,87
 500 721 500 721 500 680 c 0,88,89
 500 639 500 639 529 609 c 0,90,91
 559 580 559 580 600 580 c 0,92,93
 641 580 641 580 671 609 c 0,94,95
 700 639 700 639 700 680 c 0,80,81
750 330 m 0,96,97
 750 268 750 268 706 224 c 0,98,99
 662 180 662 180 600 180 c 0,100,101
 538 180 538 180 494 224 c 0,102,103
 450 268 450 268 450 330 c 0,104,105
 450 392 450 392 494 436 c 0,106,107
 538 480 538 480 600 480 c 0,108,109
 662 480 662 480 706 436 c 0,110,111
 750 392 750 392 750 330 c 0,96,97
750 -20 m 0,112,113
 750 -82 750 -82 706 -126 c 0,114,115
 662 -170 662 -170 600 -170 c 0,116,117
 538 -170 538 -170 494 -126 c 0,118,119
 450 -82 450 -82 450 -20 c 0,120,121
 450 42 450 42 494 86 c 0,122,123
 538 130 538 130 600 130 c 0,124,125
 662 130 662 130 706 86 c 0,126,127
 750 42 750 42 750 -20 c 0,112,113
EndSplineSet
Validated: 1
EndChar

StartChar: uni2836
Encoding: 10294 10294 64
Width: 850
LayerCount: 2
Fore
SplineSet
400 680 m 0,0,1
 400 618 400 618 356 574 c 0,2,3
 312 530 312 530 250 530 c 0,4,5
 188 530 188 530 144 574 c 0,6,7
 100 618 100 618 100 680 c 0,8,9
 100 742 100 742 144 786 c 0,10,11
 188 830 188 830 250 830 c 0,12,13
 312 830 312 830 356 786 c 0,14,15
 400 742 400 742 400 680 c 0,0,1
350 680 m 0,16,17
 350 721 350 721 321 751 c 0,18,19
 291 780 291 780 250 780 c 0,20,21
 209 780 209 780 179 751 c 0,22,23
 150 721 150 721 150 680 c 0,24,25
 150 639 150 639 179 609 c 0,26,27
 209 580 209 580 250 580 c 0,28,29
 291 580 291 580 321 609 c 0,30,31
 350 639 350 639 350 680 c 0,16,17
400 330 m 0,32,33
 400 268 400 268 356 224 c 0,34,35
 312 180 312 180 250 180 c 0,36,37
 188 180 188 180 144 224 c 0,38,39
 100 268 100 268 100 330 c 0,40,41
 100 392 100 392 144 436 c 0,42,43
 188 480 188 480 250 480 c 0,44,45
 312 480 312 480 356 436 c 0,46,47
 400 392 400 392 400 330 c 0,32,33
400 -20 m 0,48,49
 400 -82 400 -82 356 -126 c 0,50,51
 312 -170 312 -170 250 -170 c 0,52,53
 188 -170 188 -170 144 -126 c 0,54,55
 100 -82 100 -82 100 -20 c 0,56,57
 100 42 100 42 144 86 c 0,58,59
 188 130 188 130 250 130 c 0,60,61
 312 130 312 130 356 86 c 0,62,63
 400 42 400 42 400 -20 c 0,48,49
750 680 m 0,64,65
 750 618 750 618 706 574 c 0,66,67
 662 530 662 530 600 530 c 0,68,69
 538 530 538 530 494 574 c 0,70,71
 450 618 450 618 450 680 c 0,72,73
 450 742 450 742 494 786 c 0,74,75
 538 830 538 830 600 830 c 0,76,77
 662 830 662 830 706 786 c 0,78,79
 750 742 750 742 750 680 c 0,64,65
700 680 m 0,80,81
 700 721 700 721 671 751 c 0,82,83
 641 780 641 780 600 780 c 0,84,85
 559 780 559 780 529 751 c 0,86,87
 500 721 500 721 500 680 c 0,88,89
 500 639 500 639 529 609 c 0,90,91
 559 580 559 580 600 580 c 0,92,93
 641 580 641 580 671 609 c 0,94,95
 700 639 700 639 700 680 c 0,80,81
750 330 m 0,96,97
 750 268 750 268 706 224 c 0,98,99
 662 180 662 180 600 180 c 0,100,101
 538 180 538 180 494 224 c 0,102,103
 450 268 450 268 450 330 c 0,104,105
 450 392 450 392 494 436 c 0,106,107
 538 480 538 480 600 480 c 0,108,109
 662 480 662 480 706 436 c 0,110,111
 750 392 750 392 750 330 c 0,96,97
750 -20 m 0,112,113
 750 -82 750 -82 706 -126 c 0,114,115
 662 -170 662 -170 600 -170 c 0,116,117
 538 -170 538 -170 494 -126 c 0,118,119
 450 -82 450 -82 450 -20 c 0,120,121
 450 42 450 42 494 86 c 0,122,123
 538 130 538 130 600 130 c 0,124,125
 662 130 662 130 706 86 c 0,126,127
 750 42 750 42 750 -20 c 0,112,113
EndSplineSet
Validated: 1
EndChar

StartChar: uni2837
Encoding: 10295 10295 65
Width: 850
LayerCount: 2
Fore
SplineSet
400 680 m 0,0,1
 400 618 400 618 356 574 c 0,2,3
 312 530 312 530 250 530 c 0,4,5
 188 530 188 530 144 574 c 0,6,7
 100 618 100 618 100 680 c 0,8,9
 100 742 100 742 144 786 c 0,10,11
 188 830 188 830 250 830 c 0,12,13
 312 830 312 830 356 786 c 0,14,15
 400 742 400 742 400 680 c 0,0,1
400 330 m 0,16,17
 400 268 400 268 356 224 c 0,18,19
 312 180 312 180 250 180 c 0,20,21
 188 180 188 180 144 224 c 0,22,23
 100 268 100 268 100 330 c 0,24,25
 100 392 100 392 144 436 c 0,26,27
 188 480 188 480 250 480 c 0,28,29
 312 480 312 480 356 436 c 0,30,31
 400 392 400 392 400 330 c 0,16,17
400 -20 m 0,32,33
 400 -82 400 -82 356 -126 c 0,34,35
 312 -170 312 -170 250 -170 c 0,36,37
 188 -170 188 -170 144 -126 c 0,38,39
 100 -82 100 -82 100 -20 c 0,40,41
 100 42 100 42 144 86 c 0,42,43
 188 130 188 130 250 130 c 0,44,45
 312 130 312 130 356 86 c 0,46,47
 400 42 400 42 400 -20 c 0,32,33
750 680 m 0,48,49
 750 618 750 618 706 574 c 0,50,51
 662 530 662 530 600 530 c 0,52,53
 538 530 538 530 494 574 c 0,54,55
 450 618 450 618 450 680 c 0,56,57
 450 742 450 742 494 786 c 0,58,59
 538 830 538 830 600 830 c 0,60,61
 662 830 662 830 706 786 c 0,62,63
 750 742 750 742 750 680 c 0,48,49
700 680 m 0,64,65
 700 721 700 721 671 751 c 0,66,67
 641 780 641 780 600 780 c 0,68,69
 559 780 559 780 529 751 c 0,70,71
 500 721 500 721 500 680 c 0,72,73
 500 639 500 639 529 609 c 0,74,75
 559 580 559 580 600 580 c 0,76,77
 641 580 641 580 671 609 c 0,78,79
 700 639 700 639 700 680 c 0,64,65
750 330 m 0,80,81
 750 268 750 268 706 224 c 0,82,83
 662 180 662 180 600 180 c 0,84,85
 538 180 538 180 494 224 c 0,86,87
 450 268 450 268 450 330 c 0,88,89
 450 392 450 392 494 436 c 0,90,91
 538 480 538 480 600 480 c 0,92,93
 662 480 662 480 706 436 c 0,94,95
 750 392 750 392 750 330 c 0,80,81
750 -20 m 0,96,97
 750 -82 750 -82 706 -126 c 0,98,99
 662 -170 662 -170 600 -170 c 0,100,101
 538 -170 538 -170 494 -126 c 0,102,103
 450 -82 450 -82 450 -20 c 0,104,105
 450 42 450 42 494 86 c 0,106,107
 538 130 538 130 600 130 c 0,108,109
 662 130 662 130 706 86 c 0,110,111
 750 42 750 42 750 -20 c 0,96,97
EndSplineSet
Validated: 1
EndChar

StartChar: uni2838
Encoding: 10296 10296 66
Width: 850
LayerCount: 2
Fore
SplineSet
400 680 m 0,0,1
 400 618 400 618 356 574 c 0,2,3
 312 530 312 530 250 530 c 0,4,5
 188 530 188 530 144 574 c 0,6,7
 100 618 100 618 100 680 c 0,8,9
 100 742 100 742 144 786 c 0,10,11
 188 830 188 830 250 830 c 0,12,13
 312 830 312 830 356 786 c 0,14,15
 400 742 400 742 400 680 c 0,0,1
350 680 m 0,16,17
 350 721 350 721 321 751 c 0,18,19
 291 780 291 780 250 780 c 0,20,21
 209 780 209 780 179 751 c 0,22,23
 150 721 150 721 150 680 c 0,24,25
 150 639 150 639 179 609 c 0,26,27
 209 580 209 580 250 580 c 0,28,29
 291 580 291 580 321 609 c 0,30,31
 350 639 350 639 350 680 c 0,16,17
400 330 m 0,32,33
 400 268 400 268 356 224 c 0,34,35
 312 180 312 180 250 180 c 0,36,37
 188 180 188 180 144 224 c 0,38,39
 100 268 100 268 100 330 c 0,40,41
 100 392 100 392 144 436 c 0,42,43
 188 480 188 480 250 480 c 0,44,45
 312 480 312 480 356 436 c 0,46,47
 400 392 400 392 400 330 c 0,32,33
350 330 m 0,48,49
 350 371 350 371 321 401 c 0,50,51
 291 430 291 430 250 430 c 0,52,53
 209 430 209 430 179 401 c 0,54,55
 150 371 150 371 150 330 c 0,56,57
 150 289 150 289 179 259 c 0,58,59
 209 230 209 230 250 230 c 0,60,61
 291 230 291 230 321 259 c 0,62,63
 350 289 350 289 350 330 c 0,48,49
400 -20 m 0,64,65
 400 -82 400 -82 356 -126 c 0,66,67
 312 -170 312 -170 250 -170 c 0,68,69
 188 -170 188 -170 144 -126 c 0,70,71
 100 -82 100 -82 100 -20 c 0,72,73
 100 42 100 42 144 86 c 0,74,75
 188 130 188 130 250 130 c 0,76,77
 312 130 312 130 356 86 c 0,78,79
 400 42 400 42 400 -20 c 0,64,65
350 -20 m 0,80,81
 350 21 350 21 321 51 c 0,82,83
 291 80 291 80 250 80 c 0,84,85
 209 80 209 80 179 51 c 0,86,87
 150 21 150 21 150 -20 c 0,88,89
 150 -61 150 -61 179 -91 c 0,90,91
 209 -120 209 -120 250 -120 c 0,92,93
 291 -120 291 -120 321 -91 c 0,94,95
 350 -61 350 -61 350 -20 c 0,80,81
750 680 m 0,96,97
 750 618 750 618 706 574 c 0,98,99
 662 530 662 530 600 530 c 0,100,101
 538 530 538 530 494 574 c 0,102,103
 450 618 450 618 450 680 c 0,104,105
 450 742 450 742 494 786 c 0,106,107
 538 830 538 830 600 830 c 0,108,109
 662 830 662 830 706 786 c 0,110,111
 750 742 750 742 750 680 c 0,96,97
750 330 m 0,112,113
 750 268 750 268 706 224 c 0,114,115
 662 180 662 180 600 180 c 0,116,117
 538 180 538 180 494 224 c 0,118,119
 450 268 450 268 450 330 c 0,120,121
 450 392 450 392 494 436 c 0,122,123
 538 480 538 480 600 480 c 0,124,125
 662 480 662 480 706 436 c 0,126,127
 750 392 750 392 750 330 c 0,112,113
750 -20 m 0,128,129
 750 -82 750 -82 706 -126 c 0,130,131
 662 -170 662 -170 600 -170 c 0,132,133
 538 -170 538 -170 494 -126 c 0,134,135
 450 -82 450 -82 450 -20 c 0,136,137
 450 42 450 42 494 86 c 0,138,139
 538 130 538 130 600 130 c 0,140,141
 662 130 662 130 706 86 c 0,142,143
 750 42 750 42 750 -20 c 0,128,129
EndSplineSet
Validated: 1
EndChar

StartChar: uni2839
Encoding: 10297 10297 67
Width: 850
LayerCount: 2
Fore
SplineSet
400 680 m 0,0,1
 400 618 400 618 356 574 c 0,2,3
 312 530 312 530 250 530 c 0,4,5
 188 530 188 530 144 574 c 0,6,7
 100 618 100 618 100 680 c 0,8,9
 100 742 100 742 144 786 c 0,10,11
 188 830 188 830 250 830 c 0,12,13
 312 830 312 830 356 786 c 0,14,15
 400 742 400 742 400 680 c 0,0,1
400 330 m 0,16,17
 400 268 400 268 356 224 c 0,18,19
 312 180 312 180 250 180 c 0,20,21
 188 180 188 180 144 224 c 0,22,23
 100 268 100 268 100 330 c 0,24,25
 100 392 100 392 144 436 c 0,26,27
 188 480 188 480 250 480 c 0,28,29
 312 480 312 480 356 436 c 0,30,31
 400 392 400 392 400 330 c 0,16,17
350 330 m 0,32,33
 350 371 350 371 321 401 c 0,34,35
 291 430 291 430 250 430 c 0,36,37
 209 430 209 430 179 401 c 0,38,39
 150 371 150 371 150 330 c 0,40,41
 150 289 150 289 179 259 c 0,42,43
 209 230 209 230 250 230 c 0,44,45
 291 230 291 230 321 259 c 0,46,47
 350 289 350 289 350 330 c 0,32,33
400 -20 m 0,48,49
 400 -82 400 -82 356 -126 c 0,50,51
 312 -170 312 -170 250 -170 c 0,52,53
 188 -170 188 -170 144 -126 c 0,54,55
 100 -82 100 -82 100 -20 c 0,56,57
 100 42 100 42 144 86 c 0,58,59
 188 130 188 130 250 130 c 0,60,61
 312 130 312 130 356 86 c 0,62,63
 400 42 400 42 400 -20 c 0,48,49
350 -20 m 0,64,65
 350 21 350 21 321 51 c 0,66,67
 291 80 291 80 250 80 c 0,68,69
 209 80 209 80 179 51 c 0,70,71
 150 21 150 21 150 -20 c 0,72,73
 150 -61 150 -61 179 -91 c 0,74,75
 209 -120 209 -120 250 -120 c 0,76,77
 291 -120 291 -120 321 -91 c 0,78,79
 350 -61 350 -61 350 -20 c 0,64,65
750 680 m 0,80,81
 750 618 750 618 706 574 c 0,82,83
 662 530 662 530 600 530 c 0,84,85
 538 530 538 530 494 574 c 0,86,87
 450 618 450 618 450 680 c 0,88,89
 450 742 450 742 494 786 c 0,90,91
 538 830 538 830 600 830 c 0,92,93
 662 830 662 830 706 786 c 0,94,95
 750 742 750 742 750 680 c 0,80,81
750 330 m 0,96,97
 750 268 750 268 706 224 c 0,98,99
 662 180 662 180 600 180 c 0,100,101
 538 180 538 180 494 224 c 0,102,103
 450 268 450 268 450 330 c 0,104,105
 450 392 450 392 494 436 c 0,106,107
 538 480 538 480 600 480 c 0,108,109
 662 480 662 480 706 436 c 0,110,111
 750 392 750 392 750 330 c 0,96,97
750 -20 m 0,112,113
 750 -82 750 -82 706 -126 c 0,114,115
 662 -170 662 -170 600 -170 c 0,116,117
 538 -170 538 -170 494 -126 c 0,118,119
 450 -82 450 -82 450 -20 c 0,120,121
 450 42 450 42 494 86 c 0,122,123
 538 130 538 130 600 130 c 0,124,125
 662 130 662 130 706 86 c 0,126,127
 750 42 750 42 750 -20 c 0,112,113
EndSplineSet
Validated: 1
EndChar

StartChar: uni283a
Encoding: 10298 10298 68
Width: 850
LayerCount: 2
Fore
SplineSet
400 680 m 0,0,1
 400 618 400 618 356 574 c 0,2,3
 312 530 312 530 250 530 c 0,4,5
 188 530 188 530 144 574 c 0,6,7
 100 618 100 618 100 680 c 0,8,9
 100 742 100 742 144 786 c 0,10,11
 188 830 188 830 250 830 c 0,12,13
 312 830 312 830 356 786 c 0,14,15
 400 742 400 742 400 680 c 0,0,1
350 680 m 0,16,17
 350 721 350 721 321 751 c 0,18,19
 291 780 291 780 250 780 c 0,20,21
 209 780 209 780 179 751 c 0,22,23
 150 721 150 721 150 680 c 0,24,25
 150 639 150 639 179 609 c 0,26,27
 209 580 209 580 250 580 c 0,28,29
 291 580 291 580 321 609 c 0,30,31
 350 639 350 639 350 680 c 0,16,17
400 330 m 0,32,33
 400 268 400 268 356 224 c 0,34,35
 312 180 312 180 250 180 c 0,36,37
 188 180 188 180 144 224 c 0,38,39
 100 268 100 268 100 330 c 0,40,41
 100 392 100 392 144 436 c 0,42,43
 188 480 188 480 250 480 c 0,44,45
 312 480 312 480 356 436 c 0,46,47
 400 392 400 392 400 330 c 0,32,33
400 -20 m 0,48,49
 400 -82 400 -82 356 -126 c 0,50,51
 312 -170 312 -170 250 -170 c 0,52,53
 188 -170 188 -170 144 -126 c 0,54,55
 100 -82 100 -82 100 -20 c 0,56,57
 100 42 100 42 144 86 c 0,58,59
 188 130 188 130 250 130 c 0,60,61
 312 130 312 130 356 86 c 0,62,63
 400 42 400 42 400 -20 c 0,48,49
350 -20 m 0,64,65
 350 21 350 21 321 51 c 0,66,67
 291 80 291 80 250 80 c 0,68,69
 209 80 209 80 179 51 c 0,70,71
 150 21 150 21 150 -20 c 0,72,73
 150 -61 150 -61 179 -91 c 0,74,75
 209 -120 209 -120 250 -120 c 0,76,77
 291 -120 291 -120 321 -91 c 0,78,79
 350 -61 350 -61 350 -20 c 0,64,65
750 680 m 0,80,81
 750 618 750 618 706 574 c 0,82,83
 662 530 662 530 600 530 c 0,84,85
 538 530 538 530 494 574 c 0,86,87
 450 618 450 618 450 680 c 0,88,89
 450 742 450 742 494 786 c 0,90,91
 538 830 538 830 600 830 c 0,92,93
 662 830 662 830 706 786 c 0,94,95
 750 742 750 742 750 680 c 0,80,81
750 330 m 0,96,97
 750 268 750 268 706 224 c 0,98,99
 662 180 662 180 600 180 c 0,100,101
 538 180 538 180 494 224 c 0,102,103
 450 268 450 268 450 330 c 0,104,105
 450 392 450 392 494 436 c 0,106,107
 538 480 538 480 600 480 c 0,108,109
 662 480 662 480 706 436 c 0,110,111
 750 392 750 392 750 330 c 0,96,97
750 -20 m 0,112,113
 750 -82 750 -82 706 -126 c 0,114,115
 662 -170 662 -170 600 -170 c 0,116,117
 538 -170 538 -170 494 -126 c 0,118,119
 450 -82 450 -82 450 -20 c 0,120,121
 450 42 450 42 494 86 c 0,122,123
 538 130 538 130 600 130 c 0,124,125
 662 130 662 130 706 86 c 0,126,127
 750 42 750 42 750 -20 c 0,112,113
EndSplineSet
Validated: 1
EndChar

StartChar: uni283b
Encoding: 10299 10299 69
Width: 850
LayerCount: 2
Fore
SplineSet
400 680 m 0,0,1
 400 618 400 618 356 574 c 0,2,3
 312 530 312 530 250 530 c 0,4,5
 188 530 188 530 144 574 c 0,6,7
 100 618 100 618 100 680 c 0,8,9
 100 742 100 742 144 786 c 0,10,11
 188 830 188 830 250 830 c 0,12,13
 312 830 312 830 356 786 c 0,14,15
 400 742 400 742 400 680 c 0,0,1
400 330 m 0,16,17
 400 268 400 268 356 224 c 0,18,19
 312 180 312 180 250 180 c 0,20,21
 188 180 188 180 144 224 c 0,22,23
 100 268 100 268 100 330 c 0,24,25
 100 392 100 392 144 436 c 0,26,27
 188 480 188 480 250 480 c 0,28,29
 312 480 312 480 356 436 c 0,30,31
 400 392 400 392 400 330 c 0,16,17
400 -20 m 0,32,33
 400 -82 400 -82 356 -126 c 0,34,35
 312 -170 312 -170 250 -170 c 0,36,37
 188 -170 188 -170 144 -126 c 0,38,39
 100 -82 100 -82 100 -20 c 0,40,41
 100 42 100 42 144 86 c 0,42,43
 188 130 188 130 250 130 c 0,44,45
 312 130 312 130 356 86 c 0,46,47
 400 42 400 42 400 -20 c 0,32,33
350 -20 m 0,48,49
 350 21 350 21 321 51 c 0,50,51
 291 80 291 80 250 80 c 0,52,53
 209 80 209 80 179 51 c 0,54,55
 150 21 150 21 150 -20 c 0,56,57
 150 -61 150 -61 179 -91 c 0,58,59
 209 -120 209 -120 250 -120 c 0,60,61
 291 -120 291 -120 321 -91 c 0,62,63
 350 -61 350 -61 350 -20 c 0,48,49
750 680 m 0,64,65
 750 618 750 618 706 574 c 0,66,67
 662 530 662 530 600 530 c 0,68,69
 538 530 538 530 494 574 c 0,70,71
 450 618 450 618 450 680 c 0,72,73
 450 742 450 742 494 786 c 0,74,75
 538 830 538 830 600 830 c 0,76,77
 662 830 662 830 706 786 c 0,78,79
 750 742 750 742 750 680 c 0,64,65
750 330 m 0,80,81
 750 268 750 268 706 224 c 0,82,83
 662 180 662 180 600 180 c 0,84,85
 538 180 538 180 494 224 c 0,86,87
 450 268 450 268 450 330 c 0,88,89
 450 392 450 392 494 436 c 0,90,91
 538 480 538 480 600 480 c 0,92,93
 662 480 662 480 706 436 c 0,94,95
 750 392 750 392 750 330 c 0,80,81
750 -20 m 0,96,97
 750 -82 750 -82 706 -126 c 0,98,99
 662 -170 662 -170 600 -170 c 0,100,101
 538 -170 538 -170 494 -126 c 0,102,103
 450 -82 450 -82 450 -20 c 0,104,105
 450 42 450 42 494 86 c 0,106,107
 538 130 538 130 600 130 c 0,108,109
 662 130 662 130 706 86 c 0,110,111
 750 42 750 42 750 -20 c 0,96,97
EndSplineSet
Validated: 1
EndChar

StartChar: uni283c
Encoding: 10300 10300 70
Width: 850
LayerCount: 2
Fore
SplineSet
400 680 m 0,0,1
 400 618 400 618 356 574 c 0,2,3
 312 530 312 530 250 530 c 0,4,5
 188 530 188 530 144 574 c 0,6,7
 100 618 100 618 100 680 c 0,8,9
 100 742 100 742 144 786 c 0,10,11
 188 830 188 830 250 830 c 0,12,13
 312 830 312 830 356 786 c 0,14,15
 400 742 400 742 400 680 c 0,0,1
350 680 m 0,16,17
 350 721 350 721 321 751 c 0,18,19
 291 780 291 780 250 780 c 0,20,21
 209 780 209 780 179 751 c 0,22,23
 150 721 150 721 150 680 c 0,24,25
 150 639 150 639 179 609 c 0,26,27
 209 580 209 580 250 580 c 0,28,29
 291 580 291 580 321 609 c 0,30,31
 350 639 350 639 350 680 c 0,16,17
400 330 m 0,32,33
 400 268 400 268 356 224 c 0,34,35
 312 180 312 180 250 180 c 0,36,37
 188 180 188 180 144 224 c 0,38,39
 100 268 100 268 100 330 c 0,40,41
 100 392 100 392 144 436 c 0,42,43
 188 480 188 480 250 480 c 0,44,45
 312 480 312 480 356 436 c 0,46,47
 400 392 400 392 400 330 c 0,32,33
350 330 m 0,48,49
 350 371 350 371 321 401 c 0,50,51
 291 430 291 430 250 430 c 0,52,53
 209 430 209 430 179 401 c 0,54,55
 150 371 150 371 150 330 c 0,56,57
 150 289 150 289 179 259 c 0,58,59
 209 230 209 230 250 230 c 0,60,61
 291 230 291 230 321 259 c 0,62,63
 350 289 350 289 350 330 c 0,48,49
400 -20 m 0,64,65
 400 -82 400 -82 356 -126 c 0,66,67
 312 -170 312 -170 250 -170 c 0,68,69
 188 -170 188 -170 144 -126 c 0,70,71
 100 -82 100 -82 100 -20 c 0,72,73
 100 42 100 42 144 86 c 0,74,75
 188 130 188 130 250 130 c 0,76,77
 312 130 312 130 356 86 c 0,78,79
 400 42 400 42 400 -20 c 0,64,65
750 680 m 0,80,81
 750 618 750 618 706 574 c 0,82,83
 662 530 662 530 600 530 c 0,84,85
 538 530 538 530 494 574 c 0,86,87
 450 618 450 618 450 680 c 0,88,89
 450 742 450 742 494 786 c 0,90,91
 538 830 538 830 600 830 c 0,92,93
 662 830 662 830 706 786 c 0,94,95
 750 742 750 742 750 680 c 0,80,81
750 330 m 0,96,97
 750 268 750 268 706 224 c 0,98,99
 662 180 662 180 600 180 c 0,100,101
 538 180 538 180 494 224 c 0,102,103
 450 268 450 268 450 330 c 0,104,105
 450 392 450 392 494 436 c 0,106,107
 538 480 538 480 600 480 c 0,108,109
 662 480 662 480 706 436 c 0,110,111
 750 392 750 392 750 330 c 0,96,97
750 -20 m 0,112,113
 750 -82 750 -82 706 -126 c 0,114,115
 662 -170 662 -170 600 -170 c 0,116,117
 538 -170 538 -170 494 -126 c 0,118,119
 450 -82 450 -82 450 -20 c 0,120,121
 450 42 450 42 494 86 c 0,122,123
 538 130 538 130 600 130 c 0,124,125
 662 130 662 130 706 86 c 0,126,127
 750 42 750 42 750 -20 c 0,112,113
EndSplineSet
Validated: 1
EndChar

StartChar: uni283d
Encoding: 10301 10301 71
Width: 850
LayerCount: 2
Fore
SplineSet
400 680 m 0,0,1
 400 618 400 618 356 574 c 0,2,3
 312 530 312 530 250 530 c 0,4,5
 188 530 188 530 144 574 c 0,6,7
 100 618 100 618 100 680 c 0,8,9
 100 742 100 742 144 786 c 0,10,11
 188 830 188 830 250 830 c 0,12,13
 312 830 312 830 356 786 c 0,14,15
 400 742 400 742 400 680 c 0,0,1
400 330 m 0,16,17
 400 268 400 268 356 224 c 0,18,19
 312 180 312 180 250 180 c 0,20,21
 188 180 188 180 144 224 c 0,22,23
 100 268 100 268 100 330 c 0,24,25
 100 392 100 392 144 436 c 0,26,27
 188 480 188 480 250 480 c 0,28,29
 312 480 312 480 356 436 c 0,30,31
 400 392 400 392 400 330 c 0,16,17
350 330 m 0,32,33
 350 371 350 371 321 401 c 0,34,35
 291 430 291 430 250 430 c 0,36,37
 209 430 209 430 179 401 c 0,38,39
 150 371 150 371 150 330 c 0,40,41
 150 289 150 289 179 259 c 0,42,43
 209 230 209 230 250 230 c 0,44,45
 291 230 291 230 321 259 c 0,46,47
 350 289 350 289 350 330 c 0,32,33
400 -20 m 0,48,49
 400 -82 400 -82 356 -126 c 0,50,51
 312 -170 312 -170 250 -170 c 0,52,53
 188 -170 188 -170 144 -126 c 0,54,55
 100 -82 100 -82 100 -20 c 0,56,57
 100 42 100 42 144 86 c 0,58,59
 188 130 188 130 250 130 c 0,60,61
 312 130 312 130 356 86 c 0,62,63
 400 42 400 42 400 -20 c 0,48,49
750 680 m 0,64,65
 750 618 750 618 706 574 c 0,66,67
 662 530 662 530 600 530 c 0,68,69
 538 530 538 530 494 574 c 0,70,71
 450 618 450 618 450 680 c 0,72,73
 450 742 450 742 494 786 c 0,74,75
 538 830 538 830 600 830 c 0,76,77
 662 830 662 830 706 786 c 0,78,79
 750 742 750 742 750 680 c 0,64,65
750 330 m 0,80,81
 750 268 750 268 706 224 c 0,82,83
 662 180 662 180 600 180 c 0,84,85
 538 180 538 180 494 224 c 0,86,87
 450 268 450 268 450 330 c 0,88,89
 450 392 450 392 494 436 c 0,90,91
 538 480 538 480 600 480 c 0,92,93
 662 480 662 480 706 436 c 0,94,95
 750 392 750 392 750 330 c 0,80,81
750 -20 m 0,96,97
 750 -82 750 -82 706 -126 c 0,98,99
 662 -170 662 -170 600 -170 c 0,100,101
 538 -170 538 -170 494 -126 c 0,102,103
 450 -82 450 -82 450 -20 c 0,104,105
 450 42 450 42 494 86 c 0,106,107
 538 130 538 130 600 130 c 0,108,109
 662 130 662 130 706 86 c 0,110,111
 750 42 750 42 750 -20 c 0,96,97
EndSplineSet
Validated: 1
EndChar

StartChar: uni283e
Encoding: 10302 10302 72
Width: 850
LayerCount: 2
Fore
SplineSet
400 680 m 0,0,1
 400 618 400 618 356 574 c 0,2,3
 312 530 312 530 250 530 c 0,4,5
 188 530 188 530 144 574 c 0,6,7
 100 618 100 618 100 680 c 0,8,9
 100 742 100 742 144 786 c 0,10,11
 188 830 188 830 250 830 c 0,12,13
 312 830 312 830 356 786 c 0,14,15
 400 742 400 742 400 680 c 0,0,1
350 680 m 0,16,17
 350 721 350 721 321 751 c 0,18,19
 291 780 291 780 250 780 c 0,20,21
 209 780 209 780 179 751 c 0,22,23
 150 721 150 721 150 680 c 0,24,25
 150 639 150 639 179 609 c 0,26,27
 209 580 209 580 250 580 c 0,28,29
 291 580 291 580 321 609 c 0,30,31
 350 639 350 639 350 680 c 0,16,17
400 330 m 0,32,33
 400 268 400 268 356 224 c 0,34,35
 312 180 312 180 250 180 c 0,36,37
 188 180 188 180 144 224 c 0,38,39
 100 268 100 268 100 330 c 0,40,41
 100 392 100 392 144 436 c 0,42,43
 188 480 188 480 250 480 c 0,44,45
 312 480 312 480 356 436 c 0,46,47
 400 392 400 392 400 330 c 0,32,33
400 -20 m 0,48,49
 400 -82 400 -82 356 -126 c 0,50,51
 312 -170 312 -170 250 -170 c 0,52,53
 188 -170 188 -170 144 -126 c 0,54,55
 100 -82 100 -82 100 -20 c 0,56,57
 100 42 100 42 144 86 c 0,58,59
 188 130 188 130 250 130 c 0,60,61
 312 130 312 130 356 86 c 0,62,63
 400 42 400 42 400 -20 c 0,48,49
750 680 m 0,64,65
 750 618 750 618 706 574 c 0,66,67
 662 530 662 530 600 530 c 0,68,69
 538 530 538 530 494 574 c 0,70,71
 450 618 450 618 450 680 c 0,72,73
 450 742 450 742 494 786 c 0,74,75
 538 830 538 830 600 830 c 0,76,77
 662 830 662 830 706 786 c 0,78,79
 750 742 750 742 750 680 c 0,64,65
750 330 m 0,80,81
 750 268 750 268 706 224 c 0,82,83
 662 180 662 180 600 180 c 0,84,85
 538 180 538 180 494 224 c 0,86,87
 450 268 450 268 450 330 c 0,88,89
 450 392 450 392 494 436 c 0,90,91
 538 480 538 480 600 480 c 0,92,93
 662 480 662 480 706 436 c 0,94,95
 750 392 750 392 750 330 c 0,80,81
750 -20 m 0,96,97
 750 -82 750 -82 706 -126 c 0,98,99
 662 -170 662 -170 600 -170 c 0,100,101
 538 -170 538 -170 494 -126 c 0,102,103
 450 -82 450 -82 450 -20 c 0,104,105
 450 42 450 42 494 86 c 0,106,107
 538 130 538 130 600 130 c 0,108,109
 662 130 662 130 706 86 c 0,110,111
 750 42 750 42 750 -20 c 0,96,97
EndSplineSet
Validated: 1
EndChar

StartChar: uni283f
Encoding: 10303 10303 73
Width: 850
LayerCount: 2
Fore
SplineSet
400 680 m 0,0,1
 400 618 400 618 356 574 c 0,2,3
 312 530 312 530 250 530 c 0,4,5
 188 530 188 530 144 574 c 0,6,7
 100 618 100 618 100 680 c 0,8,9
 100 742 100 742 144 786 c 0,10,11
 188 830 188 830 250 830 c 0,12,13
 312 830 312 830 356 786 c 0,14,15
 400 742 400 742 400 680 c 0,0,1
400 330 m 0,16,17
 400 268 400 268 356 224 c 0,18,19
 312 180 312 180 250 180 c 0,20,21
 188 180 188 180 144 224 c 0,22,23
 100 268 100 268 100 330 c 0,24,25
 100 392 100 392 144 436 c 0,26,27
 188 480 188 480 250 480 c 0,28,29
 312 480 312 480 356 436 c 0,30,31
 400 392 400 392 400 330 c 0,16,17
400 -20 m 0,32,33
 400 -82 400 -82 356 -126 c 0,34,35
 312 -170 312 -170 250 -170 c 0,36,37
 188 -170 188 -170 144 -126 c 0,38,39
 100 -82 100 -82 100 -20 c 0,40,41
 100 42 100 42 144 86 c 0,42,43
 188 130 188 130 250 130 c 0,44,45
 312 130 312 130 356 86 c 0,46,47
 400 42 400 42 400 -20 c 0,32,33
750 680 m 0,48,49
 750 618 750 618 706 574 c 0,50,51
 662 530 662 530 600 530 c 0,52,53
 538 530 538 530 494 574 c 0,54,55
 450 618 450 618 450 680 c 0,56,57
 450 742 450 742 494 786 c 0,58,59
 538 830 538 830 600 830 c 0,60,61
 662 830 662 830 706 786 c 0,62,63
 750 742 750 742 750 680 c 0,48,49
750 330 m 0,64,65
 750 268 750 268 706 224 c 0,66,67
 662 180 662 180 600 180 c 0,68,69
 538 180 538 180 494 224 c 0,70,71
 450 268 450 268 450 330 c 0,72,73
 450 392 450 392 494 436 c 0,74,75
 538 480 538 480 600 480 c 0,76,77
 662 480 662 480 706 436 c 0,78,79
 750 392 750 392 750 330 c 0,64,65
750 -20 m 0,80,81
 750 -82 750 -82 706 -126 c 0,82,83
 662 -170 662 -170 600 -170 c 0,84,85
 538 -170 538 -170 494 -126 c 0,86,87
 450 -82 450 -82 450 -20 c 0,88,89
 450 42 450 42 494 86 c 0,90,91
 538 130 538 130 600 130 c 0,92,93
 662 130 662 130 706 86 c 0,94,95
 750 42 750 42 750 -20 c 0,80,81
EndSplineSet
Validated: 1
EndChar

StartChar: unif008
Encoding: 61448 61448 74
Width: 300
LayerCount: 2
Fore
SplineSet
250 330 m 0,0,1
 250 289 250 289 221 259 c 0,2,3
 191 230 191 230 150 230 c 0,4,5
 109 230 109 230 79 259 c 0,6,7
 50 289 50 289 50 330 c 0,8,9
 50 371 50 371 79 401 c 0,10,11
 109 430 109 430 150 430 c 0,12,13
 191 430 191 430 221 401 c 0,14,15
 250 371 250 371 250 330 c 0,0,1
EndSplineSet
Validated: 1
EndChar

StartChar: unif009
Encoding: 61449 61449 75
Width: 600
LayerCount: 2
Fore
SplineSet
50 280 m 1,0,-1
 50 380 l 1,1,-1
 550 380 l 1,2,-1
 550 280 l 1,3,-1
 50 280 l 1,0,-1
EndSplineSet
Validated: 1
EndChar

StartChar: unif00a
Encoding: 61450 61450 76
Width: 300
LayerCount: 2
Fore
SplineSet
100 -100 m 1,0,-1
 0 -100 l 1,1,-1
 200 760 l 1,2,-1
 300 760 l 1,3,-1
 100 -100 l 1,0,-1
EndSplineSet
Validated: 1
EndChar

StartChar: unif100
Encoding: 61696 61696 77
Width: 1200
LayerCount: 2
Fore
SplineSet
1020 160 m 1,0,-1
 1020 560 l 1,1,-1
 1080 560 l 1,2,-1
 1080 100 l 1,3,-1
 120 100 l 1,4,-1
 120 160 l 1,5,-1
 1020 160 l 1,0,-1
450 330 m 0,6,7
 450 289 450 289 421 259 c 0,8,9
 391 230 391 230 350 230 c 0,10,11
 309 230 309 230 279 259 c 0,12,13
 250 289 250 289 250 330 c 0,14,15
 250 371 250 371 279 401 c 0,16,17
 309 430 309 430 350 430 c 0,18,19
 391 430 391 430 421 401 c 0,20,21
 450 371 450 371 450 330 c 0,6,7
EndSplineSet
Validated: 1
EndChar

StartChar: unif101
Encoding: 61697 61697 78
Width: 1200
LayerCount: 2
Fore
SplineSet
1020 160 m 1,0,-1
 1020 560 l 1,1,-1
 1080 560 l 1,2,-1
 1080 100 l 1,3,-1
 120 100 l 1,4,-1
 120 160 l 1,5,-1
 1020 160 l 1,0,-1
700 330 m 0,6,7
 700 289 700 289 671 259 c 0,8,9
 641 230 641 230 600 230 c 0,10,11
 559 230 559 230 529 259 c 0,12,13
 500 289 500 289 500 330 c 0,14,15
 500 371 500 371 529 401 c 0,16,17
 559 430 559 430 600 430 c 0,18,19
 641 430 641 430 671 401 c 0,20,21
 700 371 700 371 700 330 c 0,6,7
EndSplineSet
Validated: 1
EndChar

StartChar: unif102
Encoding: 61698 61698 79
Width: 1200
LayerCount: 2
Fore
SplineSet
1020 160 m 1,0,-1
 1020 560 l 1,1,-1
 1080 560 l 1,2,-1
 1080 100 l 1,3,-1
 120 100 l 1,4,-1
 120 160 l 1,5,-1
 1020 160 l 1,0,-1
950 330 m 0,6,7
 950 289 950 289 921 259 c 0,8,9
 891 230 891 230 850 230 c 0,10,11
 809 230 809 230 779 259 c 0,12,13
 750 289 750 289 750 330 c 0,14,15
 750 371 750 371 779 401 c 0,16,17
 809 430 809 430 850 430 c 0,18,19
 891 430 891 430 921 401 c 0,20,21
 950 371 950 371 950 330 c 0,6,7
EndSplineSet
Validated: 1
EndChar

StartChar: unif103
Encoding: 61699 61699 80
Width: 1200
LayerCount: 2
Fore
SplineSet
120 100 m 1,0,-1
 120 560 l 1,1,-1
 180 560 l 1,2,-1
 180 160 l 1,3,-1
 1020 160 l 1,4,-1
 1020 560 l 1,5,-1
 1080 560 l 1,6,-1
 1080 100 l 1,7,-1
 120 100 l 1,0,-1
450 330 m 0,8,9
 450 289 450 289 421 259 c 0,10,11
 391 230 391 230 350 230 c 0,12,13
 309 230 309 230 279 259 c 0,14,15
 250 289 250 289 250 330 c 0,16,17
 250 371 250 371 279 401 c 0,18,19
 309 430 309 430 350 430 c 0,20,21
 391 430 391 430 421 401 c 0,22,23
 450 371 450 371 450 330 c 0,8,9
EndSplineSet
Validated: 1
EndChar

StartChar: unif104
Encoding: 61700 61700 81
Width: 1200
LayerCount: 2
Fore
SplineSet
120 100 m 1,0,-1
 120 560 l 1,1,-1
 180 560 l 1,2,-1
 180 160 l 1,3,-1
 1020 160 l 1,4,-1
 1020 560 l 1,5,-1
 1080 560 l 1,6,-1
 1080 100 l 1,7,-1
 120 100 l 1,0,-1
700 330 m 0,8,9
 700 289 700 289 671 259 c 0,10,11
 641 230 641 230 600 230 c 0,12,13
 559 230 559 230 529 259 c 0,14,15
 500 289 500 289 500 330 c 0,16,17
 500 371 500 371 529 401 c 0,18,19
 559 430 559 430 600 430 c 0,20,21
 641 430 641 430 671 401 c 0,22,23
 700 371 700 371 700 330 c 0,8,9
EndSplineSet
Validated: 1
EndChar

StartChar: unif105
Encoding: 61701 61701 82
Width: 1200
LayerCount: 2
Fore
SplineSet
120 100 m 1,0,-1
 120 560 l 1,1,-1
 180 560 l 1,2,-1
 180 160 l 1,3,-1
 1020 160 l 1,4,-1
 1020 560 l 1,5,-1
 1080 560 l 1,6,-1
 1080 100 l 1,7,-1
 120 100 l 1,0,-1
950 330 m 0,8,9
 950 289 950 289 921 259 c 0,10,11
 891 230 891 230 850 230 c 0,12,13
 809 230 809 230 779 259 c 0,14,15
 750 289 750 289 750 330 c 0,16,17
 750 371 750 371 779 401 c 0,18,19
 809 430 809 430 850 430 c 0,20,21
 891 430 891 430 921 401 c 0,22,23
 950 371 950 371 950 330 c 0,8,9
EndSplineSet
Validated: 1
EndChar

StartChar: unif106
Encoding: 61702 61702 83
Width: 1200
LayerCount: 2
Fore
SplineSet
120 100 m 1,0,-1
 120 560 l 1,1,-1
 180 560 l 1,2,-1
 180 160 l 1,3,-1
 1080 160 l 1,4,-1
 1080 100 l 1,5,-1
 120 100 l 1,0,-1
450 330 m 0,6,7
 450 289 450 289 421 259 c 0,8,9
 391 230 391 230 350 230 c 0,10,11
 309 230 309 230 279 259 c 0,12,13
 250 289 250 289 250 330 c 0,14,15
 250 371 250 371 279 401 c 0,16,17
 309 430 309 430 350 430 c 0,18,19
 391 430 391 430 421 401 c 0,20,21
 450 371 450 371 450 330 c 0,6,7
EndSplineSet
Validated: 1
EndChar

StartChar: unif107
Encoding: 61703 61703 84
Width: 1200
LayerCount: 2
Fore
SplineSet
120 100 m 1,0,-1
 120 560 l 1,1,-1
 180 560 l 1,2,-1
 180 160 l 1,3,-1
 1080 160 l 1,4,-1
 1080 100 l 1,5,-1
 120 100 l 1,0,-1
700 330 m 0,6,7
 700 289 700 289 671 259 c 0,8,9
 641 230 641 230 600 230 c 0,10,11
 559 230 559 230 529 259 c 0,12,13
 500 289 500 289 500 330 c 0,14,15
 500 371 500 371 529 401 c 0,16,17
 559 430 559 430 600 430 c 0,18,19
 641 430 641 430 671 401 c 0,20,21
 700 371 700 371 700 330 c 0,6,7
EndSplineSet
Validated: 1
EndChar

StartChar: unif108
Encoding: 61704 61704 85
Width: 1200
LayerCount: 2
Fore
SplineSet
120 100 m 1,0,-1
 120 560 l 1,1,-1
 180 560 l 1,2,-1
 180 160 l 1,3,-1
 1080 160 l 1,4,-1
 1080 100 l 1,5,-1
 120 100 l 1,0,-1
950 330 m 0,6,7
 950 289 950 289 921 259 c 0,8,9
 891 230 891 230 850 230 c 0,10,11
 809 230 809 230 779 259 c 0,12,13
 750 289 750 289 750 330 c 0,14,15
 750 371 750 371 779 401 c 0,16,17
 809 430 809 430 850 430 c 0,18,19
 891 430 891 430 921 401 c 0,20,21
 950 371 950 371 950 330 c 0,6,7
EndSplineSet
Validated: 1
EndChar

StartChar: unif109
Encoding: 61705 61705 86
Width: 1200
LayerCount: 2
Fore
SplineSet
120 500 m 1,0,-1
 120 560 l 1,1,-1
 1080 560 l 1,2,-1
 1080 100 l 1,3,-1
 120 100 l 1,4,-1
 120 160 l 1,5,-1
 1020 160 l 1,6,-1
 1020 500 l 1,7,-1
 120 500 l 1,0,-1
450 330 m 0,8,9
 450 289 450 289 421 259 c 0,10,11
 391 230 391 230 350 230 c 0,12,13
 309 230 309 230 279 259 c 0,14,15
 250 289 250 289 250 330 c 0,16,17
 250 371 250 371 279 401 c 0,18,19
 309 430 309 430 350 430 c 0,20,21
 391 430 391 430 421 401 c 0,22,23
 450 371 450 371 450 330 c 0,8,9
EndSplineSet
Validated: 1
EndChar

StartChar: unif10a
Encoding: 61706 61706 87
Width: 1200
LayerCount: 2
Fore
SplineSet
120 500 m 1,0,-1
 120 560 l 1,1,-1
 1080 560 l 1,2,-1
 1080 100 l 1,3,-1
 120 100 l 1,4,-1
 120 160 l 1,5,-1
 1020 160 l 1,6,-1
 1020 500 l 1,7,-1
 120 500 l 1,0,-1
700 330 m 0,8,9
 700 289 700 289 671 259 c 0,10,11
 641 230 641 230 600 230 c 0,12,13
 559 230 559 230 529 259 c 0,14,15
 500 289 500 289 500 330 c 0,16,17
 500 371 500 371 529 401 c 0,18,19
 559 430 559 430 600 430 c 0,20,21
 641 430 641 430 671 401 c 0,22,23
 700 371 700 371 700 330 c 0,8,9
EndSplineSet
Validated: 1
EndChar

StartChar: unif10b
Encoding: 61707 61707 88
Width: 1200
LayerCount: 2
Fore
SplineSet
120 500 m 1,0,-1
 120 560 l 1,1,-1
 1080 560 l 1,2,-1
 1080 100 l 1,3,-1
 120 100 l 1,4,-1
 120 160 l 1,5,-1
 1020 160 l 1,6,-1
 1020 500 l 1,7,-1
 120 500 l 1,0,-1
950 330 m 0,8,9
 950 289 950 289 921 259 c 0,10,11
 891 230 891 230 850 230 c 0,12,13
 809 230 809 230 779 259 c 0,14,15
 750 289 750 289 750 330 c 0,16,17
 750 371 750 371 779 401 c 0,18,19
 809 430 809 430 850 430 c 0,20,21
 891 430 891 430 921 401 c 0,22,23
 950 371 950 371 950 330 c 0,8,9
EndSplineSet
Validated: 1
EndChar

StartChar: unif10c
Encoding: 61708 61708 89
Width: 1200
LayerCount: 2
Fore
SplineSet
120 100 m 1,0,-1
 120 560 l 1,1,-1
 1080 560 l 1,2,-1
 1080 100 l 1,3,-1
 120 100 l 1,0,-1
1020 500 m 1,4,-1
 180 500 l 1,5,-1
 180 160 l 1,6,-1
 1020 160 l 1,7,-1
 1020 500 l 1,4,-1
450 330 m 0,8,9
 450 289 450 289 421 259 c 0,10,11
 391 230 391 230 350 230 c 0,12,13
 309 230 309 230 279 259 c 0,14,15
 250 289 250 289 250 330 c 0,16,17
 250 371 250 371 279 401 c 0,18,19
 309 430 309 430 350 430 c 0,20,21
 391 430 391 430 421 401 c 0,22,23
 450 371 450 371 450 330 c 0,8,9
EndSplineSet
Validated: 1
EndChar

StartChar: unif10d
Encoding: 61709 61709 90
Width: 1200
LayerCount: 2
Fore
SplineSet
120 100 m 1,0,-1
 120 560 l 1,1,-1
 1080 560 l 1,2,-1
 1080 100 l 1,3,-1
 120 100 l 1,0,-1
1020 500 m 1,4,-1
 180 500 l 1,5,-1
 180 160 l 1,6,-1
 1020 160 l 1,7,-1
 1020 500 l 1,4,-1
700 330 m 0,8,9
 700 289 700 289 671 259 c 0,10,11
 641 230 641 230 600 230 c 0,12,13
 559 230 559 230 529 259 c 0,14,15
 500 289 500 289 500 330 c 0,16,17
 500 371 500 371 529 401 c 0,18,19
 559 430 559 430 600 430 c 0,20,21
 641 430 641 430 671 401 c 0,22,23
 700 371 700 371 700 330 c 0,8,9
EndSplineSet
Validated: 1
EndChar

StartChar: unif10e
Encoding: 61710 61710 91
Width: 1200
LayerCount: 2
Fore
SplineSet
120 100 m 1,0,-1
 120 560 l 1,1,-1
 1080 560 l 1,2,-1
 1080 100 l 1,3,-1
 120 100 l 1,0,-1
1020 500 m 1,4,-1
 180 500 l 1,5,-1
 180 160 l 1,6,-1
 1020 160 l 1,7,-1
 1020 500 l 1,4,-1
950 330 m 0,8,9
 950 289 950 289 921 259 c 0,10,11
 891 230 891 230 850 230 c 0,12,13
 809 230 809 230 779 259 c 0,14,15
 750 289 750 289 750 330 c 0,16,17
 750 371 750 371 779 401 c 0,18,19
 809 430 809 430 850 430 c 0,20,21
 891 430 891 430 921 401 c 0,22,23
 950 371 950 371 950 330 c 0,8,9
EndSplineSet
Validated: 1
EndChar

